<?xml version="1.0" encoding="UTF-8"?>
<svg id="Layer_2" data-name="Layer 2" xmlns="http://www.w3.org/2000/svg" viewBox="0 0 1019.45 642.35">
  <defs>
    <style>
      .cls-1 {
        fill: #fff;
      }

      .cls-2 {
        fill: #b52678;
      }

      .cls-3 {
        fill: #222630;
      }
    </style>
  </defs>
  <g id="Layer_1-2" data-name="Layer 1">
    <path class="cls-3" d="M449.78,642.35H0l189.06-129.96-130.71,2.59,179.14-110.63-85.81.72,165.12-114.4-61.44,1.29L669.79,0l23.1,137.62,134.17,65.12,22.8,36.31,169.6,88.03-85.27,129.82-165.48,31.59-51.19,49.53v104.33h-267.73Z"/>
    <polygon class="cls-2" points="821.76 269.53 799.28 233.72 656.85 164.59 640.86 69.31 385.5 249.21 448.8 247.88 281.22 363.98 380.34 363.15 203.93 472.09 321.7 469.76 128.8 602.35 281.89 602.35 503.6 448.77 421.65 448.77 517.76 380.31 428.98 380.81 584.89 259.71 498.1 229.56 612.88 149.1 622.04 201.4 764.46 258.54 800.77 299.52 898.05 342.49 864.41 388.3 707.32 394.8 608.38 445.77 518.76 602.35 677.51 602.35 677.51 521.06 749.47 451.44 910.05 420.79 961.69 342.16 821.76 269.53"/>
    <path class="cls-1" d="M699.85,267.66c3.81,0,86.26,50.74,86.26,50.74l-86.26-20.3v-30.44Z"/>
  </g>
</svg>