<?xml version="1.0" encoding="UTF-8"?>
<svg id="Layer_2" data-name="Layer 2" xmlns="http://www.w3.org/2000/svg" viewBox="0 0 2112.71 642.35">
  <defs>
    <style>
      .cls-1 {
        font-family: FixtureItalic-ExpandedExtraBold, 'Fixture Italic';
        font-size: 49.1px;
        font-weight: 700;
      }

      .cls-1, .cls-2 {
        fill: #fff;
      }

      .cls-3 {
        letter-spacing: -.03em;
      }

      .cls-4 {
        letter-spacing: 0em;
      }

      .cls-5 {
        letter-spacing: -.04em;
      }

      .cls-6 {
        letter-spacing: -.03em;
      }

      .cls-7 {
        fill: #b52678;
      }

      .cls-8 {
        fill: #222630;
      }

      .cls-9 {
        letter-spacing: 0em;
      }
    </style>
  </defs>
  <g id="Layer_1-2" data-name="Layer 1">
    <path class="cls-8" d="M1943.11,239.05l-22.79-36.3-134.17-65.12L1763.05,0l-151.59,106.79H5.37l99.06,82.74-53.88,232.13-.24.6-6.31,27.58c-.35,1.27-.65,2.57-.89,3.9l-26.35,115.24-5.21,22.12-.14,1.25-11.43,50h1810.77v-104.33l51.19-49.53,165.48-31.59,85.27-129.83-169.6-88.03Z"/>
    <path class="cls-7" d="M1349.34,527.55c-.33-.98-.82-1.48-1.48-1.48H70.75c-1.97,0-3.28,1.64-3.94,4.92l-15.75,66.93c-.33,2.95.33,4.43,1.97,4.43h1277.12c1.97,0,3.12-1.48,3.45-4.43l15.75-66.93c.33-1.31.33-2.46,0-3.45Z"/>
    <g>
      <path class="cls-2" d="M363.11,336.28l13.82-61.08c.59-2.08.15-3.12-1.34-3.12h-160.06l12.93-56.18h168.98c1.49,0,2.38-.89,2.68-2.68l14.71-63.31c0-2.08-.44-3.12-1.34-3.12H106.61l44.29,19.48-68.22,293.94c-.59,1.49,0,2.23,1.78,2.23h84.71c1.19,0,2.08-.74,2.67-2.23l28.09-121.27h160.06c1.78,0,2.82-.89,3.12-2.68Z"/>
      <path class="cls-2" d="M648.14,149.02c0-.3-.08-.74-.22-1.34-.15-.59-.67-.89-1.56-.89h-180.26l39.28,17.28-176.91,295.7c-.3.59-.22,1.19.22,1.78.45.59.97.89,1.56.89h88.28c.89,0,1.78-.74,2.67-2.23l34.33-59.74h134.65l7.13,59.74c0,1.49.6,2.23,1.78,2.23h88.28c.59,0,1.19-.3,1.78-.89.6-.59.74-1.19.45-1.78l-41.46-310.75ZM492.99,335.83l47.26-82.48c12.49-23.18,20.21-38.64,23.19-46.37h8.47c-.3,2.38-.44,6.54-.44,12.48,0,11.59.59,22.89,1.78,33.88l9.81,82.48h-90.06Z"/>
      <path class="cls-2" d="M1049.72,160.17c-16.35-8.92-41.76-13.37-76.24-13.37h-242.23l44.29,19.48-68.22,293.94c-.6,1.49,0,2.23,1.78,2.23h84.71c1.19,0,2.08-.74,2.67-2.23l24.97-107.9h78.91c15.46,0,27.05,2.23,34.78,6.69,7.73,4.46,11.59,12.19,11.59,23.18,0,3.86-.74,9.06-2.23,15.6l-8.92,39.68c-2.08,9.21-3.12,15.46-3.12,18.73,0,2.08.15,3.57.45,4.46,0,1.19.74,1.78,2.23,1.78h85.6c1.78,0,2.67-1.04,2.67-3.12-.3-5.35.15-11.52,1.34-18.5,1.19-6.99,2.53-14.04,4.01-21.18l8.47-36.11c1.19-5.05,1.78-10.4,1.78-16.05,0-13.97-4.46-25.12-13.37-33.44-8.92-8.32-20.81-13.23-35.67-14.71l.89-3.57c18.13-1.78,34.33-9.51,48.6-23.18,14.27-13.67,24.08-32.4,29.42-56.18l2.23-8.92c2.08-10.4,3.12-18.28,3.12-23.63,0-20.21-8.17-34.78-24.52-43.69ZM977.05,248.45l-.45,3.12c-2.97,12.19-8.4,20.88-16.27,26.08-7.88,5.2-18.35,7.8-31.43,7.8h-91.85l16.5-71.78h89.62c11.59,0,20.36,1.86,26.3,5.57,5.94,3.72,8.92,9.73,8.92,18.06,0,3.27-.44,6.98-1.34,11.15Z"/>
      <path class="cls-2" d="M1439.52,148.13c-.3-.89-.74-1.34-1.34-1.34h-371.97l43.9,19.32-10.77,45.78c-.3,2.68.3,4.01,1.78,4.01h115.92l-56.62,244.32c-.59,1.49,0,2.23,1.78,2.23h84.71c1.19,0,2.08-.74,2.68-2.23l56.62-244.32h115.92c1.78,0,2.82-1.34,3.12-4.01l14.27-60.63c.3-1.19.3-2.23,0-3.12Z"/>
    </g>
    <polygon class="cls-7" points="1915.03 269.53 1892.54 233.72 1750.11 164.59 1734.12 69.31 1478.76 249.21 1542.06 247.88 1374.48 363.98 1473.6 363.15 1297.19 472.09 1414.96 469.76 1222.07 602.35 1375.15 602.35 1596.86 448.77 1514.91 448.77 1611.02 380.31 1522.24 380.81 1678.15 259.71 1591.37 229.56 1706.14 149.1 1715.3 201.4 1857.72 258.54 1894.04 299.52 1991.32 342.49 1957.67 388.3 1800.59 394.8 1701.64 445.77 1612.02 602.35 1770.77 602.35 1770.77 521.06 1842.73 451.44 2003.31 420.79 2054.95 342.16 1915.03 269.53"/>
    <text class="cls-1" transform="translate(83.17 583.95)"><tspan x="0" y="0">THE </tspan><tspan class="cls-3" x="133.06" y="0">F</tspan><tspan x="167.52" y="0">AIR ALPHA RI</tspan><tspan class="cls-5" x="566.54" y="0">V</tspan><tspan class="cls-9" x="604.94" y="0">AL</tspan><tspan class="cls-4" x="681.53" y="0">R</tspan><tspan x="723.76" y="0">Y TRIALS LE</tspan><tspan class="cls-6" x="1082.17" y="0">A</tspan><tspan x="1122.19" y="0">GUE</tspan></text>
    <path class="cls-2" d="M1793.11,267.66c3.81,0,86.26,50.74,86.26,50.74l-86.26-20.3v-30.44Z"/>
  </g>
</svg>