<?xml version="1.0" encoding="UTF-8"?>
<svg id="Layer_2" data-name="Layer 2" xmlns="http://www.w3.org/2000/svg" viewBox="0 0 290.85 270.84">
  <defs>
    <style>
      .cls-1 {
        fill: #fff;
      }

      .cls-2 {
        fill: #b70064;
      }

      .cls-3 {
        fill: #ea008b;
      }
    </style>
  </defs>
  <g id="Layer_1-2" data-name="Layer 1">
    <g>
      <path d="M195.99,21.85c-10.3-5.85-13.57-4.31-22.3-9.1-4.02-2.2-9.65-5.99-15.42-12.75-1.41,6.03-1.92,13.41,1.56,20.03,2.16,4.11,5.5,7.25,5.46,7.28-.06.05-6.24-10.06-16.39-15.61-7.12-3.9-14.5-4.61-20.29-4.42,2.53-1.1,6.94-2.58,12.49-2.34,2.92.13,5.39.7,7.28,1.3-4.31-2.72-8.3-4.03-11.45-4.68-20.25-4.22-37.22,12.01-39.54,14.31-5.44-3.34-10.38-5.06-13.85-5.98-4.64-1.24-8.86-2.32-14.24-1.3-4.39.83-7.48,2.66-8.42,3.25-2.86,1.79-4.63,3.75-7.3,6.72-2.13,2.37-3.73,4.49-4.82,6.03.24-.21,1.67-1.44,3.79-1.26,2.23.19,3.46,1.8,3.64,2.04-1.64.3-3.98.96-6.24,2.6-3.22,2.34-4.59,5.46-5.2,6.76,0,0-1.43,3.05-11.45,15.87-3.97,5.08-12.61,10.16-33.3,9.63.63,2.97,1.71,6.7,3.64,10.74,2.47,5.17,5.44,9.02,7.8,11.63-2.08-.78-4.16-1.56-6.24-2.34,2.03,4.29,5.6,10.54,11.71,16.65,5.41,5.42,10.88,8.81,14.86,10.86-5.43,4.6-12.95,12.12-19.25,23.15-8.46,14.81-10.59,28.75-11.19,36.68.46-.71,1.51-2.12,3.38-3.12,2.25-1.2,4.36-1.12,5.2-1.04-.47,6.91-.51,21.13,6.63,36.94,7.66,16.95,19.46,26.62,25.1,30.7,0-.46.09-1.41.68-2.37.9-1.48,2.34-1.96,2.73-2.08,10.47,10.56,20.21,18.19,27.55,23.38,13.43,9.51,23.49,16.47,38.27,19.51,3.43.7,11.49,2.1,24.87.78,27.14-2.67,50.4-13.95,66.83-24.39.61.27,2.31,1.13,3.38,3.09,1.54,2.8.55,5.61.39,6.05,3.16-1.81,6.4-3.81,9.69-6.02,11.1-7.44,20.11-15.47,27.32-23.02,3.19-4.35,7.23-10.91,10.02-19.61,1.94-6.08,2.75-11.55,3.06-15.9.48.51,1.06,1.29,1.37,2.34.53,1.82-.12,3.27,0,3.32.32.11,6.78-9.48,7.61-21.85.63-9.29-2.2-16.02-6.44-26.14-2.7-6.44-7.14-15.4-14.44-25.17,5.58-1.08,14.96-3.68,24.39-10.6,14.62-10.73,20.11-25.07,21.92-30.63-9.68-1.77-17.49-4.39-23.12-6.63-6.79-2.71-12.28-4.9-18.47-9.56-7.23-5.44-7.36-8.18-13.53-12.74-3.96-2.93-10.36-6.58-20.29-8.33-.77-2.66-2.2-6.46-4.94-10.41-1.25-1.8-5.01-6.83-14.5-12.23Z"/>
      <path class="cls-2" d="M91.97,31.58c-3.57-1.44-9.13-3.68-15.87-2.86,0,0-9.92,1.27-18.21,10.41-2.47,2.72-2.26,3.42-6.5,9.11-3.48,4.67-5.91,8.04-9.37,11.19-6.15,5.61-12.62,8-15.32,8.98-3.24,1.17-6.07,1.79-8.13,2.15.64,2.9,2.28,7.95,6.8,11.25.56.41,1.13.76,1.69,1.07-.23.26-.54.55-.94.81-.88.59-1.75.78-2.28.85,2.75,3.93,5.54,6.58,7.58,8.26,1.28,1.06,2.51,1.89,4.98,3.58,2.99,2.05,4.79,3.1,6.93,4,.73.31,1.34.54,1.76.68,1.58-1.19,3.44-2.82,5.27-4.98,2.39-2.82,3.91-5.58,4.88-7.71-1.21.61-2.92,1.32-5.07,1.74-2.11.41-3.94.41-5.27.31.53-3.16,1.56-5.38,2.37-6.78,1.66-2.87,3.24-3.84,4.65-6.88.99-2.13,1.33-4.06,1.46-5.28-.98.71-2.48,1.66-4.45,2.43-1.59.62-3.05.95-4.69,1.19-5.52.82-12.36.57-14.28.49,4.44-1.62,10.69-4.49,16.97-9.66,5.14-4.22,8.53-7,10.93-11.9.87-1.78,1.38-3.36,3.12-5.07.63-.61,4.49-4.26,10.05-3.61,4.23.5,8.56,3.38,9.95,8,1.22,4.07-.42,7.59-.88,8.49-1.15-.93-3.54-2.62-7.02-3.32-4.09-.82-7.38.17-8.78.68,1.18,1.02,2.43,2.18,3.71,3.51,1.26,1.31,2.36,2.59,3.32,3.8-2.64,1.04-6.47,2.9-10.34,6.24-4.36,3.77-6.9,7.8-8.29,10.44,2.65-1.09,5.68-2.18,9.07-3.12,3.46-.96,6.68-1.61,9.56-2.05-1.25,2.97-3.36,7.45-6.63,12.49-6.41,9.85-13.34,15.69-15.8,17.85-6.97,6.13-16.87,16.85-28.88,36.88,2.03-1.29,4.51-2.66,7.41-3.9,2.7-1.16,5.21-1.96,7.41-2.54-3.96,4.13-10.57,12.36-12.58,24.29-3.13,18.54,7,33.28,10.34,38.14,3.14,4.57,6.37,7.9,8.68,10.05.94-1.11,1.89-2.21,2.83-3.32,10.9,11.04,20.93,19.47,28.78,25.56,0,0,21.55,16.71,39.8,22.54,2.52.8,4.47,1.2,5.37,1.37,8.02,1.5,14.56.33,19.02-.59,16.49-3.37,26.12-5.34,39.51-11.22,8.92-3.91,20.82-10.14,33.46-20,.61,1.25,1.24,2.79,1.76,4.59.56,1.94.84,3.71.98,5.17,4.42-2.39,11.23-6.78,17.56-14.24,9.52-11.23,12.23-22.73,12.88-25.76,2.76-12.9.35-23.49-1.17-28.58,1.42.32,3.17.85,5.07,1.76,3.63,1.74,4.65,3.85,5.37,3.51,1.4-.66-.42-9.41-4.78-18.73-2.69-5.75-4.12-6.96-9.66-15.71-1.69-2.66-5.64-9.58-13.46-23.32-2.67-4.68-6.26-11-10.54-18.54,2.38,1.01,5.22,2.02,8.49,2.83,4.01.99,7.63,1.41,10.63,1.56-2.55-1.21-6.24-3.33-9.85-6.93-3.13-3.12-5.12-6.26-6.34-8.59,1.66.31,3.74.55,6.15.49,2.2-.05,4.11-.34,5.66-.68-1.06-1.4-2.85-3.41-5.56-5.17-3.03-1.96-5.9-2.77-7.71-3.12.99-.67,2.5-1.52,4.49-2.05,2.75-.74,5.09-.52,6.44-.29-3.18-1.66-7.3-3.43-12.29-4.68-8.02-2.02-14.98-1.87-19.71-1.37,2.31-1.23,5.11-2.51,8.39-3.61,3.72-1.25,7.11-1.95,9.95-2.34-5.04-2-9.38-2.7-12.68-2.93-5.18-.35-7.34.52-12.78.2-4.28-.26-7.2-1.06-12.49-2.54-11.69-3.27-14.86-6.02-25.56-8.88-4.28-1.14-7.83-1.79-10.05-2.15,1.07-.75,2.67-1.69,4.78-2.34,2.67-.82,4.99-.81,6.44-.68-1.3-.77-4.08-2.15-7.8-2.15-5.74,0-9.57,3.31-10.54,4.19-1.89-.03-3.77-.07-5.66-.1.51-1.44,1.78-4.44,4.78-7.02,3.59-3.09,7.48-3.73,8.98-3.9-1.18-.25-8.17-1.6-14.24,2.93-3.47,2.58-5.02,5.88-5.66,7.51-.94.07-1.89.13-2.83.2-.07-1.18-.38-8.07,4.78-13.27,5.56-5.59,13.14-4.87,15.12-4.59,6.45.92,11.15,5.33,15.12,9.07,1.29,1.22,1.35,1.41,3.02,3.12,6.02,6.14,12.05,10.48,14.15,11.8,12.44,7.89,31.05,4.75,31.12,3.71.06-.94-15.31.62-27.12-9.56-1.41-1.21-.65-.77-6.34-6.63-8.47-8.73-12.71-13.09-16-15.12-2.47-1.52-10.14-6.11-20.39-5.27-2.89.24-11.26.92-17.76,7.51-9.5,9.64-6.82,23.62-6.54,24.97-1.12-2.44-2.85-7.09-2.63-13.07.11-2.9.43-9.33,5.17-15.22,4.28-5.33,9.79-7.25,12.1-7.9-1.73-.14-8.94-.51-15.32,4.59-4.36,3.49-6.15,7.79-6.83,9.76-1.93-1.36-4.54-2.92-7.8-4.19-4.25-1.66-8.07-2.24-10.83-2.44,2.34,1,5.35,2.56,8.49,4.98,3.23,2.49,5.54,5.07,7.12,7.12-.97-.53-2.37-1.24-4.13-1.95Z"/>
      <path class="cls-2" d="M208.39,49.37c-2.13-1.45-5.41-3.26-9.66-3.9-3.43-.52-3.9.26-7.8,0-2.85-.19-9.96-.66-14.73-5.76-1.08-1.15-2.7-3.25-3.71-6.63,1.74,1.33,4.08,2.86,7.02,4.19,3.2,1.45,6.12,2.21,8.39,2.63-2.78-1.4-6.38-3.56-10.05-6.83-3.91-3.48-6.56-7.03-8.29-9.76,4.18,3.76,8.08,6.18,10.93,7.71,1.09.59,6.27,3.31,13.56,5.32,3.59.99,4,.79,5.56,1.51,4.97,2.31,7.46,7.46,8.78,11.51Z"/>
      <path class="cls-2" d="M236.19,112.39c4.08-.27,11.16-1.29,18.73-5.46,10.11-5.57,15.33-13.6,17.43-17.3-8.42-1.71-13.78-5.01-17.17-7.8-4.51-3.73-5.43-6.48-14.31-15.87-4.19-4.43-6.28-6.65-8.06-7.93-3.78-2.73-11.7-6.79-26.67-4.55,6.47,1.63,15.35,4.96,22.89,12.49,3.48,3.48,4.6,5.78,8.19,10.02,4.28,5.05,11.09,11.68,21.85,17.82-2.94.38-6.82.59-11.32,0-6.05-.8-10.8-2.72-13.92-4.29.17,1.82.59,4.34,1.69,7.15,1.13,2.87,2.57,5.04,3.71,6.5-.44.46-1.37,1.29-2.8,1.69-2.46.7-4.5-.4-4.94-.65,1.56,2.73,3.12,5.46,4.68,8.19Z"/>
      <path class="cls-3" d="M117.49,58.14c3.83-2.53,7.88-2.42,12.75-2.21,4.56.19,8.7.42,12.36,3.25.77.6,1.88,1.47,2.73,2.99,1.47,2.6,1.2,5.31.65,8.98-.8,5.34-1.21,8.02-1.95,10.41-2.61,8.39-3.08,24.3,2.3,36.94,1.57,3.7,5.71,11.96,10.18,19.51.62,1.05.83,1.38,1.17,2.08,2.94,6.08,3.03,14.3-.78,21.07-1.07,1.9-4.62,8.21-12.36,10.28-5.72,1.53-12.41.49-17.04-3.51-1.38-1.19-4.32-3.73-4.68-7.67-.46-4.95,3.42-9.15,6.37-11.06,1.6-1.04,1.59-.53,3.64-1.69,1.13-.64,7.17-4.05,8.59-10.54.43-1.97.91-4.16-.26-5.98-2.45-3.81-10.86-3.95-15.74-.91-1.17.73-1.66,1.34-3.12,1.82-3.12,1.02-6.19-.05-8.19-.78-3.42-1.25-3.11-2.08-5.72-2.86-.99-.3-6.02-1.8-8.85.78-2.64,2.41-2.07,7.22-.91,10.02,1,2.43,3.23,4.4,7.67,8.32,2.92,2.58,3.28,2.54,4.29,3.9.8,1.08,3.53,4.74,2.73,9.37-.76,4.37-4.2,6.82-4.68,7.15-5.49,3.78-14.48,2.06-19.38-2.6-8.26-7.85-5.2-24.31,1.43-30.96,1.13-1.14,2.22-1.84,4.55-4.29,0,0,4.8-5.05,8.19-11.06,3.25-5.74,4.38-11.37,6.63-22.63,2.93-14.61,4.39-21.92,3.51-25.63-.35-1.47-1.49-5.56.52-9.11,1.02-1.8,2.46-2.77,3.38-3.38Z"/>
      <path d="M81.92,74.14c-5.49,11.6-7.72,21.51-8.72,28.23-.65,4.35-1.59,12.87,2.47,18.73,1.84,2.65,3.64,3.22,4.29,3.38,3.28.81,6.37-1.59,7.67-2.6,6.53-5.06,8.47-14.13,10.67-24.97,0,0,3.21-15.86,0-24.32-.94-2.47-2.47-4.81-2.47-4.81-1.56-2.39-2.35-3.59-3.77-4.29-3.86-1.92-8.87,1.63-9.5,2.08-3.26,2.37-4.49,5.67-4.94,7.15.58.15,1.19.32,1.82.52.89.29,1.72.59,2.47.91Z"/>
      <path d="M175.31,71.48c-1.87.84-4.67,2.39-7.15,5.2-3.74,4.24-4.56,8.85-5.33,13.53-2.29,13.89,1.96,26.02,6.24,32,.86,1.2,1.84,2.32,1.95,2.44,2.89,3.27,6.2,7.02,11.19,7.84.51.08,5.76.86,10.02-2.47,2.36-1.85,3.52-4.26,4.42-6.89,2.24-6.53,5.23-14.81,2.08-25.23-3.4-11.24-11.51-17.11-13.92-18.73.58.27,1.68.68,3.12.65,1.71-.04,2.96-.7,3.51-1.04-.57-1.26-1.92-3.73-4.68-5.59-5-3.36-10.54-1.94-11.45-1.69Z"/>
      <path d="M139.54,131.8c-1.14-.25-6.39-1.28-10.8,1.95-3.35,2.46-6.29,7.44-4.68,10.54.65,1.26,1.96,2.02,3.12,2.21,2.54.42,5.22-1.72,5.98-4.29.51-1.73-1.04-2.49-.65-4.81.27-1.58,1.12-2.64,1.43-3.02,2-2.42,5.04-2.56,5.59-2.58Z"/>
      <path d="M99.15,130.76c.99-.21,4.87-.91,8.32,1.43,3.33,2.25,5.42,6.76,4.23,10.08-.13.35-.77,2.16-2.28,2.6-2,.59-4.23-1.62-5.2-3.19-.17-.27-1.98-3.18-.91-5.78.45-1.09,1.08-1.32,1.04-2.02-.07-1.29-2.3-2.31-5.2-3.12Z"/>
      <path d="M118.37,135.9c.22,10.03.62,17.85.94,23.15.1,1.7.25,3.85,1.27,6.44,2.27,5.78,7.11,9.3,10.15,10.83,7.6,3.82,17.73,2.13,25.76-4.21,3.61,3.75,7.67,8.54,11.61,14.45,5.91,8.87,9.37,16.61,9.07,16.78-.32.18-7.1-7.19-12.58-17.37-1.32-2.44-3.37-6.55-6.73-6.93-1.44-.16-2.97.37-4.68.98-2.78.98-3.36,1.84-5.39,2.54-1.36.47-3.46.89-6.42.39-.68,1.98-2.49,6.36-6.93,9.76-5.73,4.39-11.99,4.18-14.54,4.1-2.04-.07-11.31-.38-17.46-7.8-2.86-3.46-3.94-7.11-4.39-9.27-1.45.08-3.94.03-6.73-1.07-3.91-1.54-6.14-4.23-7.04-5.46-3.06,1.62-6.49,3.71-10.03,6.44-5.89,4.53-10.17,9.32-13.17,13.27,2.42-4.12,5.71-8.93,10.15-13.85,5.85-6.49,11.79-11.09,16.58-14.24.15,5.01,2.3,7.47,3.12,8.29,5.1,5.12,15.59,3.49,21.12-2.05,3.42-3.43,4.28-7.68,4.54-9.56.6-8.53,1.19-17.06,1.79-25.59Z"/>
      <circle class="cls-1" cx="181.14" cy="93.78" r="6.72"/>
      <ellipse class="cls-1" cx="88.09" cy="87.06" rx="6.72" ry="3.82" transform="translate(-12.47 159.37) rotate(-80.38)"/>
      <path class="cls-1" d="M191.57,97.1c-1.24,1.56-2.48,3.13-3.72,4.69.61,1.47,1.43,4.07,1.12,7.28-.66,6.75-5.82,10.63-6.77,11.32.81-.22,7.5-2.17,10.41-9.11,3.01-7.18-.65-13.52-1.04-14.18Z"/>
      <path class="cls-1" d="M80.13,93.23c-1.7.31-2.12,6.08-1.95,9.66.23,4.75,1.64,8.54,2.83,11.02-.17-2.76-.11-6.31.68-10.34.49-2.47,1.16-4.64,1.85-6.47-1.71-3.33-2.76-3.99-3.41-3.87Z"/>
      <path class="cls-1" d="M117.95,172.11c.54,1.35,2.29,5.26,6.63,7.98,3.98,2.5,7.87,2.58,9.37,2.54-.46.87-4.24,7.74-11.89,8.98-7.25,1.17-14.94-3.22-18.35-10.93,1.12.16,4.66.52,8.34-1.56,4.07-2.3,5.55-6.01,5.91-7Z"/>
      <path class="cls-3" d="M100.03,205.23s6.65,5.67,17.37,7.09c4.81.64,11.99.07,18.37-3.25,2.46-1.28,5.55-3.37,6.38-2.54.67.67-.49,2.85-.88,3.58-2.72,5.1-13.67,16.31-27.71,13.83-7.93-1.4-15.83-6.99-17.65-13.83-.54-2.04-1.04-6.07.36-6.76,1.07-.53,2.84,1.1,3.76,1.88Z"/>
      <path class="cls-3" d="M170.62,141.16s7.98,3.57,18.66,1.92c4.8-.74,11.53-3.3,16.71-8.28,2-1.92,4.37-4.79,5.41-4.23.83.45.33,2.88.16,3.68-1.18,5.66-8.53,19.5-22.7,21.06-8,.88-17.16-2.26-20.83-8.31-1.1-1.81-2.7-5.53-1.55-6.59.88-.81,3.04.26,4.14.75Z"/>
      <path class="cls-3" d="M87.01,137.22s-8.48,2.11-18.7-1.4c-4.59-1.57-10.77-5.28-14.99-11.1-1.63-2.25-3.46-5.49-4.58-5.12-.9.3-.83,2.77-.81,3.59.16,5.78,4.96,20.7,18.63,24.73,7.72,2.28,17.29.8,21.97-4.51,1.4-1.59,3.64-4.97,2.69-6.21-.72-.95-3.04-.28-4.21,0Z"/>
    </g>
  </g>
</svg>