<?xml version="1.0" encoding="UTF-8"?>
<svg id="Layer_2" data-name="Layer 2" xmlns="http://www.w3.org/2000/svg" viewBox="0 0 345.17 274.39">
  <defs>
    <style>
      .cls-1 {
        fill: #001e42;
      }

      .cls-2 {
        fill: #ffcb05;
      }
    </style>
  </defs>
  <g id="Layer_1-2" data-name="Layer 1">
    <g>
      <path class="cls-1" d="M344.24,47.29l-.09-.26-.1-.25c-1.87-4.69-4.63-8.65-8.21-11.77l-.17-.14c-2.88-2.4-6.11-4.18-9.37-5.17-3.99-1.41-7.94-1.41-11.13-1.41-5.22,0-10.99-.48-17.65-1.48-6.26-.94-12.18-1.83-17.72-3.28l-.37-.1-16.49-2.91c-5.1-.96-10.37-1.94-15.65-2.6-5.14-.68-10.56-1.03-16.12-1.03-4.85,0-9.77.35-14.62,1.04h-.1c-5.08.8-9.95,2.32-14.45,4.53-2.12.89-4.02,2.03-5.7,3.04l-.98.59-3.16,3.16c-.93.73-1.67,1.49-2.24,2.26-12.11,12.64-16.06,29.57-10.3,44.43,4.78,12.35,15.51,20.38,27.98,20.95l10.46.48-.79-10.33c.03-1.03,1.55-30.35,22.93-32.02,5.4-.46,10.34-.68,15.1-.68,6.05,0,11.2.37,16.08.89-16.86,15.49-33.81,35.89-50.34,55.79-1.72,2.07-3.43,4.13-5.14,6.18-17.42-7.91-33.88-15.36-48.76-15.36-6.94,0-13.63,2.01-19.4,5.57,8.45-22.78,18.25-46.87,30.53-71.96l.05-.11c3.73-7.87,2.26-19.6-5.7-25.13-6.13-5.35-12.86-10.2-20.61-10.2-16.36,0-22.21,20.58-24.42,28.33l-.08.32c-7.11,28.81-38.08,115.09-63.77,164.48-9.15-2.41-16.15-3.47-22.57-3.47-.26,0-.9,0-.9,0-12.32.34-23.75,5.95-31.37,15.39-7.37,9.14-10.36,20.89-8.22,32.23,4.81,25.49,26.3,37.1,44.23,37.1,1.98,0,3.82-.16,5.47-.47,14.93-2.82,27.6-10.91,38.51-24.65,25.87,13.48,78.53,22.86,100.8,22.86h0c2.82,0,5.21-.13,7.3-.4,18.83-2.4,32.35-10.33,40.19-23.55,2.85-4.81,4.67-9.9,5.77-15.01,3.24,6.9,7.85,11.39,12.01,14.25,9.2,6.35,18.77,6.67,20.59,6.67,19.09,0,31.52-16.24,35.32-27.31,1.86-4.78,1.89-8.87.11-12.17-1.45-2.68-4-4.56-6.99-5.16l-1.58-.32c-1.97-.39-11.84-2.82-12.92-12.05-4.22-33.49,16.42-95.93,41.72-126.36l12.66-12.66.69-2.07c1.29-3.88.21-7.14-.32-8.71Z"/>
      <path class="cls-1" d="M130.69,155.88c.48-1.4.97-2.83,1.45-4.25,1.25,3.09,2.95,6.05,5.14,8.8,1.99,2.65,5.12,4.22,8.5,4.22,4.65,0,8.74-2.9,10.18-7.22l.1-.32c1.28-4.34,5.39-9.52,17.75-9.52,3.22,0,7.92.56,13.52,1.57-16.35,15.28-33.49,24.92-45.22,24.92-4.16,0-7.27-1.17-9.79-3.69l-4.9-4.9c1.08-3.15,2.17-6.35,3.29-9.62Z"/>
      <g>
        <path class="cls-2" d="M335.46,50.22c-1.27-3.17-3.17-6.02-5.71-8.24-1.9-1.59-4.12-2.85-6.34-3.49-2.54-.95-5.39-.95-8.24-.95-6.34,0-12.68-.63-19.02-1.59-6.34-.95-12.68-1.9-18.7-3.49l-16.17-2.85c-5.07-.95-10.14-1.9-15.21-2.54-4.75-.63-9.83-.95-14.9-.95-4.44,0-8.88.32-13.31.95-4.12.63-8.24,1.9-12.05,3.8-1.58.63-3.17,1.58-4.75,2.54l-2.85,2.85s-.95.63-.95.95c-20.29,20.29-9.83,49.45,10.78,50.4-.32-4.12,2.85-39.62,31.38-41.84,25.99-2.22,37.72,1.27,54.84,2.85-24.72,16.8-51.03,50.4-75.76,79.88-18.38-8.24-36.77-17.43-51.35-17.43-22.19,0-36.77,25.99-22.51,43.74.63.95,2.22.63,2.54-.32,1.58-5.39,7.29-16.17,26.63-16.17,7.29,0,19.34,2.22,31.7,5.39-26.63,30.11-62.3,50.66-79.74,33.22-13.63,13.63-7.29,45.01,12.36,45.01,34.87,0,64.52-30.69,92.1-71.58,12.68,3.8,22.82,7.29,25.36,8.88-4.75,17.12-7.61,34.87-7.61,52.94,0,30.11,23.46,32.65,27.58,32.65,14.9,0,24.09-13.63,26.63-21.24.63-1.59,1.59-4.75,0-5.07l-1.58-.32c-6.34-1.27-18.7-6.34-20.29-19.97-4.75-37.72,17.75-102.38,44.06-133.77l11.41-11.41c.32-.95,0-1.9-.32-2.85ZM261.6,142.46c-6.97-.32-14.26-2.22-21.87-4.75,15.22-21.87,33.6-45.65,58.64-68.78-11.41,17.43-26.31,43.43-36.77,73.54Z"/>
        <path class="cls-2" d="M225.85,191.94l-.28.41c-26.76,40.78-95.49,47.64-126.52,22.07,19.48-43.13,34.92-109.54,70.91-183.06,2.05-4.33,1.09-11.33-2.96-13.79-12.05-10.64-22.3-15.52-30.49,13.29-7.52,30.47-40.88,123.58-68.11,173.2-10.27-3.08-19.65-5.26-27.87-5.14-19.99.54-34.21,18.3-30.75,36.65,5.03,26.67,30.22,30.88,38.88,29.25,15.93-3.01,27.72-12.77,37.77-27.94,19.33,15,89.21,28.24,109.39,25.67,51.6-6.59,39.3-57.66,34.45-70.01-.74-2.01-3.29-2.25-4.42-.6ZM43.99,236.29l-.35.07c-18.01,3.4-20.01-16.67,6.99-19.97,3.53-.31,6.91.49,10.83,2.26-6.68,10.23-12.62,16.73-17.47,17.65Z"/>
      </g>
    </g>
  </g>
</svg>