<?xml version="1.0" encoding="UTF-8"?>
<svg id="Layer_2" data-name="Layer 2" xmlns="http://www.w3.org/2000/svg" viewBox="0 0 199.4 269.19">
  <defs>
    <style>
      .cls-1 {
        fill: #fff;
      }

      .cls-2 {
        fill: #09226b;
      }

      .cls-3 {
        fill: #2fb228;
      }
    </style>
  </defs>
  <g id="Layer_1-2" data-name="Layer 1">
    <g>
      <path class="cls-2" d="M100.15,114.34c-1.3,0-2.58-.18-3.8-.53-2.71-.78-7.63-3.22-10.14-10.68-3.64-10.8,3.5-18.74,9.23-25.12,4.71-5.24,9.58-10.66,11.77-18.61,3.34-12.12-.57-26.08-3.18-28.98-3.22-2.29-5.4-5.15-6.53-8.54-2.28-6.83-.05-16.27,7.63-20.23,2.13-1.1,4.42-1.65,6.82-1.65,6.43,0,11.66,3.93,14.4,7.6,1.5,2,3.33,5.41,3.57,10.25.19,3.91,1.35,8.2,2.7,13.18,2.48,9.18,5.57,20.6,3.46,34.65-2.25,14.91-9.18,26.57-13.11,32.19-4.3,6.15-12.98,16.46-22.82,16.46Z"/>
      <path class="cls-3" d="M95.4,100.04c-3.62-10.76,15.51-17.55,21.16-38.06,4.44-16.1-.92-35.26-6.75-39.34-.47-.33-2.37-1.56-3.12-3.82-.89-2.66-.26-6.93,2.87-8.55,3.42-1.76,7.35.91,9.01,3.14,1.53,2.04,1.62,4.34,1.65,4.94.64,13.16,9.15,26.63,6.25,45.89-3.33,22.07-20.22,42.35-27.44,40.26-2.38-.69-3.4-3.71-3.65-4.46Z"/>
      <path class="cls-2" d="M72.37,113.48c-3.35,0-6.62-1.23-9.74-3.66-8.35-6.51-6.88-16.42-5.8-23.65.87-5.83,1.77-11.86-.33-18.29-3.27-10.03-12.16-17.34-14.96-18.32-3.59-.16-6.72-1.27-9.32-3.31-5.25-4.12-8.6-12.47-4.46-19.85,2.62-4.67,7.67-7.46,13.51-7.46,2.13,0,4.26.36,6.17,1.05,2.2.79,5.39,2.5,8.05,6.14,1.9,2.59,4.72,5.07,7.98,7.95,6.22,5.48,13.97,12.31,19.23,23.64,7.73,16.66,7.26,36.13,2.89,45.99-2.66,6.01-6.57,8.32-9.39,9.19-1.23.38-2.52.58-3.83.58Z"/>
      <path class="cls-3" d="M68.59,102.17c-7.7-5.99,2.8-19.92-2.87-37.3-4.45-13.64-17.37-24.83-23.47-24.99-.5-.01-2.43,0-4.05-1.26-1.9-1.49-3.47-4.84-1.99-7.49,1.62-2.89,5.69-2.83,7.94-2.02,2.06.74,3.22,2.34,3.52,2.76,6.7,9.13,19.18,14.75,26.22,29.92,8.07,17.39,5.58,39.92-.59,41.84-2.03.63-4.19-1.05-4.73-1.47Z"/>
      <path class="cls-2" d="M27.62,64.61c5.12,1.52,13.77,4.82,22.3,12.12,7.33,6.27,11.66,12.99,14.06,17.45,5.88-2.78,14.08-5.94,24.24-7.76,10.96-1.96,20.38-1.69,27.15-.97,3.99-5.48,11.1-13.8,22.3-20.84,12.8-8.05,24.97-10.66,31.99-11.63,4.34,6.54,10.28,17.2,13.57,31.51,3.86,16.76,2.33,30.86.81,39.05,4.71,7.47,11.06,19.67,13.9,35.87,4.46,25.42-2.31,45.88-5.98,54.99-2.53,4.58-6.66,11.01-13.09,17.45-2.25,2.25-7.03,6.76-18.91,14.06-8.11,4.98-17.16,10.54-29.08,15.03-7.98,3-27.81,10.21-53.81,7.76-11-1.04-30.46-2.87-49.44-16.97-8.8-6.54-20.92-15.07-25.69-31.02-7.08-23.68,7.41-44.71,9.8-48.07.8-6.34,2.26-13.94,4.96-22.3,2.47-7.66,5.4-14.19,8.19-19.5-2.36-3.71-15.14-24.59-7.65-48.04,2.59-8.12,6.85-14.14,10.4-18.18Z"/>
      <path class="cls-3" d="M40.39,84.16c1.25-.83,5.94,4.21,7.43,5.82,3.85,4.14,6.43,8.11,8.08,10.99-1.62,1.17-3.34,2.37-5.17,3.55-1.99,1.3-3.94,2.48-5.82,3.55-.11-2.81-.46-7-1.62-11.96-1.67-7.12-3.95-11.27-2.91-11.96Z"/>
      <path class="cls-3" d="M150.91,69.94c-5.63,2.62-12.73,6.59-20.04,12.6-9.13,7.51-15.22,15.41-19.07,21.33-2.05-2.15-4.09-4.31-6.14-6.46-.98,2.09-1.95,4.24-2.91,6.46-1.96,4.56-3.67,8.99-5.17,13.25-1.23-2.29-2.58-5.33-3.55-9.05-1.25-4.79-1.41-8.98-1.29-12-2.73,2.48-5.79,5.69-8.73,9.74-5.06,6.97-7.82,13.75-9.37,18.74-1.17-2.46-2.57-6.09-3.23-10.66-.63-4.35-.38-8.04,0-10.66-1.63,1.54-3.66,3.77-5.49,6.79-2.19,3.59-3.29,6.96-3.88,9.37-.47-.21-3.15-1.45-4.2-4.52-.76-2.24-.22-4.18,0-4.85-5.4,4.08-11.85,9.95-17.71,18.1-13.82,19.21-15.89,39.33-16.22,48.8-1.84.8-6.13,2.95-9.37,7.76-2.63,3.9-3.33,7.72-3.55,9.69,1.32-.74,3.05-1.5,5.17-1.94,6.03-1.26,11.02.96,12.93,1.94-2.75.7-7.93,2.41-12.93,6.79-4.3,3.76-6.6,7.86-7.76,10.34,1.48-1.65,5.55-5.73,12.28-7.43,6.08-1.54,11.1-.33,13.25.32-2.49,1.03-6.55,3.1-10.34,7.11-5.03,5.32-6.79,11.13-7.43,13.9,4.05,5.08,10.65,12.26,20.36,18.74,3.28,2.19,17.78,11.56,39.43,14.54,5.63.78,19.25,2.17,35.87-1.62,27.15-6.18,44.76-22.16,52.46-30.16-1.58-3.62-6.31-13.11-17.13-19.55-7.73-4.6-15.11-5.58-19.07-5.82,3.78-.92,8.92-1.76,15.03-1.62,6.79.16,12.38,1.49,16.32,2.75-1.4-2.55-4.36-7.12-9.8-10.88-6.71-4.64-13.41-5.43-16.37-5.6,4.3-1.79,10.24-3.64,17.45-4.09,16.74-1.06,29.37,6.07,34.42,9.32-.59-10.41-2.95-26.19-11.58-42.93-2.96-5.74-8.7-16.64-20.36-27.15-7.18-6.48-14.2-10.64-19.39-13.25.54-4.86,1.8-11.45,4.85-18.74,3.73-8.92,8.64-15.35,12.28-19.39Z"/>
      <ellipse class="cls-2" cx="116.6" cy="148.41" rx="16.48" ry="21.98"/>
      <ellipse class="cls-2" cx="42.35" cy="153.91" rx="12.36" ry="16.48"/>
      <circle class="cls-1" cx="123.06" cy="141.36" r="5.49"/>
      <circle class="cls-1" cx="45.67" cy="146.85" r="3.47"/>
      <ellipse class="cls-1" cx="112.56" cy="158.16" rx="4.2" ry="6.95" transform="translate(-68.93 227.05) rotate(-75.35)"/>
      <ellipse class="cls-1" cx="38.41" cy="159.89" rx="2.84" ry="4.69" transform="translate(-126 156.6) rotate(-75.35)"/>
      <path class="cls-2" d="M96.13,183.45c-.04,1.75-.39,5.89-3.23,9.91-4.35,6.16-11.22,7.16-12.93,7.39-7.23.95-12.59-2.47-13.95-3.4-.78.7-5.95,5.19-12.55,4.09-6.89-1.15-12.54-7.94-12.82-16.48.5,1.52,2.01,5.45,5.98,7.97,4.08,2.59,11.26,4.04,14.54.11,3.98-4.76-1.3-13.15-1.56-13.47-.08-.1-.17-.19-.17-.19-.26-.24-.6-.37-2.31-1.64-1.83-1.36-2.76-2.06-3.34-2.8-.49-.64-1.39-1.79-1.51-3.45,0,0-.09-1.16.32-2.26,1.19-3.19,8.52-4.03,12.82-4.48,10.1-1.06,12.64.92,13.47,1.68.68.61,1.57,1.26,1.82,2.37.56,2.5-6.59,7.75-8.39,9.05-.69.5-.93.9-1.08,1.08-2.73,3.31-3.45,9.62-.16,13.47,3.88,4.53,10.91,2.79,12.6,2.37,8.28-2.05,11.89-10.04,12.44-11.31Z"/>
    </g>
  </g>
</svg>