<?xml version="1.0" encoding="UTF-8"?>
<svg id="Layer_2" data-name="Layer 2" xmlns="http://www.w3.org/2000/svg" viewBox="0 0 209.36 274.39">
  <defs>
    <style>
      .cls-1 {
        fill: #fff;
      }

      .cls-2 {
        fill: #ff88b9;
      }

      .cls-3 {
        fill: #5bcefa;
      }

      .cls-4 {
        fill: #0075c4;
      }
    </style>
  </defs>
  <g id="Layer_1-2" data-name="Layer 1">
    <g>
      <path class="cls-4" d="M203.84,178.03c5.29-17.63,6.79-36.44,4.47-55.93l-5.34-44.81-6.15,12.54c-.45-14.35-3.39-29.27-8.83-44.18l-10.3-28.22-14.01,26.57c-4.52,8.57-10.19,16.39-16.87,23.35-.26-5.81-1.02-11.59-2.33-17.3-2.29-10.01-6.12-19.56-11.4-28.38L120.11,0l-10.57,22.94c-4.59,9.95-9.84,19.72-15.62,29.03-5.48,8.82-11.53,17.41-18,25.53l-19.48,24.45c-6.06,4.27-12.05,9.22-17.76,14.99C8.92,147,2.29,182.63,1,201.2l-1,14.26h15.36c-.56,1.74-1.18,3.46-1.86,5.15l-3.23,8.05,6.06,6.21c1.38,1.42,2.84,2.7,4.35,3.85l-8.42.35,40.29,22.96c5.26,3,10.82,5.49,16.52,7.42,9.72,3.28,20.02,4.94,30.6,4.94h0c26.64,0,48.21-10.42,56.24-14.9,10.91-6.08,20.81-14,29.44-23.53l10.12-11.18-12.33-8.66c2.63-2.9,5.08-5.97,7.32-9.19,3.09-4.44,8.94-14.1,13.38-28.89Z"/>
      <path class="cls-1" d="M51.21,240.3c-.18-1.26,2.88-2.05,10.03-6.17,3.83-2.21,5.18-1.72,26.43-18.71,0,0,8.08-5.83,17.75-8.68,1.37-.4,4.09-1.12,6.94,0,.47.19,3.77,1.48,4.44,4.24.94,3.93-3.82,9.34-8.29,8.68-2.8-.41-4.45-3.04-4.82-3.67-1.46,2.27-3.46,4.81-6.17,7.22-8.79,7.8-19.18,8.96-23.53,9.17,3.12.97,11.32,3.04,20.64-.19,5.01-1.74,8.6-4.4,10.8-6.37.44-.44,2.41-2.34,4.55-1.92,2.78.54,4.08,4.64,3.94,7.13-.27,4.74-6.13,9.19-14.66,11-39.04,2.02-47.74.31-48.03-1.74Z"/>
      <path class="cls-3" d="M122.61,67.68c.8-6.16-.17-11.17-.96-14.08,1.58,3.09,3.55,7.83,4.44,13.89.77,5.25.47,9.73,0,12.92,2.38-.26,4.76-.51,7.14-.77.6-6.32.76-15.69-1.74-26.62-2.46-10.8-6.6-19.09-9.84-24.5-4.31,9.35-9.68,19.66-16.4,30.48-6.33,10.21-12.78,19.13-18.9,26.81,10.55-1.54,21.09-3.09,31.64-4.63,1.53-2.61,3.81-7.26,4.63-13.5Z"/>
      <path class="cls-3" d="M182.18,141.32c-4.09,3.6-7.12,4.76-8.89,5.28-2.58.76-4.83.86-6.35.82,3.09-4.33,6-9.21,8.49-14.66,15.43-33.79,5.18-68.4.02-82.54-4.3,8.15-11.82,20.07-24.31,31.54-13.22,12.14-26.54,18.75-35.3,22.28,1.12-2.11,2.94-5.09,5.79-8.1,3.35-3.55,5.66-4.54,5.5-4.92-.66-1.57-45.35,1.33-78.99,35.3-29.4,29.68-33.15,65.73-33.85,75.81h11c2.41-4.34,4.82-8.68,7.23-13.02.12,6.14-.33,13.88-2.31,22.57-1.2,5.28-2.75,9.92-4.34,13.89,2.19,2.25,6.25,5.66,11.86,6.37,4.48.56,9.05-.72,18.52-6.94,10.68-7.02,12.31-10.28,19.68-15.62,7.7-5.59,18.45-13.4,30.96-12.44,14.08,1.07,23.52,12.72,26.7,17.07-2.82.1-5.65.19-8.47.29.19,3.54.17,12.34-5.21,21.41-4.11,6.93-9.47,10.86-12.44,12.73-16.11.68-32.21,1.35-48.32,2.03,3.21,1.83,8.03,4.29,14.18,6.37,36.61,12.35,70.54-5.87,76.1-8.97,6.7-3.74,16.38-10.15,26.04-20.83-4.53-3.18-9.07-6.37-13.6-9.55,4.81-3.57,11.56-9.41,17.65-18.16,1.44-2.07,7.18-10.51,11.55-25.1,5.63-18.77,5.67-36.54,4-50.53-1.82,3.72-6.11,11.67-12.89,17.65ZM111.1,131.99c-3.23,1.04-6.1,2.24-8.62,3.47.11,3.83.13,9.13-.26,15.43-1.23,19.97-1.85,30.02-8.1,33.95-5.77,3.62-10.52-1.63-28.74-.39-4.92.34-8.94,1.02-11.57,1.54-6.72.55-13.1-2.79-16.2-8.49-4.07-7.47-.32-15,0-15.62.54,1.49,5.03,13.4,13.59,14.27,1.23.12,3.47.12,8.01-2.31,15.65-8.38,22.96-26.44,24.84-31.25,1.88-4.81,1.59-5.42,3.13-7.72,7.12-10.63,22.46-11.13,24.5-11.19,9.43-.29,16.41,3.44,19.29,5.21-5.29,0-12.21.63-19.87,3.09Z"/>
      <path class="cls-2" d="M94.08,146.6c1.13,3.8,2.65,10.77,1.16,19.24-.97,5.5-2.89,9.81-4.48,12.73-6.51-.48-13.02-.96-19.53-1.45,3.48-1.94,8.77-5.47,13.6-11.43,6.01-7.42,8.31-14.94,9.26-19.1Z"/>
    </g>
  </g>
</svg>