<?xml version="1.0" encoding="UTF-8"?>
<svg id="Layer_2" data-name="Layer 2" xmlns="http://www.w3.org/2000/svg" viewBox="0 0 298.18 149.66">
  <defs>
    <style>
      .cls-1 {
        fill: #cbeef3;
      }

      .cls-2 {
        fill: #0097a3;
      }

      .cls-3 {
        fill: #880d1e;
      }
    </style>
  </defs>
  <g id="Layer_1-2" data-name="Layer 1">
    <g>
      <path class="cls-2" d="M291.61,103.79c-3.58-4.91-8.16-9.03-12.61-12.48-4.25-3.38-7.96-7.17-11.15-11.41-3.12-4.31-5.71-9.16-8.16-14.14l-7.3-15.2c-2.52-5.11-4.98-10.09-7.83-15.2-2.92-5.11-6.7-9.82-11.28-13.74-4.58-3.85-10.15-6.77-15.99-8.16-5.51-1.33-11.28-1.19-16.99-1.33-2.59-.07-6.04.2-8.49-.8-2.59-1.06-5.11-2.79-7.7-4.05-5.38-2.32-10.95-4.11-16.72-5.38C161.6.8,155.76.07,149.92,0c-11.75-.07-23.43,1.99-34.44,5.84-1.59.6-3.19,1.19-4.71,1.79-3.92,1.59-8.63,2.32-12.68,3.12-5.77,1.19-11.68,1.26-17.32,2.59-5.84,1.39-11.41,4.31-15.99,8.16-4.58,3.92-8.36,8.63-11.28,13.74-2.85,5.11-5.31,10.09-7.83,15.2l-7.3,15.2c-2.46,4.98-5.04,9.82-8.16,14.14-3.12,4.25-6.9,8.03-11.15,11.41-4.45,3.52-9.03,7.57-12.61,12.48C2.92,108.57-.13,114.55,0,121.45c.07,3.38,1,6.84,2.65,9.82s3.85,5.44,6.3,7.43c4.91,4.05,10.49,6.64,16.26,8.36,5.77,1.73,11.75,2.59,17.79,2.52,6.04-.13,12.14-1.13,17.85-3.65,5.71-2.46,10.88-6.5,14.53-11.68.93-1.26,1.73-2.65,2.46-3.98l1.06-2.06.86-1.99c1.13-2.65,2.26-5.24,3.32-7.96.8-2.06,1.79-3.98,2.79-5.91.53-1.06,1.13-1.92,1.46-3.05.2-.73.46-1.46,1.13-1.86.46-.27,1-.27,1.46-.2,2.52.46,5.11,1.33,7.63,1.86l3.98.8,3.98.53c2.65.4,5.31.66,7.96.86,10.62.93,21.3,1.06,31.85.86,10.55-.13,21.17-.53,31.72-1.53,2.65-.2,5.31-.46,7.96-.8,2.65-.27,5.31-.73,7.96-1.13,3.19-.53,6.37-1.19,9.49-1.99,1.46-.33,3.05-.66,4.51-1.19,1.33-.46,2.65-.2,3.72.8.86.86,1.33,2.06,1.66,3.19.8,2.99,1.66,5.91,2.72,8.83,1.06,2.72,2.12,5.38,3.32,7.96l.86,1.99,1.06,2.06c.73,1.39,1.53,2.72,2.46,3.98,3.65,5.18,8.83,9.22,14.53,11.68,5.71,2.52,11.81,3.58,17.85,3.65s12.01-.8,17.79-2.52c5.77-1.79,11.35-4.38,16.26-8.36,2.46-1.99,4.65-4.51,6.3-7.43,1.66-2.99,2.59-6.37,2.65-9.82,0-6.84-3.05-12.87-6.57-17.72Z"/>
      <path class="cls-1" d="M285.77,108.04c-1.53-2.06-3.25-4.05-5.11-5.91-1.86-1.92-3.85-3.58-6.04-5.44-4.51-3.72-8.69-8.03-12.14-12.94-3.45-4.84-6.04-10.15-8.43-15.26l-7.03-15.33c-2.32-5.04-4.84-10.15-7.37-14.93-2.59-4.71-5.84-8.96-9.82-12.41-2.65-2.32-20.31-14-22.76-6.5-.8,2.52,1.46,3.92,2.99,5.44.86.8,1.53,1.92,2.26,2.92.13.2.13.46-.07.6-.13.13-.33.13-.46.07-2.72-1.33-4.98-2.99-7.3-4.58-2.39-1.53-4.58-3.32-7.03-4.65l-3.58-2.19-3.72-1.92c-1.26-.66-2.46-1.33-3.78-1.79l-3.85-1.73c-5.18-1.99-10.49-3.72-15.93-4.84-5.44-1.06-11.02-1.59-16.59-1.66-11.15-.13-22.23,2.06-32.85,5.51-5.31,1.79-10.49,3.85-15.6,6.3-2.52,1.19-4.98,2.59-7.57,3.72-1.33.53-2.65,1.06-3.92,1.73-.66.27-1.26.6-1.92.93-.33.2-3.05,2.26-3.25,2.26-.93-.86-.33-1.73.46-2.39,2.26-1.99,4.65-3.85,7.1-5.57-.86,0-1.73-.07-2.59,0-2.65.07-5.24.46-7.76,1.13-5.04,1.33-9.76,3.85-13.67,7.3-3.92,3.45-7.23,7.7-9.82,12.41-2.59,4.78-5.04,9.89-7.37,14.93l-7.03,15.33c-2.39,5.11-5.04,10.35-8.43,15.26-3.45,4.84-7.63,9.22-12.14,12.94-2.26,1.86-4.18,3.45-6.04,5.44-1.86,1.86-3.58,3.85-5.11,5.91-2.99,4.18-5.11,8.89-4.98,13.41.07,4.51,2.52,8.56,6.37,11.68,3.85,3.12,8.63,5.38,13.67,6.9,5.04,1.46,10.29,2.32,15.46,2.26,5.18-.07,10.42-.93,15-2.99,4.65-1.99,8.63-5.11,11.55-9.16.8-1,1.39-2.06,1.99-3.19l.86-1.73.86-1.86c1.13-2.52,2.26-5.04,3.25-7.63.86-2.26,1.99-4.65,2.59-6.97.33-1.33-.46-4.38-1.39-5.51-1.06-1.33-3.12-1.79-4.51-2.72-1.92-1.33-3.85-2.59-5.64-4.11-1.13-.86-1.99-2.06-2.99-3.05-.93-1.06-1.73-2.32-2.52-3.52-1.39-2.52-2.59-5.24-3.05-8.16-1.06-5.77.13-11.48,2.06-16.59,2.06-5.11,4.84-9.76,8.43-13.87.4-.46,1-.46,1.46-.13.4.33.46.93.2,1.39v.07c-2.85,4.25-5.11,8.96-6.64,13.74s-1.99,9.82-.93,14.47c.46,2.32,1.53,4.45,2.72,6.44.73.93,1.39,1.92,2.19,2.79.86.8,1.59,1.73,2.65,2.46,3.72,3.05,8.16,5.38,12.94,7.1,9.49,3.38,19.78,4.98,30.13,6.04,10.35.93,20.77,1.19,31.26,1.06,10.49-.13,20.9-.46,31.32-1.33,2.59-.2,5.18-.46,7.76-.8,2.59-.27,5.18-.6,7.7-1,5.11-.8,10.15-1.73,15.06-3.19,4.84-1.46,9.56-3.38,13.41-6.24,1.86-1.46,3.45-3.19,4.58-5.18,1.13-1.99,1.73-4.25,1.92-6.57.2-2.39,0-4.84-.4-7.3-.46-2.52-1-4.98-1.66-7.5-1.39-4.98-2.99-10.09-4.18-15.2-.13-.53.2-1.13.8-1.26.53-.13,1.06.13,1.19.66,1.79,4.91,3.78,9.76,5.51,14.8,1.73,5.04,3.25,10.35,3.05,16.13-.13,2.85-.8,5.84-2.19,8.49-1.39,2.65-3.45,4.84-5.64,6.7-2.26,1.73-4.71,3.19-7.17,4.38.07.07.07.13.13.13.07.2.2.46.27.73.2.46.46,1.06.73,1.66l1.53,3.58c1,2.39,1.79,5.04,2.79,7.57,1,2.59,2.06,5.11,3.25,7.63l.86,1.86.86,1.73c.6,1.06,1.26,2.19,1.99,3.19,2.92,4.05,6.9,7.17,11.55,9.16,4.65,1.99,9.82,2.92,15.06,2.99,5.18.07,10.49-.8,15.46-2.26,4.98-1.46,9.82-3.78,13.67-6.9,3.85-3.12,6.3-7.17,6.37-11.68-.2-4.78-2.39-9.56-5.31-13.67ZM161.53,86.34c-.8,1-1.99,1.66-3.19,1.92s-2.46.13-3.58-.33l-.86-.4-.53-.27c-.33-.2-.73-.33-1.06-.4-1.46-.46-3.25-.46-5.04-.33-3.65.2-7.3.8-11.22,1.13-1,.07-2.06.07-3.25-.2-.53-.07-1.19-.4-1.79-.73-.27-.27-.6-.53-.8-.86s-.4-.73-.46-1.13c-.2-1.53.33-2.59.8-3.52.53-.93,1.06-1.73,1.79-2.52.4-.4,1.06-.46,1.46-.07.4.33.46.93.2,1.33l-.07.07c-.46.66-.93,1.46-1.26,2.26-.33.73-.46,1.59-.33,1.92-.13.46,1.86.8,3.45.53,3.58-.46,7.43-1.13,11.28-1.39,1.92-.07,4.05-.07,6.17.6.53.2,1.06.4,1.53.66l.73.4.4.2c.6.27,1.26.33,1.92.27,1.33-.2,2.19-1.13,2.32-2.59.2-1.46-.4-3.25-1.06-4.84v-.07c-.2-.53.07-1.13.6-1.33.46-.2,1.06,0,1.26.46,1,1.73,1.86,3.65,1.86,5.91-.07,1.06-.46,2.32-1.26,3.32Z"/>
      <path class="cls-2" d="M105.46,66.03c-.33,6.11-4.05,10.82-8.23,10.55-4.18-.27-7.3-5.38-6.97-11.41.33-6.11,4.05-10.82,8.23-10.55,4.25.2,7.3,5.38,6.97,11.41ZM194.72,54.62c-4.18-.27-7.9,4.45-8.23,10.55-.33,6.11,2.79,11.22,6.97,11.41,4.18.27,7.9-4.45,8.23-10.55.33-6.04-2.72-11.22-6.97-11.41Z"/>
      <path class="cls-3" d="M222.79,87.93c0,5.31-5.24,8.1-16.33,8.36-11.61.33-16.33-3.12-16.33-8.36s7.3-9.56,16.33-9.56c9.03,0,16.33,4.31,16.33,9.56ZM86.68,78.64c-9.03,0-16.33,4.25-16.33,9.56s5.24,8.1,16.33,8.36c11.61.33,16.33-3.12,16.33-8.36s-7.37-9.56-16.33-9.56Z"/>
    </g>
  </g>
</svg>