<?xml version="1.0" encoding="UTF-8"?>
<svg id="Layer_2" data-name="Layer 2" xmlns="http://www.w3.org/2000/svg" viewBox="0 0 251.19 270.51">
  <defs>
    <style>
      .cls-1 {
        fill: #6d00a0;
      }

      .cls-2 {
        fill: #480072;
      }

      .cls-3 {
        fill: #3fa53a;
      }
    </style>
  </defs>
  <g id="Layer_1-2" data-name="Layer 1">
    <g>
      <path class="cls-2" d="M251.19,155.57l-13.56-42.06c-.11-1.71-.2-7.63,2.23-19.54,4.71-23.05-8.57-37.98-16.27-46.25l10.25-24.12L178.34,0l-10.27,24.16c-10.92.04-30.15.64-44.22,19.81-7.51,10.24-12.05,14.67-13.61,16.07l-46.18,19.83,30.99,10.77c-9.15,5.7-19.46,11.16-28.01,15.69-5.2,2.75-10.1,5.35-14.14,7.67C23.2,131.07,4.68,156.04.75,184.31c-3.2,22.98,3.94,45.36,19.58,61.4,15.81,16.22,35.85,24.79,57.95,24.79,22.74,0,46.75-9.12,71.35-27.09,35.56-25.97,54.76-68.68,66.35-102.82l35.21,14.97Z"/>
      <path class="cls-3" d="M200.99,47.58l5.5-12.94-8.56-3.64-8.56-3.64-5.5,12.94c-5.67,10.96-28.78-3.65-43.21,16.01-13.04,17.76-19.22,21.43-19.22,21.43,0,0,24.66,8.57,34.96-1.37,0,0-1.4,17.56,10.24,28.23,15.76.98,27.43-12.21,27.43-12.21,1,16.67,23.26,26.13,23.26,26.13,0,0-2.3-7.14,2.1-28.71,4.67-22.85-22.91-31.71-18.44-42.22Z"/>
      <path class="cls-1" d="M189.31,109.34c-7.54,4.27-15.53,6.27-23.33,5.79-2.41-.15-4.7-1.13-6.48-2.76-6.85-6.29-10.31-14.18-12.04-21.05-8.43,1.19-13.75,1.27-19.06-.05-15.73,16.34-49.02,31.56-65.12,40.82-48.41,27.82-51.89,74.59-28.02,99.08,20.45,20.98,55.02,29.79,102.07-4.58,37.83-27.63,55.12-79.9,62.88-104.94-4.38-2.83-6.67-6.1-10.9-12.3ZM38.74,205.89c-5.59-51.18,50.05-60.68,50.05-60.68,0,0-37.14,32.61-50.05,60.68Z"/>
    </g>
  </g>
</svg>