<?xml version="1.0" standalone="no"?>
<!DOCTYPE svg PUBLIC "-//W3C//DTD SVG 1.1//EN" "http://www.w3.org/Graphics/SVG/1.1/DTD/svg11.dtd" >
<svg xmlns="http://www.w3.org/2000/svg" xmlns:xlink="http://www.w3.org/1999/xlink" version="1.1">
<metadata>
Created by FontForge 20230101 at Tue Sep 11 04:24:48 2018
 By Unknown
Copyright (c) 2018 by Alejandro Paul for Sudtipos. All rights reserved.
</metadata>
<defs>
<font id="Fixture-ExpandedBlack" horiz-adv-x="779" >
  <font-face 
    font-family="Fixture Expanded Black"
    font-weight="900"
    font-stretch="expanded"
    units-per-em="1000"
    panose-1="0 0 10 5 0 0 0 0 0 0"
    ascent="800"
    descent="-200"
    x-height="510"
    cap-height="710"
    bbox="-1170 -383 1922 1021"
    underline-thickness="50"
    underline-position="-100"
    unicode-range="U+0020-FB02"
  />
<missing-glyph horiz-adv-x="510" 
d="M418 -160h-323v1020h323v-1020zM171 792v-34h67v-38h-68v-33h170v33h-68v38h68v34h-169zM170 660v-106h170v35h-68v71h-102zM238 589h-34v36h34v-36zM170 526v-33h68v-38h-68v-34h102v72h68v33h-170zM306 465v-67h-136v-35h170v102h-34zM238 341v-57h34v23h34v-48h-102
v82h-34v-115h170v115h-102zM170 164v-115h170v115h-170zM306 83h-102v48h102v-48zM170 26v-34h72l-72 -48v-34h170v34h-104l71 48h33v34h-170z" />
    <glyph glyph-name="fi" unicode="fi" horiz-adv-x="935" 
d="M387 520.5q-10 -10.5 -10 -37.5v-1h163q5 0 5 -5v-170q0 -5 -5 -5h-163v-297q0 -5 -5 -5h-240q-5 0 -5 5v297h-117q-5 0 -5 5v170q0 5 5 5h117v68q0 77 54 119t146 42h213q5 0 5 -5v-170q0 -5 -5 -5h-117q-26 0 -36 -10.5zM625 545v160q0 5 5 5h240q5 0 5 -5v-160
q0 -5 -5 -5h-240q-5 0 -5 5zM625 5v500q0 5 5 5h240q5 0 5 -5v-500q0 -5 -5 -5h-240q-5 0 -5 5z" />
    <glyph glyph-name="fl" unicode="fl" horiz-adv-x="935" 
d="M387 520.5q-10 -10.5 -10 -37.5v-1h163q5 0 5 -5v-170q0 -5 -5 -5h-163v-297q0 -5 -5 -5h-240q-5 0 -5 5v297h-117q-5 0 -5 5v170q0 5 5 5h117v68q0 77 54 119t146 42h213q5 0 5 -5v-170q0 -5 -5 -5h-117q-26 0 -36 -10.5zM625 5v700q0 5 5 5h240q5 0 5 -5v-700
q0 -5 -5 -5h-240q-5 0 -5 5z" />
    <glyph glyph-name=".notdef" horiz-adv-x="510" 
d="M418 -160h-323v1020h323v-1020zM171 792v-34h67v-38h-68v-33h170v33h-68v38h68v34h-169zM170 660v-106h170v35h-68v71h-102zM238 589h-34v36h34v-36zM170 526v-33h68v-38h-68v-34h102v72h68v33h-170zM306 465v-67h-136v-35h170v102h-34zM238 341v-57h34v23h34v-48h-102
v82h-34v-115h170v115h-102zM170 164v-115h170v115h-170zM306 83h-102v48h102v-48zM170 26v-34h72l-72 -48v-34h170v34h-104l71 48h33v34h-170z" />
    <glyph glyph-name="space" unicode=" " horiz-adv-x="300" 
 />
    <glyph glyph-name="A" unicode="A" horiz-adv-x="870" 
d="M864 1.5q-2 -1.5 -4 -1.5h-260q-3 0 -5 5l-35 113h-251l-34 -113q-2 -5 -5 -5h-260q-2 0 -4 1.5t-1 3.5l245 700q2 5 5 5h360q3 0 5 -5l245 -700q1 -2 -1 -3.5zM504 298l-38 123q-10 31 -17 64.5t-10 50.5h-10q-3 -17 -10.5 -50.5t-16.5 -64.5l-38 -123h140z" />
    <glyph glyph-name="Aacute" unicode="&#xc1;" horiz-adv-x="870" 
d="M864 1.5q-2 -1.5 -4 -1.5h-260q-3 0 -5 5l-35 113h-251l-34 -113q-2 -5 -5 -5h-260q-2 0 -4 1.5t-1 3.5l245 700q2 5 5 5h360q3 0 5 -5l245 -700q1 -2 -1 -3.5zM504 298l-38 123q-10 31 -17 64.5t-10 50.5h-10q-3 -17 -10.5 -50.5t-16.5 -64.5l-38 -123h140zM306.5 767.5
q-1.5 2.5 0.5 6.5l124 196l4 2h319q5 0 7 -4.5t-2 -8.5l-215 -193l-3 -1h-229q-4 0 -5.5 2.5z" />
    <glyph glyph-name="Abreve" unicode="&#x102;" horiz-adv-x="870" 
d="M864 1.5q-2 -1.5 -4 -1.5h-260q-3 0 -5 5l-35 113h-251l-34 -113q-2 -5 -5 -5h-260q-2 0 -4 1.5t-1 3.5l245 700q2 5 5 5h360q3 0 5 -5l245 -700q1 -2 -1 -3.5zM504 298l-38 123q-10 31 -17 64.5t-10 50.5h-10q-3 -17 -10.5 -50.5t-16.5 -64.5l-38 -123h140zM264.5 799
q-57.5 44 -57.5 123v23q0 5 5 5h165q5 0 5 -5v-6q0 -19 11.5 -33.5t41.5 -14.5q33 0 43 14t10 34v6q0 5 5 5h165q5 0 5 -5v-23q0 -80 -56 -123.5t-172 -43.5q-113 0 -170.5 44z" />
    <glyph glyph-name="Acircumflex" unicode="&#xc2;" horiz-adv-x="870" 
d="M864 1.5q-2 -1.5 -4 -1.5h-260q-3 0 -5 5l-35 113h-251l-34 -113q-2 -5 -5 -5h-260q-2 0 -4 1.5t-1 3.5l245 700q2 5 5 5h360q3 0 5 -5l245 -700q1 -2 -1 -3.5zM504 298l-38 123q-10 31 -17 64.5t-10 50.5h-10q-3 -17 -10.5 -50.5t-16.5 -64.5l-38 -123h140zM689 771
q0 -2 -2 -4t-5 -2h-197l-4 2l-49 45l-44 -45l-4 -2h-197q-4 0 -6 3.5t1 6.5l158 167q2 2 3 2h184q1 0 3 -2l157 -167q2 -2 2 -4z" />
    <glyph glyph-name="Adieresis" unicode="&#xc4;" horiz-adv-x="870" 
d="M864 1.5q-2 -1.5 -4 -1.5h-260q-3 0 -5 5l-35 113h-251l-34 -113q-2 -5 -5 -5h-260q-2 0 -4 1.5t-1 3.5l245 700q2 5 5 5h360q3 0 5 -5l245 -700q1 -2 -1 -3.5zM504 298l-38 123q-10 31 -17 64.5t-10 50.5h-10q-3 -17 -10.5 -50.5t-16.5 -64.5l-38 -123h140zM190 765v170
q0 5 5 5h210q5 0 5 -5v-170q0 -5 -5 -5h-210q-5 0 -5 5zM460 765v170q0 5 5 5h210q5 0 5 -5v-170q0 -5 -5 -5h-210q-5 0 -5 5z" />
    <glyph glyph-name="Agrave" unicode="&#xc0;" horiz-adv-x="870" 
d="M864 1.5q-2 -1.5 -4 -1.5h-260q-3 0 -5 5l-35 113h-251l-34 -113q-2 -5 -5 -5h-260q-2 0 -4 1.5t-1 3.5l245 700q2 5 5 5h360q3 0 5 -5l245 -700q1 -2 -1 -3.5zM504 298l-38 123q-10 31 -17 64.5t-10 50.5h-10q-3 -17 -10.5 -50.5t-16.5 -64.5l-38 -123h140zM318 765
l-3 1l-215 193q-2 2 -2 6q0 7 7 7h319l4 -2l124 -196q1 -1 1 -4q0 -5 -6 -5h-229z" />
    <glyph glyph-name="Amacron" unicode="&#x100;" horiz-adv-x="870" 
d="M864 1.5q-2 -1.5 -4 -1.5h-260q-3 0 -5 5l-35 113h-251l-34 -113q-2 -5 -5 -5h-260q-2 0 -4 1.5t-1 3.5l245 700q2 5 5 5h360q3 0 5 -5l245 -700q1 -2 -1 -3.5zM504 298l-38 123q-10 31 -17 64.5t-10 50.5h-10q-3 -17 -10.5 -50.5t-16.5 -64.5l-38 -123h140zM135 765v170
q0 5 5 5h590q5 0 5 -5v-170q0 -5 -5 -5h-590q-5 0 -5 5z" />
    <glyph glyph-name="Aogonek" unicode="&#x104;" horiz-adv-x="870" 
d="M933 -132q-19 -38 -64.5 -66t-118.5 -28q-84 0 -131.5 27t-47.5 71v3q0 37 21 69.5t57 55.5h-49q-3 0 -5 5l-35 113h-251l-34 -113q-2 -5 -5 -5h-260q-2 0 -4 1.5t-1 3.5l245 700q2 5 5 5h360q3 0 5 -5l245 -700q1 -2 -1 -3.5t-4 -1.5h-45q-38 -27 -50 -42t-12 -27v-1
q0 -8 6.5 -14.5t18.5 -6.5q16 0 27.5 7.5t15.5 16.5q1 3 4.5 4t5.5 -1l100 -61q4 -3 2 -7zM504 298l-38 123q-10 31 -17 64.5t-10 50.5h-10q-3 -17 -10.5 -50.5t-16.5 -64.5l-38 -123h140z" />
    <glyph glyph-name="Aring" unicode="&#xc5;" horiz-adv-x="870" 
d="M864 1.5q-2 -1.5 -4 -1.5h-260q-3 0 -5 5l-35 113h-251l-34 -113q-2 -5 -5 -5h-260q-2 0 -4 1.5t-1 3.5l245 700q2 5 5 5h360q3 0 5 -5l245 -700q1 -2 -1 -3.5zM504 298l-38 123q-10 31 -17 64.5t-10 50.5h-10q-3 -17 -10.5 -50.5t-16.5 -64.5l-38 -123h140zM304.5 787.5
q-41.5 32.5 -41.5 100.5t41.5 100.5t130.5 32.5q88 0 130 -32.5t42 -100.5t-42 -100.5t-130 -32.5q-89 0 -130.5 32.5zM466 888q0 15 -7 23.5t-24 8.5q-18 0 -25 -8.5t-7 -23.5q0 -16 7 -23.5t25 -7.5q31 0 31 31z" />
    <glyph glyph-name="Atilde" unicode="&#xc3;" horiz-adv-x="870" 
d="M864 1.5q-2 -1.5 -4 -1.5h-260q-3 0 -5 5l-35 113h-251l-34 -113q-2 -5 -5 -5h-260q-2 0 -4 1.5t-1 3.5l245 700q2 5 5 5h360q3 0 5 -5l245 -700q1 -2 -1 -3.5zM504 298l-38 123q-10 31 -17 64.5t-10 50.5h-10q-3 -17 -10.5 -50.5t-16.5 -64.5l-38 -123h140zM170 773
q1 115 52.5 161t122.5 46q29 0 49 -5.5t46 -15.5q22 -10 39 -14.5t40 -4.5q16 0 25 10t11 25q0 2 1.5 3.5t3.5 1.5h134q5 0 5 -5q-1 -110 -53 -158.5t-121 -48.5q-27 0 -46.5 5t-48.5 16q-23 9 -40 14t-39 5q-16 0 -25.5 -10t-11.5 -25q0 -2 -1.5 -3.5t-3.5 -1.5h-134
q-5 0 -5 5z" />
    <glyph glyph-name="AE" unicode="&#xc6;" horiz-adv-x="1246" 
d="M836 510v-60h335q5 0 5 -5v-180q0 -5 -5 -5h-335v-60h355q5 0 5 -5v-190q0 -5 -5 -5h-610q-5 0 -5 5v113h-240l-65 -113q-1 -1 -2 -3t-3 -2h-280q-2 0 -4 1.5t-1 3.5l400 700q1 1 2 3t3 2h805q5 0 5 -5v-190q0 -5 -5 -5h-355zM576 298v222h-17q-9 -30 -65 -128l-54 -94
h136z" />
    <glyph glyph-name="AEacute" unicode="&#x1fc;" horiz-adv-x="1246" 
d="M836 510v-60h335q5 0 5 -5v-180q0 -5 -5 -5h-335v-60h355q5 0 5 -5v-190q0 -5 -5 -5h-610q-5 0 -5 5v113h-240l-65 -113q-1 -1 -2 -3t-3 -2h-280q-2 0 -4 1.5t-1 3.5l400 700q1 1 2 3t3 2h805q5 0 5 -5v-190q0 -5 -5 -5h-355zM576 298v222h-17q-9 -30 -65 -128l-54 -94
h136zM620.5 767.5q-1.5 2.5 0.5 6.5l124 196l4 2h319q5 0 7 -4.5t-2 -8.5l-215 -193l-3 -1h-229q-4 0 -5.5 2.5z" />
    <glyph glyph-name="B" unicode="B" horiz-adv-x="875" 
d="M789.5 309.5q40.5 -39.5 40.5 -105.5v-18q0 -102 -63 -144t-202 -42h-480q-5 0 -5 5v700q0 5 5 5h480q92 0 147.5 -17.5t81.5 -58t26 -110.5v-8q0 -63 -39 -105.5t-98 -46.5v-10q66 -5 106.5 -44.5zM552 508q-8 12 -27 12h-185v-80h185q19 0 27 12t8 26v4q0 14 -8 26z
M570 232q0 14 -8 26t-27 12h-195v-80h195q19 0 27 12t8 26v4z" />
    <glyph glyph-name="C" unicode="C" horiz-adv-x="933" 
d="M169.5 78q-109.5 88 -109.5 268v18q0 180 109.5 268t298.5 88q122 0 214.5 -30.5t144 -91t51.5 -148.5v-22q0 -5 -5 -5h-255q-5 0 -5 5v5q0 38 -32 62.5t-109 24.5q-152 0 -152 -158v-14q0 -158 152 -158q78 0 109.5 24.5t31.5 71.5v5q0 5 5 5h255q5 0 5 -5v-22
q0 -140 -111 -209.5t-299 -69.5q-189 0 -298.5 88z" />
    <glyph glyph-name="Cacute" unicode="&#x106;" horiz-adv-x="933" 
d="M169.5 78q-109.5 88 -109.5 268v18q0 180 109.5 268t298.5 88q122 0 214.5 -30.5t144 -91t51.5 -148.5v-22q0 -5 -5 -5h-255q-5 0 -5 5v5q0 38 -32 62.5t-109 24.5q-152 0 -152 -158v-14q0 -158 152 -158q78 0 109.5 24.5t31.5 71.5v5q0 5 5 5h255q5 0 5 -5v-22
q0 -140 -111 -209.5t-299 -69.5q-189 0 -298.5 88zM338.5 767.5q-1.5 2.5 0.5 6.5l124 196l4 2h319q5 0 7 -4.5t-2 -8.5l-215 -193l-3 -1h-229q-4 0 -5.5 2.5z" />
    <glyph glyph-name="Ccaron" unicode="&#x10c;" horiz-adv-x="933" 
d="M169.5 78q-109.5 88 -109.5 268v18q0 180 109.5 268t298.5 88q122 0 214.5 -30.5t144 -91t51.5 -148.5v-22q0 -5 -5 -5h-255q-5 0 -5 5v5q0 38 -32 62.5t-109 24.5q-152 0 -152 -158v-14q0 -158 152 -158q78 0 109.5 24.5t31.5 71.5v5q0 5 5 5h255q5 0 5 -5v-22
q0 -140 -111 -209.5t-299 -69.5q-189 0 -298.5 88zM720 940.5q2 -3.5 -1 -6.5l-157 -167q-2 -2 -3 -2h-184q-1 0 -3 2l-158 167q-2 2 -2 4t2 4t5 2h197l4 -2l44 -45l49 45l4 2h197q4 0 6 -3.5z" />
    <glyph glyph-name="Ccedilla" unicode="&#xc7;" horiz-adv-x="933" 
d="M613 428v5q0 38 -32 62.5t-109 24.5q-152 0 -152 -158v-14q0 -158 152 -158q78 0 109.5 24.5t31.5 71.5v5q0 5 5 5h255q5 0 5 -5v-22q0 -127 -93.5 -196.5t-256.5 -80.5l-6 -28h33q57 0 89.5 -29.5t32.5 -82.5v-11q0 -65 -50 -99.5t-153 -34.5q-116 0 -167.5 34
t-51.5 100v6q0 5 4 5h166q5 0 5 -5v-2q0 -8 11 -13t25 -5q15 0 25.5 6.5t10.5 21.5v9q0 25 -29 25h-97q-5 1 -3 7l24 97q-158 16 -247.5 103t-89.5 250v18q0 180 109.5 268t298.5 88q122 0 214.5 -30.5t144 -91t51.5 -148.5v-22q0 -5 -5 -5h-255q-5 0 -5 5z" />
    <glyph glyph-name="Ccircumflex" unicode="&#x108;" horiz-adv-x="933" 
d="M169.5 78q-109.5 88 -109.5 268v18q0 180 109.5 268t298.5 88q122 0 214.5 -30.5t144 -91t51.5 -148.5v-22q0 -5 -5 -5h-255q-5 0 -5 5v5q0 38 -32 62.5t-109 24.5q-152 0 -152 -158v-14q0 -158 152 -158q78 0 109.5 24.5t31.5 71.5v5q0 5 5 5h255q5 0 5 -5v-22
q0 -140 -111 -209.5t-299 -69.5q-189 0 -298.5 88zM721 771q0 -2 -2 -4t-5 -2h-197l-4 2l-49 45l-44 -45l-4 -2h-197q-4 0 -6 3.5t1 6.5l158 167q2 2 3 2h184q1 0 3 -2l157 -167q2 -2 2 -4z" />
    <glyph glyph-name="Cdotaccent" unicode="&#x10a;" horiz-adv-x="933" 
d="M169.5 78q-109.5 88 -109.5 268v18q0 180 109.5 268t298.5 88q122 0 214.5 -30.5t144 -91t51.5 -148.5v-22q0 -5 -5 -5h-255q-5 0 -5 5v5q0 38 -32 62.5t-109 24.5q-152 0 -152 -158v-14q0 -158 152 -158q78 0 109.5 24.5t31.5 71.5v5q0 5 5 5h255q5 0 5 -5v-22
q0 -140 -111 -209.5t-299 -69.5q-189 0 -298.5 88zM342 765v170q0 5 5 5h240q5 0 5 -5v-170q0 -5 -5 -5h-240q-5 0 -5 5z" />
    <glyph glyph-name="D" unicode="D" horiz-adv-x="920" 
d="M750 631.5q110 -78.5 110 -257.5v-38q0 -179 -110 -257.5t-310 -78.5h-355q-5 0 -5 5v700q0 5 5 5h355q200 0 310 -78.5zM600 362q0 77 -39 112.5t-121 35.5h-100v-310h100q82 0 121 35.5t39 112.5v14z" />
    <glyph glyph-name="Eth" unicode="&#xd0;" horiz-adv-x="920" 
d="M750 631.5q110 -78.5 110 -257.5v-38q0 -179 -110 -257.5t-310 -78.5h-355q-5 0 -5 5v260h-82q-5 0 -5 5v170q0 5 5 5h82v260q0 5 5 5h355q200 0 310 -78.5zM600 362q0 77 -39 112.5t-121 35.5h-100v-65h128q5 0 5 -5v-170q0 -5 -5 -5h-128v-65h100q82 0 121 35.5
t39 112.5v14z" />
    <glyph glyph-name="Dcaron" unicode="&#x10e;" horiz-adv-x="920" 
d="M750 631.5q110 -78.5 110 -257.5v-38q0 -179 -110 -257.5t-310 -78.5h-355q-5 0 -5 5v700q0 5 5 5h355q200 0 310 -78.5zM600 362q0 77 -39 112.5t-121 35.5h-100v-310h100q82 0 121 35.5t39 112.5v14zM673 940.5q2 -3.5 -1 -6.5l-157 -167q-2 -2 -3 -2h-184q-1 0 -3 2
l-158 167q-2 2 -2 4t2 4t5 2h197l4 -2l44 -45l49 45l4 2h197q4 0 6 -3.5z" />
    <glyph glyph-name="Dcroat" unicode="&#x110;" horiz-adv-x="920" 
d="M750 631.5q110 -78.5 110 -257.5v-38q0 -179 -110 -257.5t-310 -78.5h-355q-5 0 -5 5v260h-82q-5 0 -5 5v170q0 5 5 5h82v260q0 5 5 5h355q200 0 310 -78.5zM600 362q0 77 -39 112.5t-121 35.5h-100v-65h128q5 0 5 -5v-170q0 -5 -5 -5h-128v-65h100q82 0 121 35.5
t39 112.5v14z" />
    <glyph glyph-name="E" unicode="E" horiz-adv-x="750" 
d="M340 510v-60h335q5 0 5 -5v-180q0 -5 -5 -5h-335v-60h355q5 0 5 -5v-190q0 -5 -5 -5h-610q-5 0 -5 5v700q0 5 5 5h610q5 0 5 -5v-190q0 -5 -5 -5h-355z" />
    <glyph glyph-name="Eacute" unicode="&#xc9;" horiz-adv-x="750" 
d="M340 510v-60h335q5 0 5 -5v-180q0 -5 -5 -5h-335v-60h355q5 0 5 -5v-190q0 -5 -5 -5h-610q-5 0 -5 5v700q0 5 5 5h610q5 0 5 -5v-190q0 -5 -5 -5h-355zM256.5 767.5q-1.5 2.5 0.5 6.5l124 196l4 2h319q5 0 7 -4.5t-2 -8.5l-215 -193l-3 -1h-229q-4 0 -5.5 2.5z" />
    <glyph glyph-name="Ebreve" unicode="&#x114;" horiz-adv-x="750" 
d="M340 510v-60h335q5 0 5 -5v-180q0 -5 -5 -5h-335v-60h355q5 0 5 -5v-190q0 -5 -5 -5h-610q-5 0 -5 5v700q0 5 5 5h610q5 0 5 -5v-190q0 -5 -5 -5h-355zM214.5 799q-57.5 44 -57.5 123v23q0 5 5 5h165q5 0 5 -5v-6q0 -19 11.5 -33.5t41.5 -14.5q33 0 43 14t10 34v6
q0 5 5 5h165q5 0 5 -5v-23q0 -80 -56 -123.5t-172 -43.5q-113 0 -170.5 44z" />
    <glyph glyph-name="Ecaron" unicode="&#x11a;" horiz-adv-x="750" 
d="M340 510v-60h335q5 0 5 -5v-180q0 -5 -5 -5h-335v-60h355q5 0 5 -5v-190q0 -5 -5 -5h-610q-5 0 -5 5v700q0 5 5 5h610q5 0 5 -5v-190q0 -5 -5 -5h-355zM638 940.5q2 -3.5 -1 -6.5l-157 -167q-2 -2 -3 -2h-184q-1 0 -3 2l-158 167q-2 2 -2 4t2 4t5 2h197l4 -2l44 -45
l49 45l4 2h197q4 0 6 -3.5z" />
    <glyph glyph-name="Ecircumflex" unicode="&#xca;" horiz-adv-x="750" 
d="M340 510v-60h335q5 0 5 -5v-180q0 -5 -5 -5h-335v-60h355q5 0 5 -5v-190q0 -5 -5 -5h-610q-5 0 -5 5v700q0 5 5 5h610q5 0 5 -5v-190q0 -5 -5 -5h-355zM639 771q0 -2 -2 -4t-5 -2h-197l-4 2l-49 45l-44 -45l-4 -2h-197q-4 0 -6 3.5t1 6.5l158 167q2 2 3 2h184q1 0 3 -2
l157 -167q2 -2 2 -4z" />
    <glyph glyph-name="Edieresis" unicode="&#xcb;" horiz-adv-x="750" 
d="M340 510v-60h335q5 0 5 -5v-180q0 -5 -5 -5h-335v-60h355q5 0 5 -5v-190q0 -5 -5 -5h-610q-5 0 -5 5v700q0 5 5 5h610q5 0 5 -5v-190q0 -5 -5 -5h-355zM140 765v170q0 5 5 5h210q5 0 5 -5v-170q0 -5 -5 -5h-210q-5 0 -5 5zM410 765v170q0 5 5 5h210q5 0 5 -5v-170
q0 -5 -5 -5h-210q-5 0 -5 5z" />
    <glyph glyph-name="Edotaccent" unicode="&#x116;" horiz-adv-x="750" 
d="M340 510v-60h335q5 0 5 -5v-180q0 -5 -5 -5h-335v-60h355q5 0 5 -5v-190q0 -5 -5 -5h-610q-5 0 -5 5v700q0 5 5 5h610q5 0 5 -5v-190q0 -5 -5 -5h-355zM260 765v170q0 5 5 5h240q5 0 5 -5v-170q0 -5 -5 -5h-240q-5 0 -5 5z" />
    <glyph glyph-name="Egrave" unicode="&#xc8;" horiz-adv-x="750" 
d="M340 510v-60h335q5 0 5 -5v-180q0 -5 -5 -5h-335v-60h355q5 0 5 -5v-190q0 -5 -5 -5h-610q-5 0 -5 5v700q0 5 5 5h610q5 0 5 -5v-190q0 -5 -5 -5h-355zM268 765l-3 1l-215 193q-2 2 -2 6q0 7 7 7h319l4 -2l124 -196q1 -1 1 -4q0 -5 -6 -5h-229z" />
    <glyph glyph-name="Emacron" unicode="&#x112;" horiz-adv-x="750" 
d="M340 510v-60h335q5 0 5 -5v-180q0 -5 -5 -5h-335v-60h355q5 0 5 -5v-190q0 -5 -5 -5h-610q-5 0 -5 5v700q0 5 5 5h610q5 0 5 -5v-190q0 -5 -5 -5h-355zM85 765v170q0 5 5 5h590q5 0 5 -5v-170q0 -5 -5 -5h-590q-5 0 -5 5z" />
    <glyph glyph-name="Eogonek" unicode="&#x118;" horiz-adv-x="750" 
d="M340 510v-60h335q5 0 5 -5v-180q0 -5 -5 -5h-335v-60h355q5 0 5 -5v-190q0 -5 -5 -5h-103q-47 -32 -62 -49t-15 -30v-1q0 -8 6.5 -14.5t18.5 -6.5q16 0 27.5 7.5t15.5 16.5q1 3 4.5 4t5.5 -1l100 -61q4 -3 2 -7q-19 -38 -64.5 -66t-118.5 -28q-84 0 -131.5 27t-47.5 71v3
q0 41 26 76.5t69 58.5h-343q-5 0 -5 5v700q0 5 5 5h610q5 0 5 -5v-190q0 -5 -5 -5h-355z" />
    <glyph glyph-name="F" unicode="F" horiz-adv-x="740" 
d="M700 705v-190q0 -5 -5 -5h-355v-70h335q5 0 5 -5v-180q0 -5 -5 -5h-335v-245q0 -5 -5 -5h-250q-5 0 -5 5v700q0 5 5 5h610q5 0 5 -5z" />
    <glyph glyph-name="G" unicode="G" horiz-adv-x="949" 
d="M613 463v3q0 23 -30.5 38.5t-98.5 15.5q-85 0 -124.5 -39t-39.5 -119v-14q0 -77 42.5 -117.5t121.5 -40.5q63 0 95 15t38 51h-113q-5 0 -5 10v145q0 4 1.5 7t3.5 3h369q5 0 5 -6v-410q0 -5 -5 -5h-210q-3 0 -5 5l-25 80h-14q-32 -45 -82.5 -70t-128.5 -25q-97 0 -176 38
t-125.5 118t-46.5 200v18q0 180 109.5 268t298.5 88t299.5 -58t110.5 -177v-22q0 -5 -5 -5h-255q-5 0 -5 5z" />
    <glyph glyph-name="Gbreve" unicode="&#x11e;" horiz-adv-x="949" 
d="M613 463v3q0 23 -30.5 38.5t-98.5 15.5q-85 0 -124.5 -39t-39.5 -119v-14q0 -77 42.5 -117.5t121.5 -40.5q63 0 95 15t38 51h-113q-5 0 -5 10v145q0 4 1.5 7t3.5 3h369q5 0 5 -6v-410q0 -5 -5 -5h-210q-3 0 -5 5l-25 80h-14q-32 -45 -82.5 -70t-128.5 -25q-97 0 -176 38
t-125.5 118t-46.5 200v18q0 180 109.5 268t298.5 88t299.5 -58t110.5 -177v-22q0 -5 -5 -5h-255q-5 0 -5 5zM304.5 799q-57.5 44 -57.5 123v23q0 5 5 5h165q5 0 5 -5v-6q0 -19 11.5 -33.5t41.5 -14.5q33 0 43 14t10 34v6q0 5 5 5h165q5 0 5 -5v-23q0 -80 -56 -123.5
t-172 -43.5q-113 0 -170.5 44z" />
    <glyph glyph-name="Gcircumflex" unicode="&#x11c;" horiz-adv-x="949" 
d="M613 463v3q0 23 -30.5 38.5t-98.5 15.5q-85 0 -124.5 -39t-39.5 -119v-14q0 -77 42.5 -117.5t121.5 -40.5q63 0 95 15t38 51h-113q-5 0 -5 10v145q0 4 1.5 7t3.5 3h369q5 0 5 -6v-410q0 -5 -5 -5h-210q-3 0 -5 5l-25 80h-14q-32 -45 -82.5 -70t-128.5 -25q-97 0 -176 38
t-125.5 118t-46.5 200v18q0 180 109.5 268t298.5 88t299.5 -58t110.5 -177v-22q0 -5 -5 -5h-255q-5 0 -5 5zM729 771q0 -2 -2 -4t-5 -2h-197l-4 2l-49 45l-44 -45l-4 -2h-197q-4 0 -6 3.5t1 6.5l158 167q2 2 3 2h184q1 0 3 -2l157 -167q2 -2 2 -4z" />
    <glyph glyph-name="uni0122" unicode="&#x122;" horiz-adv-x="949" 
d="M613 463v3q0 23 -30.5 38.5t-98.5 15.5q-85 0 -124.5 -39t-39.5 -119v-14q0 -77 42.5 -117.5t121.5 -40.5q63 0 95 15t38 51h-113q-5 0 -5 10v145q0 4 1.5 7t3.5 3h369q5 0 5 -6v-410q0 -5 -5 -5h-210q-3 0 -5 5l-25 80h-14q-32 -45 -82.5 -70t-128.5 -25q-97 0 -176 38
t-125.5 118t-46.5 200v18q0 180 109.5 268t298.5 88t299.5 -58t110.5 -177v-22q0 -5 -5 -5h-255q-5 0 -5 5zM365 -378v69q0 4 5 4h74q15 0 20.5 5t5.5 15v25h-100q-5 0 -5 5v190q0 5 5 5h209q5 0 5 -5v-242q0 -37 -22 -56.5t-58 -19.5h-134q-5 0 -5 5z" />
    <glyph glyph-name="Gdotaccent" unicode="&#x120;" horiz-adv-x="949" 
d="M613 463v3q0 23 -30.5 38.5t-98.5 15.5q-85 0 -124.5 -39t-39.5 -119v-14q0 -77 42.5 -117.5t121.5 -40.5q63 0 95 15t38 51h-113q-5 0 -5 10v145q0 4 1.5 7t3.5 3h369q5 0 5 -6v-410q0 -5 -5 -5h-210q-3 0 -5 5l-25 80h-14q-32 -45 -82.5 -70t-128.5 -25q-97 0 -176 38
t-125.5 118t-46.5 200v18q0 180 109.5 268t298.5 88t299.5 -58t110.5 -177v-22q0 -5 -5 -5h-255q-5 0 -5 5zM350 765v170q0 5 5 5h240q5 0 5 -5v-170q0 -5 -5 -5h-240q-5 0 -5 5z" />
    <glyph glyph-name="H" unicode="H" horiz-adv-x="920" 
d="M840 705v-700q0 -5 -5 -5h-250q-5 0 -5 5v257h-240v-257q0 -5 -5 -5h-250q-5 0 -5 5v700q0 5 5 5h250q5 0 5 -5v-253h240v253q0 5 5 5h250q5 0 5 -5z" />
    <glyph glyph-name="Hbar" unicode="&#x126;" horiz-adv-x="950" 
d="M950 625v-170q0 -5 -5 -5h-90v-445q0 -5 -5 -5h-250q-5 0 -5 5v187h-240v-187q0 -5 -5 -5h-250q-5 0 -5 5v445h-90q-5 0 -5 5v170q0 5 5 5h90v75q0 5 5 5h250q5 0 5 -5v-75h240v75q0 5 5 5h250q5 0 5 -5v-75h90q5 0 5 -5zM595 450h-240v-68h240v68z" />
    <glyph glyph-name="Hcircumflex" unicode="&#x124;" horiz-adv-x="920" 
d="M840 705v-700q0 -5 -5 -5h-250q-5 0 -5 5v257h-240v-257q0 -5 -5 -5h-250q-5 0 -5 5v700q0 5 5 5h250q5 0 5 -5v-253h240v253q0 5 5 5h250q5 0 5 -5zM714 771q0 -2 -2 -4t-5 -2h-197l-4 2l-49 45l-44 -45l-4 -2h-197q-4 0 -6 3.5t1 6.5l158 167q2 2 3 2h184q1 0 3 -2
l157 -167q2 -2 2 -4z" />
    <glyph glyph-name="I" unicode="I" horiz-adv-x="420" 
d="M80 5v700q0 5 5 5h250q5 0 5 -5v-700q0 -5 -5 -5h-250q-5 0 -5 5z" />
    <glyph glyph-name="IJ" unicode="&#x132;" horiz-adv-x="1250" 
d="M80 5v700q0 5 5 5h250q5 0 5 -5v-700q0 -5 -5 -5h-250q-5 0 -5 5zM551 49.5q-91 59.5 -91 208.5v94q0 5 5 5h250q5 0 5 -5v-82q0 -37 22 -58.5t78 -21.5q45 0 66 12.5t27.5 40.5t6.5 85v377q0 5 5 5h250q5 0 5 -5v-429q0 -112 -41 -174.5t-119 -87t-200 -24.5
q-178 0 -269 59.5z" />
    <glyph glyph-name="Iacute" unicode="&#xcd;" horiz-adv-x="420" 
d="M80 5v700q0 5 5 5h250q5 0 5 -5v-700q0 -5 -5 -5h-250q-5 0 -5 5zM81.5 767.5q-1.5 2.5 0.5 6.5l124 196l4 2h319q5 0 7 -4.5t-2 -8.5l-215 -193l-3 -1h-229q-4 0 -5.5 2.5z" />
    <glyph glyph-name="Ibreve" unicode="&#x12c;" horiz-adv-x="420" 
d="M80 5v700q0 5 5 5h250q5 0 5 -5v-700q0 -5 -5 -5h-250q-5 0 -5 5zM39.5 799q-57.5 44 -57.5 123v23q0 5 5 5h165q5 0 5 -5v-6q0 -19 11.5 -33.5t41.5 -14.5q33 0 43 14t10 34v6q0 5 5 5h165q5 0 5 -5v-23q0 -80 -56 -123.5t-172 -43.5q-113 0 -170.5 44z" />
    <glyph glyph-name="Icircumflex" unicode="&#xce;" horiz-adv-x="420" 
d="M80 5v700q0 5 5 5h250q5 0 5 -5v-700q0 -5 -5 -5h-250q-5 0 -5 5zM464 771q0 -2 -2 -4t-5 -2h-197l-4 2l-49 45l-44 -45l-4 -2h-197q-4 0 -6 3.5t1 6.5l158 167q2 2 3 2h184q1 0 3 -2l157 -167q2 -2 2 -4z" />
    <glyph glyph-name="Idieresis" unicode="&#xcf;" horiz-adv-x="420" 
d="M80 5v700q0 5 5 5h250q5 0 5 -5v-700q0 -5 -5 -5h-250q-5 0 -5 5zM-35 765v170q0 5 5 5h210q5 0 5 -5v-170q0 -5 -5 -5h-210q-5 0 -5 5zM235 765v170q0 5 5 5h210q5 0 5 -5v-170q0 -5 -5 -5h-210q-5 0 -5 5z" />
    <glyph glyph-name="Idotaccent" unicode="&#x130;" horiz-adv-x="420" 
d="M80 5v700q0 5 5 5h250q5 0 5 -5v-700q0 -5 -5 -5h-250q-5 0 -5 5zM85 765v170q0 5 5 5h240q5 0 5 -5v-170q0 -5 -5 -5h-240q-5 0 -5 5z" />
    <glyph glyph-name="Igrave" unicode="&#xcc;" horiz-adv-x="420" 
d="M80 5v700q0 5 5 5h250q5 0 5 -5v-700q0 -5 -5 -5h-250q-5 0 -5 5zM93 765l-3 1l-215 193q-2 2 -2 6q0 7 7 7h319l4 -2l124 -196q1 -1 1 -4q0 -5 -6 -5h-229z" />
    <glyph glyph-name="Imacron" unicode="&#x12a;" horiz-adv-x="420" 
d="M80 5v700q0 5 5 5h250q5 0 5 -5v-700q0 -5 -5 -5h-250q-5 0 -5 5zM-90 765v170q0 5 5 5h590q5 0 5 -5v-170q0 -5 -5 -5h-590q-5 0 -5 5z" />
    <glyph glyph-name="Iogonek" unicode="&#x12e;" horiz-adv-x="420" 
d="M408 -142q-19 -38 -64.5 -66t-118.5 -28q-84 0 -131.5 27t-47.5 71v3q0 41 26 76.5t69 58.5h-56q-5 0 -5 5v700q0 5 5 5h250q5 0 5 -5v-700q0 -5 -5 -5h-30q-47 -32 -62 -49t-15 -30v-1q0 -8 6.5 -14.5t18.5 -6.5q16 0 27.5 7.5t15.5 16.5q1 3 4.5 4t5.5 -1l100 -61
q4 -3 2 -7z" />
    <glyph glyph-name="Itilde" unicode="&#x128;" horiz-adv-x="420" 
d="M80 5v700q0 5 5 5h250q5 0 5 -5v-700q0 -5 -5 -5h-250q-5 0 -5 5zM-55 773q1 115 52.5 161t122.5 46q29 0 49 -5.5t46 -15.5q22 -10 39 -14.5t40 -4.5q16 0 25 10t11 25q0 2 1.5 3.5t3.5 1.5h134q5 0 5 -5q-1 -110 -53 -158.5t-121 -48.5q-27 0 -46.5 5t-48.5 16
q-23 9 -40 14t-39 5q-16 0 -25.5 -10t-11.5 -25q0 -2 -1.5 -3.5t-3.5 -1.5h-134q-5 0 -5 5z" />
    <glyph glyph-name="J" unicode="J" horiz-adv-x="830" 
d="M131 49.5q-91 59.5 -91 208.5v94q0 5 5 5h250q5 0 5 -5v-82q0 -37 22 -58.5t78 -21.5q45 0 66 12.5t27.5 40.5t6.5 85v377q0 5 5 5h250q5 0 5 -5v-429q0 -112 -41 -174.5t-119 -87t-200 -24.5q-178 0 -269 59.5z" />
    <glyph glyph-name="Jcircumflex" unicode="&#x134;" horiz-adv-x="830" 
d="M131 49.5q-91 59.5 -91 208.5v94q0 5 5 5h250q5 0 5 -5v-82q0 -37 22 -58.5t78 -21.5q45 0 66 12.5t27.5 40.5t6.5 85v377q0 5 5 5h250q5 0 5 -5v-429q0 -112 -41 -174.5t-119 -87t-200 -24.5q-178 0 -269 59.5zM879 771q0 -2 -2 -4t-5 -2h-197l-4 2l-49 45l-44 -45
l-4 -2h-197q-4 0 -6 3.5t1 6.5l158 167q2 2 3 2h184q1 0 3 -2l157 -167q2 -2 2 -4z" />
    <glyph glyph-name="K" unicode="K" horiz-adv-x="844" 
d="M80 705q0 5 5 5h250q5 0 5 -5v-255h47q16 41 38 77l16 25l88 153q3 5 7 5h285q2 0 4 -1.5t1 -3.5l-223 -350l235 -350q1 -2 -1 -3.5t-4 -1.5h-285q-4 0 -7 5l-100 152q-22 34 -31.5 50.5t-22.5 52.5h-47v-255q0 -5 -5 -5h-250q-5 0 -5 5v700z" />
    <glyph glyph-name="uni0136" unicode="&#x136;" horiz-adv-x="844" 
d="M80 705q0 5 5 5h250q5 0 5 -5v-255h47q16 41 38 77l16 25l88 153q3 5 7 5h285q2 0 4 -1.5t1 -3.5l-223 -350l235 -350q1 -2 -1 -3.5t-4 -1.5h-285q-4 0 -7 5l-100 152q-22 34 -31.5 50.5t-22.5 52.5h-47v-255q0 -5 -5 -5h-250q-5 0 -5 5v700zM312 -378v69q0 4 5 4h74
q15 0 20.5 5t5.5 15v25h-100q-5 0 -5 5v190q0 5 5 5h209q5 0 5 -5v-242q0 -37 -22 -56.5t-58 -19.5h-134q-5 0 -5 5z" />
    <glyph glyph-name="L" unicode="L" horiz-adv-x="720" 
d="M700 189v-179q0 -10 -5 -10h-610q-5 0 -5 5v700q0 5 5 5h250q5 0 5 -5v-505h355q5 0 5 -11z" />
    <glyph glyph-name="Lacute" unicode="&#x139;" horiz-adv-x="720" 
d="M700 189v-179q0 -10 -5 -10h-610q-5 0 -5 5v700q0 5 5 5h250q5 0 5 -5v-505h355q5 0 5 -11zM81.5 767.5q-1.5 2.5 0.5 6.5l124 196l4 2h319q5 0 7 -4.5t-2 -8.5l-215 -193l-3 -1h-229q-4 0 -5.5 2.5z" />
    <glyph glyph-name="Lcaron" unicode="&#x13d;" horiz-adv-x="720" 
d="M700 189v-179q0 -10 -5 -10h-610q-5 0 -5 5v700q0 5 5 5h250q5 0 5 -5v-505h355q5 0 5 -11zM449 360v76q0 5 5 5h81q17 0 23 5t6 17v27h-110q-5 0 -5 5v210q0 5 5 5h230q5 0 5 -5v-267q0 -41 -24 -62t-64 -21h-147q-5 0 -5 5z" />
    <glyph glyph-name="uni013B" unicode="&#x13b;" horiz-adv-x="720" 
d="M700 189v-179q0 -10 -5 -10h-610q-5 0 -5 5v700q0 5 5 5h250q5 0 5 -5v-505h355q5 0 5 -11zM250 -378v69q0 4 5 4h74q15 0 20.5 5t5.5 15v25h-100q-5 0 -5 5v190q0 5 5 5h209q5 0 5 -5v-242q0 -37 -22 -56.5t-58 -19.5h-134q-5 0 -5 5z" />
    <glyph glyph-name="Ldot" unicode="&#x13f;" horiz-adv-x="720" 
d="M700 189v-179q0 -10 -5 -10h-610q-5 0 -5 5v700q0 5 5 5h250q5 0 5 -5v-505h355q5 0 5 -11zM455 263v210q0 5 5 5h230q5 0 5 -5v-210q0 -5 -5 -5h-230q-5 0 -5 5z" />
    <glyph glyph-name="Lslash" unicode="&#x141;" horiz-adv-x="720" 
d="M700 189v-179q0 -10 -5 -10h-610q-5 0 -5 5v206l-84 -36q-3 -1 -4.5 1t-1.5 4v170q0 4 6 5l84 36v314q0 5 5 5h250q5 0 5 -5v-203l124 53q3 1 4.5 -1t1.5 -4v-170q0 -3 -6 -5l-124 -53v-122h355q5 0 5 -11z" />
    <glyph glyph-name="M" unicode="M" horiz-adv-x="1120" 
d="M80 5v700q0 5 5 5h297q3 0 4 -2l100 -211q25 -54 47.5 -127t22.5 -86h10q0 14 22 87t47 126l99 211q1 2 4 2h297q5 0 5 -5v-700q0 -5 -5 -5h-250q-5 0 -5 5v182q0 67 3 101.5t15 79.5h-10l-147 -366q-1 -2 -4 -2h-154q-3 0 -4 2l-147 366h-10q12 -45 15 -79.5t3 -101.5
v-182q0 -5 -5 -5h-250q-5 0 -5 5z" />
    <glyph glyph-name="N" unicode="N" horiz-adv-x="900" 
d="M80 5v700q0 5 5 5h297q3 0 4 -2l179 -360h10q-10 41 -12.5 74.5t-2.5 100.5v182q0 5 5 5h250q5 0 5 -5v-700q0 -5 -5 -5h-302q-3 0 -4 2l-177 366h-10q12 -45 15 -79.5t3 -101.5v-182q0 -5 -5 -5h-250q-5 0 -5 5z" />
    <glyph glyph-name="Nacute" unicode="&#x143;" horiz-adv-x="900" 
d="M80 5v700q0 5 5 5h297q3 0 4 -2l179 -360h10q-10 41 -12.5 74.5t-2.5 100.5v182q0 5 5 5h250q5 0 5 -5v-700q0 -5 -5 -5h-302q-3 0 -4 2l-177 366h-10q12 -45 15 -79.5t3 -101.5v-182q0 -5 -5 -5h-250q-5 0 -5 5zM351.5 767.5q-1.5 2.5 0.5 6.5l124 196l4 2h319
q5 0 7 -4.5t-2 -8.5l-215 -193l-3 -1h-229q-4 0 -5.5 2.5z" />
    <glyph glyph-name="Ncaron" unicode="&#x147;" horiz-adv-x="900" 
d="M80 5v700q0 5 5 5h297q3 0 4 -2l179 -360h10q-10 41 -12.5 74.5t-2.5 100.5v182q0 5 5 5h250q5 0 5 -5v-700q0 -5 -5 -5h-302q-3 0 -4 2l-177 366h-10q12 -45 15 -79.5t3 -101.5v-182q0 -5 -5 -5h-250q-5 0 -5 5zM733 940.5q2 -3.5 -1 -6.5l-157 -167q-2 -2 -3 -2h-184
q-1 0 -3 2l-158 167q-2 2 -2 4t2 4t5 2h197l4 -2l44 -45l49 45l4 2h197q4 0 6 -3.5z" />
    <glyph glyph-name="uni0145" unicode="&#x145;" horiz-adv-x="900" 
d="M80 5v700q0 5 5 5h297q3 0 4 -2l179 -360h10q-10 41 -12.5 74.5t-2.5 100.5v182q0 5 5 5h250q5 0 5 -5v-700q0 -5 -5 -5h-302q-3 0 -4 2l-177 366h-10q12 -45 15 -79.5t3 -101.5v-182q0 -5 -5 -5h-250q-5 0 -5 5zM350 -378v69q0 4 5 4h74q15 0 20.5 5t5.5 15v25h-100
q-5 0 -5 5v190q0 5 5 5h209q5 0 5 -5v-242q0 -37 -22 -56.5t-58 -19.5h-134q-5 0 -5 5z" />
    <glyph glyph-name="Eng" unicode="&#x14a;" horiz-adv-x="900" 
d="M490 -185v159q0 5 5 5h28q20 0 30 6t14 20l-235 343h-10q12 -45 15 -79.5t3 -101.5v-162q0 -5 -5 -5h-250q-5 0 -5 5v700q0 5 5 5h257q3 0 4 -2l219 -340h10q-10 41 -12.5 74.5t-2.5 100.5v162q0 5 5 5h250q5 0 5 -5l-1 -734q0 -77 -54 -119t-146 -42h-124q-5 0 -5 5z
" />
    <glyph glyph-name="Ntilde" unicode="&#xd1;" horiz-adv-x="900" 
d="M80 5v700q0 5 5 5h297q3 0 4 -2l179 -360h10q-10 41 -12.5 74.5t-2.5 100.5v182q0 5 5 5h250q5 0 5 -5v-700q0 -5 -5 -5h-302q-3 0 -4 2l-177 366h-10q12 -45 15 -79.5t3 -101.5v-182q0 -5 -5 -5h-250q-5 0 -5 5zM215 773q1 115 52.5 161t122.5 46q29 0 49 -5.5t46 -15.5
q22 -10 39 -14.5t40 -4.5q16 0 25 10t11 25q0 2 1.5 3.5t3.5 1.5h134q5 0 5 -5q-1 -110 -53 -158.5t-121 -48.5q-27 0 -46.5 5t-48.5 16q-23 9 -40 14t-39 5q-16 0 -25.5 -10t-11.5 -25q0 -2 -1.5 -3.5t-3.5 -1.5h-134q-5 0 -5 5z" />
    <glyph glyph-name="O" unicode="O" horiz-adv-x="940" 
d="M171 76.5q-111 86.5 -111 259.5v38q0 173 111 259.5t299 86.5q194 0 302 -85.5t108 -260.5v-38q0 -175 -108 -260.5t-302 -85.5q-188 0 -299 86.5zM585 229q35 39 35 119v14q0 80 -35 119t-115 39q-150 0 -150 -158v-14q0 -158 150 -158q80 0 115 39z" />
    <glyph glyph-name="Oacute" unicode="&#xd3;" horiz-adv-x="940" 
d="M171 76.5q-111 86.5 -111 259.5v38q0 173 111 259.5t299 86.5q194 0 302 -85.5t108 -260.5v-38q0 -175 -108 -260.5t-302 -85.5q-188 0 -299 86.5zM585 229q35 39 35 119v14q0 80 -35 119t-115 39q-150 0 -150 -158v-14q0 -158 150 -158q80 0 115 39zM341.5 767.5
q-1.5 2.5 0.5 6.5l124 196l4 2h319q5 0 7 -4.5t-2 -8.5l-215 -193l-3 -1h-229q-4 0 -5.5 2.5z" />
    <glyph glyph-name="Obreve" unicode="&#x14e;" horiz-adv-x="940" 
d="M171 76.5q-111 86.5 -111 259.5v38q0 173 111 259.5t299 86.5q194 0 302 -85.5t108 -260.5v-38q0 -175 -108 -260.5t-302 -85.5q-188 0 -299 86.5zM585 229q35 39 35 119v14q0 80 -35 119t-115 39q-150 0 -150 -158v-14q0 -158 150 -158q80 0 115 39zM299.5 799
q-57.5 44 -57.5 123v23q0 5 5 5h165q5 0 5 -5v-6q0 -19 11.5 -33.5t41.5 -14.5q33 0 43 14t10 34v6q0 5 5 5h165q5 0 5 -5v-23q0 -80 -56 -123.5t-172 -43.5q-113 0 -170.5 44z" />
    <glyph glyph-name="Ocircumflex" unicode="&#xd4;" horiz-adv-x="940" 
d="M171 76.5q-111 86.5 -111 259.5v38q0 173 111 259.5t299 86.5q194 0 302 -85.5t108 -260.5v-38q0 -175 -108 -260.5t-302 -85.5q-188 0 -299 86.5zM585 229q35 39 35 119v14q0 80 -35 119t-115 39q-150 0 -150 -158v-14q0 -158 150 -158q80 0 115 39zM724 771q0 -2 -2 -4
t-5 -2h-197l-4 2l-49 45l-44 -45l-4 -2h-197q-4 0 -6 3.5t1 6.5l158 167q2 2 3 2h184q1 0 3 -2l157 -167q2 -2 2 -4z" />
    <glyph glyph-name="Odieresis" unicode="&#xd6;" horiz-adv-x="940" 
d="M171 76.5q-111 86.5 -111 259.5v38q0 173 111 259.5t299 86.5q194 0 302 -85.5t108 -260.5v-38q0 -175 -108 -260.5t-302 -85.5q-188 0 -299 86.5zM585 229q35 39 35 119v14q0 80 -35 119t-115 39q-150 0 -150 -158v-14q0 -158 150 -158q80 0 115 39zM225 765v170
q0 5 5 5h210q5 0 5 -5v-170q0 -5 -5 -5h-210q-5 0 -5 5zM495 765v170q0 5 5 5h210q5 0 5 -5v-170q0 -5 -5 -5h-210q-5 0 -5 5z" />
    <glyph glyph-name="Ograve" unicode="&#xd2;" horiz-adv-x="940" 
d="M171 76.5q-111 86.5 -111 259.5v38q0 173 111 259.5t299 86.5q194 0 302 -85.5t108 -260.5v-38q0 -175 -108 -260.5t-302 -85.5q-188 0 -299 86.5zM585 229q35 39 35 119v14q0 80 -35 119t-115 39q-150 0 -150 -158v-14q0 -158 150 -158q80 0 115 39zM353 765l-3 1
l-215 193q-2 2 -2 6q0 7 7 7h319l4 -2l124 -196q1 -1 1 -4q0 -5 -6 -5h-229z" />
    <glyph glyph-name="Ohungarumlaut" unicode="&#x150;" horiz-adv-x="940" 
d="M171 76.5q-111 86.5 -111 259.5v38q0 173 111 259.5t299 86.5q194 0 302 -85.5t108 -260.5v-38q0 -175 -108 -260.5t-302 -85.5q-188 0 -299 86.5zM585 229q35 39 35 119v14q0 80 -35 119t-115 39q-150 0 -150 -158v-14q0 -158 150 -158q80 0 115 39zM192.5 767.5
q-1.5 2.5 0.5 6.5l112 196q0 2 3 2h287q5 0 6.5 -4.5t-1.5 -8.5l-194 -193l-2 -1h-207q-3 0 -4.5 2.5zM517.5 767.5q-1.5 2.5 0.5 6.5l112 196q0 2 3 2h287q5 0 6.5 -4.5t-1.5 -8.5l-194 -193l-2 -1h-207q-3 0 -4.5 2.5z" />
    <glyph glyph-name="Omacron" unicode="&#x14c;" horiz-adv-x="940" 
d="M171 76.5q-111 86.5 -111 259.5v38q0 173 111 259.5t299 86.5q194 0 302 -85.5t108 -260.5v-38q0 -175 -108 -260.5t-302 -85.5q-188 0 -299 86.5zM585 229q35 39 35 119v14q0 80 -35 119t-115 39q-150 0 -150 -158v-14q0 -158 150 -158q80 0 115 39zM170 765v170
q0 5 5 5h590q5 0 5 -5v-170q0 -5 -5 -5h-590q-5 0 -5 5z" />
    <glyph glyph-name="uni01EA" unicode="&#x1ea;" horiz-adv-x="940" 
d="M772 634.5q108 -85.5 108 -260.5v-38q0 -130 -61 -211t-174 -113q-49 -33 -64.5 -50.5t-15.5 -30.5v-1q0 -8 6.5 -14.5t18.5 -6.5q16 0 27.5 7.5t15.5 16.5q1 3 4.5 4t5.5 -1l100 -61q4 -3 2 -7q-19 -38 -64.5 -66t-118.5 -28q-84 0 -131.5 27t-47.5 71v3q0 33 17 63
t47 52q-179 5 -283 91.5t-104 254.5v38q0 173 111 259.5t299 86.5q194 0 302 -85.5zM470 190q80 0 115 39t35 119v14q0 80 -35 119t-115 39q-150 0 -150 -158v-14q0 -158 150 -158z" />
    <glyph glyph-name="Oslash" unicode="&#xd8;" horiz-adv-x="940" 
d="M880 374v-38q0 -175 -108 -260.5t-302 -85.5q-76 0 -137 13l-43 -78q-1 -1 -2 -3t-3 -2h-213q-5 0 -2 5l89 162q-99 88 -99 249v38q0 173 111 259.5t299 86.5q69 0 123 -10l47 85q1 1 2 3t3 2h213q5 0 2 -5l-88 -160q108 -89 108 -261zM620 362q0 80 -35 119t-115 39
q-150 0 -150 -158v-14q0 -158 150 -158q80 0 115 39t35 119v14z" />
    <glyph glyph-name="Oslashacute" unicode="&#x1fe;" horiz-adv-x="940" 
d="M880 374v-38q0 -175 -108 -260.5t-302 -85.5q-76 0 -137 13l-43 -78q-1 -1 -2 -3t-3 -2h-213q-5 0 -2 5l89 162q-99 88 -99 249v38q0 173 111 259.5t299 86.5q69 0 123 -10l47 85q1 1 2 3t3 2h213q5 0 2 -5l-88 -160q108 -89 108 -261zM620 362q0 80 -35 119t-115 39
q-150 0 -150 -158v-14q0 -158 150 -158q80 0 115 39t35 119v14zM341.5 767.5q-1.5 2.5 0.5 6.5l124 196l4 2h319q5 0 7 -4.5t-2 -8.5l-215 -193l-3 -1h-229q-4 0 -5.5 2.5z" />
    <glyph glyph-name="Otilde" unicode="&#xd5;" horiz-adv-x="940" 
d="M171 76.5q-111 86.5 -111 259.5v38q0 173 111 259.5t299 86.5q194 0 302 -85.5t108 -260.5v-38q0 -175 -108 -260.5t-302 -85.5q-188 0 -299 86.5zM585 229q35 39 35 119v14q0 80 -35 119t-115 39q-150 0 -150 -158v-14q0 -158 150 -158q80 0 115 39zM205 773
q1 115 52.5 161t122.5 46q29 0 49 -5.5t46 -15.5q22 -10 39 -14.5t40 -4.5q16 0 25 10t11 25q0 2 1.5 3.5t3.5 1.5h134q5 0 5 -5q-1 -110 -53 -158.5t-121 -48.5q-27 0 -46.5 5t-48.5 16q-23 9 -40 14t-39 5q-16 0 -25.5 -10t-11.5 -25q0 -2 -1.5 -3.5t-3.5 -1.5h-134
q-5 0 -5 5z" />
    <glyph glyph-name="OE" unicode="&#x152;" horiz-adv-x="1250" 
d="M840 510v-60h335q5 0 5 -5v-180q0 -5 -5 -5h-335v-60h355q5 0 5 -5v-190q0 -5 -5 -5h-715q-200 0 -310 78.5t-110 257.5v38q0 179 110 257.5t310 78.5h715q5 0 5 -5v-190q0 -5 -5 -5h-355zM359 235.5q39 -35.5 121 -35.5h100v310h-100q-82 0 -121 -35.5t-39 -112.5v-14
q0 -77 39 -112.5z" />
    <glyph glyph-name="P" unicode="P" horiz-adv-x="860" 
d="M667 687q81 -23 122 -79t41 -154v-28q0 -94 -41 -147.5t-122.5 -76t-211.5 -22.5h-115v-175q0 -5 -5 -5h-250q-5 0 -5 5v700q0 5 5 5h370q131 0 212 -23zM570 442q0 28 -10 42.5t-34.5 20t-70.5 5.5h-115v-140h115q46 0 70.5 6t34.5 20.5t10 41.5v4z" />
    <glyph glyph-name="Thorn" unicode="&#xde;" horiz-adv-x="860" 
d="M667 597q81 -23 122 -79t41 -154v-28q0 -94 -41 -147.5t-122.5 -76t-211.5 -22.5h-115v-85q0 -5 -5 -5h-250q-5 0 -5 5v700q0 5 5 5h250q5 0 5 -5v-85h115q131 0 212 -23zM570 352q0 28 -10 42.5t-34.5 20t-70.5 5.5h-115v-140h115q46 0 70.5 6t34.5 20.5t10 41.5v4z" />
    <glyph glyph-name="Q" unicode="Q" horiz-adv-x="940" 
d="M379 -155v151q-149 19 -234 104t-85 236v38q0 173 111 259.5t299 86.5q194 0 302 -85.5t108 -260.5v-38q0 -249 -275 -314v-10q15 -3 26.5 -15.5t30.5 -41.5l73 -109q1 -2 0 -4t-3 -2h-348q-5 0 -5 5zM585 229q35 39 35 119v14q0 80 -35 119t-115 39q-150 0 -150 -158
v-14q0 -158 150 -158q80 0 115 39z" />
    <glyph glyph-name="R" unicode="R" horiz-adv-x="884" 
d="M834 0h-258q-4 0 -6 3q-5 10 -5 23v15v91q0 46 -24.5 67t-70.5 21h-130v-215q0 -5 -5 -5h-250q-5 0 -5 5v700q0 5 5 5h480q139 0 202 -42t63 -144v-18q0 -83 -38.5 -130.5t-98.5 -51.5v-10q59 -5 98 -43.5t39 -96.5v-79q0 -31 1.5 -49.5t7.5 -39.5q2 -6 -5 -6zM570 467
q0 53 -51 53h-179v-110h179q51 0 51 53v4z" />
    <glyph glyph-name="Racute" unicode="&#x154;" horiz-adv-x="884" 
d="M834 0h-258q-4 0 -6 3q-5 10 -5 23v15v91q0 46 -24.5 67t-70.5 21h-130v-215q0 -5 -5 -5h-250q-5 0 -5 5v700q0 5 5 5h480q139 0 202 -42t63 -144v-18q0 -83 -38.5 -130.5t-98.5 -51.5v-10q59 -5 98 -43.5t39 -96.5v-79q0 -31 1.5 -49.5t7.5 -39.5q2 -6 -5 -6zM570 467
q0 53 -51 53h-179v-110h179q51 0 51 53v4zM313.5 767.5q-1.5 2.5 0.5 6.5l124 196l4 2h319q5 0 7 -4.5t-2 -8.5l-215 -193l-3 -1h-229q-4 0 -5.5 2.5z" />
    <glyph glyph-name="Rcaron" unicode="&#x158;" horiz-adv-x="884" 
d="M834 0h-258q-4 0 -6 3q-5 10 -5 23v15v91q0 46 -24.5 67t-70.5 21h-130v-215q0 -5 -5 -5h-250q-5 0 -5 5v700q0 5 5 5h480q139 0 202 -42t63 -144v-18q0 -83 -38.5 -130.5t-98.5 -51.5v-10q59 -5 98 -43.5t39 -96.5v-79q0 -31 1.5 -49.5t7.5 -39.5q2 -6 -5 -6zM570 467
q0 53 -51 53h-179v-110h179q51 0 51 53v4zM695 940.5q2 -3.5 -1 -6.5l-157 -167q-2 -2 -3 -2h-184q-1 0 -3 2l-158 167q-2 2 -2 4t2 4t5 2h197l4 -2l44 -45l49 45l4 2h197q4 0 6 -3.5z" />
    <glyph glyph-name="uni0156" unicode="&#x156;" horiz-adv-x="884" 
d="M834 0h-258q-4 0 -6 3q-5 10 -5 23v15v91q0 46 -24.5 67t-70.5 21h-130v-215q0 -5 -5 -5h-250q-5 0 -5 5v700q0 5 5 5h480q139 0 202 -42t63 -144v-18q0 -83 -38.5 -130.5t-98.5 -51.5v-10q59 -5 98 -43.5t39 -96.5v-79q0 -31 1.5 -49.5t7.5 -39.5q2 -6 -5 -6zM570 467
q0 53 -51 53h-179v-110h179q51 0 51 53v4zM342 -378v69q0 4 5 4h74q15 0 20.5 5t5.5 15v25h-100q-5 0 -5 5v190q0 5 5 5h209q5 0 5 -5v-242q0 -37 -22 -56.5t-58 -19.5h-134q-5 0 -5 5z" />
    <glyph glyph-name="S" unicode="S" horiz-adv-x="880" 
d="M226.5 13q-82.5 23 -124.5 79.5t-42 156.5v17q0 5 5 5h250q5 0 5 -5v-15q0 -22 8 -37t34 -24.5t78 -9.5q50 0 75.5 4t35 14t9.5 28v6q0 21 -29.5 29t-98.5 16l-29 3q-121 14 -186.5 28.5t-111 51t-45.5 106.5v42q0 117 94.5 164.5t285.5 47.5q130 0 213 -23.5t125 -78.5
t42 -148v-17q0 -5 -5 -5h-247q-5 0 -5 5v15q0 31 -24.5 48t-98.5 17q-120 0 -120 -39v-6q0 -17 28 -24.5t98 -15.5l44 -6q112 -15 176.5 -30t109 -52.5t44.5 -105.5v-44q0 -84 -44 -132t-126.5 -68t-209.5 -20q-131 0 -213.5 23z" />
    <glyph glyph-name="Sacute" unicode="&#x15a;" horiz-adv-x="880" 
d="M226.5 13q-82.5 23 -124.5 79.5t-42 156.5v17q0 5 5 5h250q5 0 5 -5v-15q0 -22 8 -37t34 -24.5t78 -9.5q50 0 75.5 4t35 14t9.5 28v6q0 21 -29.5 29t-98.5 16l-29 3q-121 14 -186.5 28.5t-111 51t-45.5 106.5v42q0 117 94.5 164.5t285.5 47.5q130 0 213 -23.5t125 -78.5
t42 -148v-17q0 -5 -5 -5h-247q-5 0 -5 5v15q0 31 -24.5 48t-98.5 17q-120 0 -120 -39v-6q0 -17 28 -24.5t98 -15.5l44 -6q112 -15 176.5 -30t109 -52.5t44.5 -105.5v-44q0 -84 -44 -132t-126.5 -68t-209.5 -20q-131 0 -213.5 23zM311.5 767.5q-1.5 2.5 0.5 6.5l124 196l4 2
h319q5 0 7 -4.5t-2 -8.5l-215 -193l-3 -1h-229q-4 0 -5.5 2.5z" />
    <glyph glyph-name="Scaron" unicode="&#x160;" horiz-adv-x="880" 
d="M226.5 13q-82.5 23 -124.5 79.5t-42 156.5v17q0 5 5 5h250q5 0 5 -5v-15q0 -22 8 -37t34 -24.5t78 -9.5q50 0 75.5 4t35 14t9.5 28v6q0 21 -29.5 29t-98.5 16l-29 3q-121 14 -186.5 28.5t-111 51t-45.5 106.5v42q0 117 94.5 164.5t285.5 47.5q130 0 213 -23.5t125 -78.5
t42 -148v-17q0 -5 -5 -5h-247q-5 0 -5 5v15q0 31 -24.5 48t-98.5 17q-120 0 -120 -39v-6q0 -17 28 -24.5t98 -15.5l44 -6q112 -15 176.5 -30t109 -52.5t44.5 -105.5v-44q0 -84 -44 -132t-126.5 -68t-209.5 -20q-131 0 -213.5 23zM693 940.5q2 -3.5 -1 -6.5l-157 -167
q-2 -2 -3 -2h-184q-1 0 -3 2l-158 167q-2 2 -2 4t2 4t5 2h197l4 -2l44 -45l49 45l4 2h197q4 0 6 -3.5z" />
    <glyph glyph-name="Scedilla" unicode="&#x15e;" horiz-adv-x="880" 
d="M563 453v15q0 31 -24.5 48t-98.5 17q-120 0 -120 -39v-6q0 -17 28 -24.5t98 -15.5l44 -6q112 -15 176.5 -30t109 -52.5t44.5 -105.5v-44q0 -113 -79.5 -163t-239.5 -56l-6 -27h33q57 0 89.5 -29.5t32.5 -82.5v-11q0 -65 -50 -99.5t-153 -34.5q-116 0 -167.5 34t-51.5 100
v6q0 5 4 5h166q5 0 5 -5v-2q0 -8 11 -13t25 -5q15 0 25.5 6.5t10.5 21.5v9q0 25 -29 25h-97q-5 1 -3 7l24 96q-159 8 -234.5 66t-75.5 191v17q0 5 5 5h250q5 0 5 -5v-15q0 -22 8 -37t34 -24.5t78 -9.5q50 0 75.5 4t35 14t9.5 28v6q0 21 -29.5 29t-98.5 16l-29 3
q-121 14 -186.5 28.5t-111 51t-45.5 106.5v42q0 117 94.5 164.5t285.5 47.5q130 0 213 -23.5t125 -78.5t42 -148v-17q0 -5 -5 -5h-247q-5 0 -5 5z" />
    <glyph glyph-name="Scircumflex" unicode="&#x15c;" horiz-adv-x="880" 
d="M226.5 13q-82.5 23 -124.5 79.5t-42 156.5v17q0 5 5 5h250q5 0 5 -5v-15q0 -22 8 -37t34 -24.5t78 -9.5q50 0 75.5 4t35 14t9.5 28v6q0 21 -29.5 29t-98.5 16l-29 3q-121 14 -186.5 28.5t-111 51t-45.5 106.5v42q0 117 94.5 164.5t285.5 47.5q130 0 213 -23.5t125 -78.5
t42 -148v-17q0 -5 -5 -5h-247q-5 0 -5 5v15q0 31 -24.5 48t-98.5 17q-120 0 -120 -39v-6q0 -17 28 -24.5t98 -15.5l44 -6q112 -15 176.5 -30t109 -52.5t44.5 -105.5v-44q0 -84 -44 -132t-126.5 -68t-209.5 -20q-131 0 -213.5 23zM694 771q0 -2 -2 -4t-5 -2h-197l-4 2l-49 45
l-44 -45l-4 -2h-197q-4 0 -6 3.5t1 6.5l158 167q2 2 3 2h184q1 0 3 -2l157 -167q2 -2 2 -4z" />
    <glyph glyph-name="uni0218" unicode="&#x218;" horiz-adv-x="880" 
d="M226.5 13q-82.5 23 -124.5 79.5t-42 156.5v17q0 5 5 5h250q5 0 5 -5v-15q0 -22 8 -37t34 -24.5t78 -9.5q50 0 75.5 4t35 14t9.5 28v6q0 21 -29.5 29t-98.5 16l-29 3q-121 14 -186.5 28.5t-111 51t-45.5 106.5v42q0 117 94.5 164.5t285.5 47.5q130 0 213 -23.5t125 -78.5
t42 -148v-17q0 -5 -5 -5h-247q-5 0 -5 5v15q0 31 -24.5 48t-98.5 17q-120 0 -120 -39v-6q0 -17 28 -24.5t98 -15.5l44 -6q112 -15 176.5 -30t109 -52.5t44.5 -105.5v-44q0 -84 -44 -132t-126.5 -68t-209.5 -20q-131 0 -213.5 23zM330 -378v69q0 4 5 4h74q15 0 20.5 5t5.5 15
v25h-100q-5 0 -5 5v190q0 5 5 5h209q5 0 5 -5v-242q0 -37 -22 -56.5t-58 -19.5h-134q-5 0 -5 5z" />
    <glyph glyph-name="T" unicode="T" horiz-adv-x="788" 
d="M778 699v-179q0 -10 -5 -10h-249v-505q0 -5 -5 -5h-250q-5 0 -5 5v505h-249q-5 0 -5 10v179q0 11 5 11h758q5 0 5 -11z" />
    <glyph glyph-name="Tbar" unicode="&#x166;" horiz-adv-x="788" 
d="M778 699v-179q0 -10 -5 -10h-249v-115h105q5 0 5 -5v-170q0 -5 -5 -5h-105v-210q0 -5 -5 -5h-250q-5 0 -5 5v210h-105q-5 0 -5 5v170q0 5 5 5h105v115h-249q-5 0 -5 10v179q0 11 5 11h758q5 0 5 -11z" />
    <glyph glyph-name="Tcaron" unicode="&#x164;" horiz-adv-x="788" 
d="M778 699v-179q0 -10 -5 -10h-249v-505q0 -5 -5 -5h-250q-5 0 -5 5v505h-249q-5 0 -5 10v179q0 11 5 11h758q5 0 5 -11zM647 940.5q2 -3.5 -1 -6.5l-157 -167q-2 -2 -3 -2h-184q-1 0 -3 2l-158 167q-2 2 -2 4t2 4t5 2h197l4 -2l44 -45l49 45l4 2h197q4 0 6 -3.5z" />
    <glyph glyph-name="uni0162" unicode="&#x162;" horiz-adv-x="788" 
d="M778 699v-179q0 -10 -5 -10h-249v-505q0 -5 -5 -5h-62l-8 -36h33q57 0 89.5 -29.5t32.5 -82.5v-11q0 -65 -50 -99.5t-153 -34.5q-116 0 -167.5 34t-51.5 100v6q0 5 4 5h166q5 0 5 -5v-2q0 -8 11 -13t25 -5q15 0 25.5 6.5t10.5 21.5v9q0 25 -29 25h-97q-5 1 -3 7l26 104
h-57q-5 0 -5 5v505h-249q-5 0 -5 10v179q0 11 5 11h758q5 0 5 -11z" />
    <glyph glyph-name="uni021A" unicode="&#x21a;" horiz-adv-x="788" 
d="M778 699v-179q0 -10 -5 -10h-249v-505q0 -5 -5 -5h-250q-5 0 -5 5v505h-249q-5 0 -5 10v179q0 11 5 11h758q5 0 5 -11zM284 -378v69q0 4 5 4h74q15 0 20.5 5t5.5 15v25h-100q-5 0 -5 5v190q0 5 5 5h209q5 0 5 -5v-242q0 -37 -22 -56.5t-58 -19.5h-134q-5 0 -5 5z" />
    <glyph glyph-name="U" unicode="U" horiz-adv-x="900" 
d="M240 14.5q-82 24.5 -126 87t-44 174.5v429q0 5 5 5h250q5 0 5 -5v-377q0 -55 9.5 -84t35 -41.5t75.5 -12.5q55 0 80 12.5t32.5 40.5t7.5 85v377q0 5 5 5h250q5 0 5 -5v-429q0 -113 -42 -175t-123.5 -86.5t-214.5 -24.5q-128 0 -210 24.5z" />
    <glyph glyph-name="Uacute" unicode="&#xda;" horiz-adv-x="900" 
d="M240 14.5q-82 24.5 -126 87t-44 174.5v429q0 5 5 5h250q5 0 5 -5v-377q0 -55 9.5 -84t35 -41.5t75.5 -12.5q55 0 80 12.5t32.5 40.5t7.5 85v377q0 5 5 5h250q5 0 5 -5v-429q0 -113 -42 -175t-123.5 -86.5t-214.5 -24.5q-128 0 -210 24.5zM321.5 767.5q-1.5 2.5 0.5 6.5
l124 196l4 2h319q5 0 7 -4.5t-2 -8.5l-215 -193l-3 -1h-229q-4 0 -5.5 2.5z" />
    <glyph glyph-name="Ubreve" unicode="&#x16c;" horiz-adv-x="900" 
d="M240 14.5q-82 24.5 -126 87t-44 174.5v429q0 5 5 5h250q5 0 5 -5v-377q0 -55 9.5 -84t35 -41.5t75.5 -12.5q55 0 80 12.5t32.5 40.5t7.5 85v377q0 5 5 5h250q5 0 5 -5v-429q0 -113 -42 -175t-123.5 -86.5t-214.5 -24.5q-128 0 -210 24.5zM279.5 799q-57.5 44 -57.5 123
v23q0 5 5 5h165q5 0 5 -5v-6q0 -19 11.5 -33.5t41.5 -14.5q33 0 43 14t10 34v6q0 5 5 5h165q5 0 5 -5v-23q0 -80 -56 -123.5t-172 -43.5q-113 0 -170.5 44z" />
    <glyph glyph-name="Ucircumflex" unicode="&#xdb;" horiz-adv-x="900" 
d="M240 14.5q-82 24.5 -126 87t-44 174.5v429q0 5 5 5h250q5 0 5 -5v-377q0 -55 9.5 -84t35 -41.5t75.5 -12.5q55 0 80 12.5t32.5 40.5t7.5 85v377q0 5 5 5h250q5 0 5 -5v-429q0 -113 -42 -175t-123.5 -86.5t-214.5 -24.5q-128 0 -210 24.5zM704 771q0 -2 -2 -4t-5 -2h-197
l-4 2l-49 45l-44 -45l-4 -2h-197q-4 0 -6 3.5t1 6.5l158 167q2 2 3 2h184q1 0 3 -2l157 -167q2 -2 2 -4z" />
    <glyph glyph-name="Udieresis" unicode="&#xdc;" horiz-adv-x="900" 
d="M240 14.5q-82 24.5 -126 87t-44 174.5v429q0 5 5 5h250q5 0 5 -5v-377q0 -55 9.5 -84t35 -41.5t75.5 -12.5q55 0 80 12.5t32.5 40.5t7.5 85v377q0 5 5 5h250q5 0 5 -5v-429q0 -113 -42 -175t-123.5 -86.5t-214.5 -24.5q-128 0 -210 24.5zM205 765v170q0 5 5 5h210
q5 0 5 -5v-170q0 -5 -5 -5h-210q-5 0 -5 5zM475 765v170q0 5 5 5h210q5 0 5 -5v-170q0 -5 -5 -5h-210q-5 0 -5 5z" />
    <glyph glyph-name="Ugrave" unicode="&#xd9;" horiz-adv-x="900" 
d="M240 14.5q-82 24.5 -126 87t-44 174.5v429q0 5 5 5h250q5 0 5 -5v-377q0 -55 9.5 -84t35 -41.5t75.5 -12.5q55 0 80 12.5t32.5 40.5t7.5 85v377q0 5 5 5h250q5 0 5 -5v-429q0 -113 -42 -175t-123.5 -86.5t-214.5 -24.5q-128 0 -210 24.5zM333 765l-3 1l-215 193
q-2 2 -2 6q0 7 7 7h319l4 -2l124 -196q1 -1 1 -4q0 -5 -6 -5h-229z" />
    <glyph glyph-name="Uhungarumlaut" unicode="&#x170;" horiz-adv-x="900" 
d="M240 14.5q-82 24.5 -126 87t-44 174.5v429q0 5 5 5h250q5 0 5 -5v-377q0 -55 9.5 -84t35 -41.5t75.5 -12.5q55 0 80 12.5t32.5 40.5t7.5 85v377q0 5 5 5h250q5 0 5 -5v-429q0 -113 -42 -175t-123.5 -86.5t-214.5 -24.5q-128 0 -210 24.5zM172.5 767.5q-1.5 2.5 0.5 6.5
l112 196q0 2 3 2h287q5 0 6.5 -4.5t-1.5 -8.5l-194 -193l-2 -1h-207q-3 0 -4.5 2.5zM497.5 767.5q-1.5 2.5 0.5 6.5l112 196q0 2 3 2h287q5 0 6.5 -4.5t-1.5 -8.5l-194 -193l-2 -1h-207q-3 0 -4.5 2.5z" />
    <glyph glyph-name="Umacron" unicode="&#x16a;" horiz-adv-x="900" 
d="M240 14.5q-82 24.5 -126 87t-44 174.5v429q0 5 5 5h250q5 0 5 -5v-377q0 -55 9.5 -84t35 -41.5t75.5 -12.5q55 0 80 12.5t32.5 40.5t7.5 85v377q0 5 5 5h250q5 0 5 -5v-429q0 -113 -42 -175t-123.5 -86.5t-214.5 -24.5q-128 0 -210 24.5zM150 765v170q0 5 5 5h590
q5 0 5 -5v-170q0 -5 -5 -5h-590q-5 0 -5 5z" />
    <glyph glyph-name="Uogonek" unicode="&#x172;" horiz-adv-x="900" 
d="M830 705v-429q0 -124 -50.5 -187t-156.5 -85q-51 -34 -67 -52t-16 -31v-1q0 -8 6.5 -14.5t18.5 -6.5q16 0 27.5 7.5t15.5 16.5q1 3 4.5 4t5.5 -1l100 -61q4 -3 2 -7q-19 -38 -64.5 -66t-118.5 -28q-84 0 -131.5 27t-47.5 71v3q0 37 21 69.5t57 55.5q-123 1 -202.5 26.5
t-121.5 87.5t-42 172v429q0 5 5 5h250q5 0 5 -5v-377q0 -55 9.5 -84t35 -41.5t75.5 -12.5q55 0 80 12.5t32.5 40.5t7.5 85v377q0 5 5 5h250q5 0 5 -5z" />
    <glyph glyph-name="Uring" unicode="&#x16e;" horiz-adv-x="900" 
d="M240 14.5q-82 24.5 -126 87t-44 174.5v429q0 5 5 5h250q5 0 5 -5v-377q0 -55 9.5 -84t35 -41.5t75.5 -12.5q55 0 80 12.5t32.5 40.5t7.5 85v377q0 5 5 5h250q5 0 5 -5v-429q0 -113 -42 -175t-123.5 -86.5t-214.5 -24.5q-128 0 -210 24.5zM319.5 787.5
q-41.5 32.5 -41.5 100.5t41.5 100.5t130.5 32.5q88 0 130 -32.5t42 -100.5t-42 -100.5t-130 -32.5q-89 0 -130.5 32.5zM481 888q0 15 -7 23.5t-24 8.5q-18 0 -25 -8.5t-7 -23.5q0 -16 7 -23.5t25 -7.5q31 0 31 31z" />
    <glyph glyph-name="Utilde" unicode="&#x168;" horiz-adv-x="900" 
d="M240 14.5q-82 24.5 -126 87t-44 174.5v429q0 5 5 5h250q5 0 5 -5v-377q0 -55 9.5 -84t35 -41.5t75.5 -12.5q55 0 80 12.5t32.5 40.5t7.5 85v377q0 5 5 5h250q5 0 5 -5v-429q0 -113 -42 -175t-123.5 -86.5t-214.5 -24.5q-128 0 -210 24.5zM185 773q1 115 52.5 161
t122.5 46q29 0 49 -5.5t46 -15.5q22 -10 39 -14.5t40 -4.5q16 0 25 10t11 25q0 2 1.5 3.5t3.5 1.5h134q5 0 5 -5q-1 -110 -53 -158.5t-121 -48.5q-27 0 -46.5 5t-48.5 16q-23 9 -40 14t-39 5q-16 0 -25.5 -10t-11.5 -25q0 -2 -1.5 -3.5t-3.5 -1.5h-134q-5 0 -5 5z" />
    <glyph glyph-name="V" unicode="V" horiz-adv-x="830" 
d="M235 5l-230 700q-1 2 1 3.5t4 1.5h260q3 0 5 -5l59 -193q25 -79 51 -187.5t26 -150.5h10q0 42 26 152.5t50 187.5l58 191q2 5 5 5h260q2 0 4 -1.5t1 -3.5l-230 -700q-2 -5 -5 -5h-350q-3 0 -5 5z" />
    <glyph glyph-name="W" unicode="W" horiz-adv-x="1248" 
d="M225 5l-220 700q-1 2 1 3.5t4 1.5h269q3 0 5 -5l53 -193q17 -62 40.5 -183t23.5 -145h10q0 26 15 148t26 182l34 191q2 5 5 5h266q3 0 5 -5l35 -193q11 -62 26.5 -182.5t15.5 -145.5h10q0 25 23.5 147t39.5 183l52 191q2 5 5 5h269q2 0 4 -1.5t1 -3.5l-220 -700
q-2 -5 -5 -5h-325q-3 0 -5 5l-17 86q-15 76 -28 171.5t-13 151.5h-10q0 -88 -43 -323l-16 -86q-2 -5 -5 -5h-326q-3 0 -5 5z" />
    <glyph glyph-name="Wacute" unicode="&#x1e82;" horiz-adv-x="1248" 
d="M225 5l-220 700q-1 2 1 3.5t4 1.5h269q3 0 5 -5l53 -193q17 -62 40.5 -183t23.5 -145h10q0 26 15 148t26 182l34 191q2 5 5 5h266q3 0 5 -5l35 -193q11 -62 26.5 -182.5t15.5 -145.5h10q0 25 23.5 147t39.5 183l52 191q2 5 5 5h269q2 0 4 -1.5t1 -3.5l-220 -700
q-2 -5 -5 -5h-325q-3 0 -5 5l-17 86q-15 76 -28 171.5t-13 151.5h-10q0 -88 -43 -323l-16 -86q-2 -5 -5 -5h-326q-3 0 -5 5zM495.5 767.5q-1.5 2.5 0.5 6.5l124 196l4 2h319q5 0 7 -4.5t-2 -8.5l-215 -193l-3 -1h-229q-4 0 -5.5 2.5z" />
    <glyph glyph-name="Wcircumflex" unicode="&#x174;" horiz-adv-x="1248" 
d="M225 5l-220 700q-1 2 1 3.5t4 1.5h269q3 0 5 -5l53 -193q17 -62 40.5 -183t23.5 -145h10q0 26 15 148t26 182l34 191q2 5 5 5h266q3 0 5 -5l35 -193q11 -62 26.5 -182.5t15.5 -145.5h10q0 25 23.5 147t39.5 183l52 191q2 5 5 5h269q2 0 4 -1.5t1 -3.5l-220 -700
q-2 -5 -5 -5h-325q-3 0 -5 5l-17 86q-15 76 -28 171.5t-13 151.5h-10q0 -88 -43 -323l-16 -86q-2 -5 -5 -5h-326q-3 0 -5 5zM878 771q0 -2 -2 -4t-5 -2h-197l-4 2l-49 45l-44 -45l-4 -2h-197q-4 0 -6 3.5t1 6.5l158 167q2 2 3 2h184q1 0 3 -2l157 -167q2 -2 2 -4z" />
    <glyph glyph-name="Wdieresis" unicode="&#x1e84;" horiz-adv-x="1248" 
d="M225 5l-220 700q-1 2 1 3.5t4 1.5h269q3 0 5 -5l53 -193q17 -62 40.5 -183t23.5 -145h10q0 26 15 148t26 182l34 191q2 5 5 5h266q3 0 5 -5l35 -193q11 -62 26.5 -182.5t15.5 -145.5h10q0 25 23.5 147t39.5 183l52 191q2 5 5 5h269q2 0 4 -1.5t1 -3.5l-220 -700
q-2 -5 -5 -5h-325q-3 0 -5 5l-17 86q-15 76 -28 171.5t-13 151.5h-10q0 -88 -43 -323l-16 -86q-2 -5 -5 -5h-326q-3 0 -5 5zM379 765v170q0 5 5 5h210q5 0 5 -5v-170q0 -5 -5 -5h-210q-5 0 -5 5zM649 765v170q0 5 5 5h210q5 0 5 -5v-170q0 -5 -5 -5h-210q-5 0 -5 5z" />
    <glyph glyph-name="Wgrave" unicode="&#x1e80;" horiz-adv-x="1248" 
d="M225 5l-220 700q-1 2 1 3.5t4 1.5h269q3 0 5 -5l53 -193q17 -62 40.5 -183t23.5 -145h10q0 26 15 148t26 182l34 191q2 5 5 5h266q3 0 5 -5l35 -193q11 -62 26.5 -182.5t15.5 -145.5h10q0 25 23.5 147t39.5 183l52 191q2 5 5 5h269q2 0 4 -1.5t1 -3.5l-220 -700
q-2 -5 -5 -5h-325q-3 0 -5 5l-17 86q-15 76 -28 171.5t-13 151.5h-10q0 -88 -43 -323l-16 -86q-2 -5 -5 -5h-326q-3 0 -5 5zM507 765l-3 1l-215 193q-2 2 -2 6q0 7 7 7h319l4 -2l124 -196q1 -1 1 -4q0 -5 -6 -5h-229z" />
    <glyph glyph-name="X" unicode="X" horiz-adv-x="852" 
d="M7 1.5q-2 1.5 -1 3.5l245 350l-245 350q-1 2 1 3.5t4 1.5h310q4 0 7 -5l42 -65q19 -29 36 -73.5t17 -80.5h8q0 37 15.5 81t35.5 74l42 64q3 5 7 5h310q2 0 4 -1.5t1 -3.5l-245 -350l245 -350q1 -2 -1 -3.5t-4 -1.5h-310q-4 0 -7 5l-42 64q-20 30 -35.5 74t-15.5 81h-8
q0 -36 -17 -80.5t-36 -73.5l-42 -65q-3 -5 -7 -5h-310q-2 0 -4 1.5z" />
    <glyph glyph-name="Y" unicode="Y" horiz-adv-x="822" 
d="M820 708.5q2 -1.5 1 -3.5l-280 -528v-172q0 -5 -5 -5h-250q-5 0 -5 5v171l-280 529q-1 2 1 3.5t4 1.5h270q3 0 5 -5l67 -136q21 -43 40 -103.5t19 -91.5h10q0 31 19 93t39 104l66 134q2 5 5 5h270q2 0 4 -1.5z" />
    <glyph glyph-name="Yacute" unicode="&#xdd;" horiz-adv-x="822" 
d="M820 708.5q2 -1.5 1 -3.5l-280 -528v-172q0 -5 -5 -5h-250q-5 0 -5 5v171l-280 529q-1 2 1 3.5t4 1.5h270q3 0 5 -5l67 -136q21 -43 40 -103.5t19 -91.5h10q0 31 19 93t39 104l66 134q2 5 5 5h270q2 0 4 -1.5zM282.5 767.5q-1.5 2.5 0.5 6.5l124 196l4 2h319q5 0 7 -4.5
t-2 -8.5l-215 -193l-3 -1h-229q-4 0 -5.5 2.5z" />
    <glyph glyph-name="Ycircumflex" unicode="&#x176;" horiz-adv-x="822" 
d="M820 708.5q2 -1.5 1 -3.5l-280 -528v-172q0 -5 -5 -5h-250q-5 0 -5 5v171l-280 529q-1 2 1 3.5t4 1.5h270q3 0 5 -5l67 -136q21 -43 40 -103.5t19 -91.5h10q0 31 19 93t39 104l66 134q2 5 5 5h270q2 0 4 -1.5zM665 771q0 -2 -2 -4t-5 -2h-197l-4 2l-49 45l-44 -45l-4 -2
h-197q-4 0 -6 3.5t1 6.5l158 167q2 2 3 2h184q1 0 3 -2l157 -167q2 -2 2 -4z" />
    <glyph glyph-name="Ydieresis" unicode="&#x178;" horiz-adv-x="822" 
d="M820 708.5q2 -1.5 1 -3.5l-280 -528v-172q0 -5 -5 -5h-250q-5 0 -5 5v171l-280 529q-1 2 1 3.5t4 1.5h270q3 0 5 -5l67 -136q21 -43 40 -103.5t19 -91.5h10q0 31 19 93t39 104l66 134q2 5 5 5h270q2 0 4 -1.5zM166 765v170q0 5 5 5h210q5 0 5 -5v-170q0 -5 -5 -5h-210
q-5 0 -5 5zM436 765v170q0 5 5 5h210q5 0 5 -5v-170q0 -5 -5 -5h-210q-5 0 -5 5z" />
    <glyph glyph-name="Ygrave" unicode="&#x1ef2;" horiz-adv-x="822" 
d="M820 708.5q2 -1.5 1 -3.5l-280 -528v-172q0 -5 -5 -5h-250q-5 0 -5 5v171l-280 529q-1 2 1 3.5t4 1.5h270q3 0 5 -5l67 -136q21 -43 40 -103.5t19 -91.5h10q0 31 19 93t39 104l66 134q2 5 5 5h270q2 0 4 -1.5zM294 765l-3 1l-215 193q-2 2 -2 6q0 7 7 7h319l4 -2
l124 -196q1 -1 1 -4q0 -5 -6 -5h-229z" />
    <glyph glyph-name="Z" unicode="Z" horiz-adv-x="748" 
d="M718 189v-179q0 -10 -5 -10h-678q-5 0 -5 10v169q0 7 4 11l329 320h-328q-5 0 -5 10v179q0 11 5 11h668q5 0 5 -11v-169q0 -7 -4 -10l-326 -320h335q5 0 5 -11z" />
    <glyph glyph-name="Zacute" unicode="&#x179;" horiz-adv-x="748" 
d="M718 189v-179q0 -10 -5 -10h-678q-5 0 -5 10v169q0 7 4 11l329 320h-328q-5 0 -5 10v179q0 11 5 11h668q5 0 5 -11v-169q0 -7 -4 -10l-326 -320h335q5 0 5 -11zM245.5 767.5q-1.5 2.5 0.5 6.5l124 196l4 2h319q5 0 7 -4.5t-2 -8.5l-215 -193l-3 -1h-229q-4 0 -5.5 2.5z
" />
    <glyph glyph-name="Zcaron" unicode="&#x17d;" horiz-adv-x="748" 
d="M718 189v-179q0 -10 -5 -10h-678q-5 0 -5 10v169q0 7 4 11l329 320h-328q-5 0 -5 10v179q0 11 5 11h668q5 0 5 -11v-169q0 -7 -4 -10l-326 -320h335q5 0 5 -11zM627 940.5q2 -3.5 -1 -6.5l-157 -167q-2 -2 -3 -2h-184q-1 0 -3 2l-158 167q-2 2 -2 4t2 4t5 2h197l4 -2
l44 -45l49 45l4 2h197q4 0 6 -3.5z" />
    <glyph glyph-name="Zdotaccent" unicode="&#x17b;" horiz-adv-x="748" 
d="M718 189v-179q0 -10 -5 -10h-678q-5 0 -5 10v169q0 7 4 11l329 320h-328q-5 0 -5 10v179q0 11 5 11h668q5 0 5 -11v-169q0 -7 -4 -10l-326 -320h335q5 0 5 -11zM249 765v170q0 5 5 5h240q5 0 5 -5v-170q0 -5 -5 -5h-240q-5 0 -5 5z" />
    <glyph glyph-name="a" unicode="a" horiz-adv-x="773" 
d="M753 175v-170q0 -5 -5 -5h-158q-63 0 -94 19.5t-35 65.5h-11q-17 -37 -62.5 -66t-136.5 -29q-107 0 -159 37.5t-52 113.5v8q0 45 15.5 74t55.5 45.5t112 20.5l150 10q52 3 69.5 7.5t17.5 15.5v2q0 18 -18.5 24.5t-66.5 6.5q-45 0 -62.5 -7t-17.5 -23v-8q0 -2 -1.5 -3.5
t-3.5 -1.5h-240q-5 0 -5 5v7q0 97 80.5 146.5t249.5 49.5q179 0 257 -62t78 -189v-71q0 -12 2.5 -15t13.5 -3h22q5 0 5 -5zM429.5 162q26.5 18 30.5 53q-13 -9 -57 -12l-56 -4q-32 -2 -42.5 -8t-10.5 -20v-3q0 -14 13 -19t42 -5q54 0 80.5 18z" />
    <glyph glyph-name="aacute" unicode="&#xe1;" horiz-adv-x="773" 
d="M753 175v-170q0 -5 -5 -5h-158q-63 0 -94 19.5t-35 65.5h-11q-17 -37 -62.5 -66t-136.5 -29q-107 0 -159 37.5t-52 113.5v8q0 45 15.5 74t55.5 45.5t112 20.5l150 10q52 3 69.5 7.5t17.5 15.5v2q0 18 -18.5 24.5t-66.5 6.5q-45 0 -62.5 -7t-17.5 -23v-8q0 -2 -1.5 -3.5
t-3.5 -1.5h-240q-5 0 -5 5v7q0 97 80.5 146.5t249.5 49.5q179 0 257 -62t78 -189v-71q0 -12 2.5 -15t13.5 -3h22q5 0 5 -5zM429.5 162q26.5 18 30.5 53q-13 -9 -57 -12l-56 -4q-32 -2 -42.5 -8t-10.5 -20v-3q0 -14 13 -19t42 -5q54 0 80.5 18zM258.5 567.5q-1.5 2.5 0.5 6.5
l124 196l4 2h319q5 0 7 -4.5t-2 -8.5l-215 -193l-3 -1h-229q-4 0 -5.5 2.5z" />
    <glyph glyph-name="abreve" unicode="&#x103;" horiz-adv-x="773" 
d="M753 175v-170q0 -5 -5 -5h-158q-63 0 -94 19.5t-35 65.5h-11q-17 -37 -62.5 -66t-136.5 -29q-107 0 -159 37.5t-52 113.5v8q0 45 15.5 74t55.5 45.5t112 20.5l150 10q52 3 69.5 7.5t17.5 15.5v2q0 18 -18.5 24.5t-66.5 6.5q-45 0 -62.5 -7t-17.5 -23v-8q0 -2 -1.5 -3.5
t-3.5 -1.5h-240q-5 0 -5 5v7q0 97 80.5 146.5t249.5 49.5q179 0 257 -62t78 -189v-71q0 -12 2.5 -15t13.5 -3h22q5 0 5 -5zM429.5 162q26.5 18 30.5 53q-13 -9 -57 -12l-56 -4q-32 -2 -42.5 -8t-10.5 -20v-3q0 -14 13 -19t42 -5q54 0 80.5 18zM216.5 599q-57.5 44 -57.5 123
v23q0 5 5 5h165q5 0 5 -5v-6q0 -19 11.5 -33.5t41.5 -14.5q33 0 43 14t10 34v6q0 5 5 5h165q5 0 5 -5v-23q0 -80 -56 -123.5t-172 -43.5q-113 0 -170.5 44z" />
    <glyph glyph-name="acircumflex" unicode="&#xe2;" horiz-adv-x="773" 
d="M753 175v-170q0 -5 -5 -5h-158q-63 0 -94 19.5t-35 65.5h-11q-17 -37 -62.5 -66t-136.5 -29q-107 0 -159 37.5t-52 113.5v8q0 45 15.5 74t55.5 45.5t112 20.5l150 10q52 3 69.5 7.5t17.5 15.5v2q0 18 -18.5 24.5t-66.5 6.5q-45 0 -62.5 -7t-17.5 -23v-8q0 -2 -1.5 -3.5
t-3.5 -1.5h-240q-5 0 -5 5v7q0 97 80.5 146.5t249.5 49.5q179 0 257 -62t78 -189v-71q0 -12 2.5 -15t13.5 -3h22q5 0 5 -5zM429.5 162q26.5 18 30.5 53q-13 -9 -57 -12l-56 -4q-32 -2 -42.5 -8t-10.5 -20v-3q0 -14 13 -19t42 -5q54 0 80.5 18zM641 571q0 -2 -2 -4t-5 -2
h-197l-4 2l-49 45l-44 -45l-4 -2h-197q-4 0 -6 3.5t1 6.5l158 167q2 2 3 2h184q1 0 3 -2l157 -167q2 -2 2 -4z" />
    <glyph glyph-name="adieresis" unicode="&#xe4;" horiz-adv-x="773" 
d="M753 175v-170q0 -5 -5 -5h-158q-63 0 -94 19.5t-35 65.5h-11q-17 -37 -62.5 -66t-136.5 -29q-107 0 -159 37.5t-52 113.5v8q0 45 15.5 74t55.5 45.5t112 20.5l150 10q52 3 69.5 7.5t17.5 15.5v2q0 18 -18.5 24.5t-66.5 6.5q-45 0 -62.5 -7t-17.5 -23v-8q0 -2 -1.5 -3.5
t-3.5 -1.5h-240q-5 0 -5 5v7q0 97 80.5 146.5t249.5 49.5q179 0 257 -62t78 -189v-71q0 -12 2.5 -15t13.5 -3h22q5 0 5 -5zM429.5 162q26.5 18 30.5 53q-13 -9 -57 -12l-56 -4q-32 -2 -42.5 -8t-10.5 -20v-3q0 -14 13 -19t42 -5q54 0 80.5 18zM142 565v170q0 5 5 5h210
q5 0 5 -5v-170q0 -5 -5 -5h-210q-5 0 -5 5zM412 565v170q0 5 5 5h210q5 0 5 -5v-170q0 -5 -5 -5h-210q-5 0 -5 5z" />
    <glyph glyph-name="agrave" unicode="&#xe0;" horiz-adv-x="773" 
d="M753 175v-170q0 -5 -5 -5h-158q-63 0 -94 19.5t-35 65.5h-11q-17 -37 -62.5 -66t-136.5 -29q-107 0 -159 37.5t-52 113.5v8q0 45 15.5 74t55.5 45.5t112 20.5l150 10q52 3 69.5 7.5t17.5 15.5v2q0 18 -18.5 24.5t-66.5 6.5q-45 0 -62.5 -7t-17.5 -23v-8q0 -2 -1.5 -3.5
t-3.5 -1.5h-240q-5 0 -5 5v7q0 97 80.5 146.5t249.5 49.5q179 0 257 -62t78 -189v-71q0 -12 2.5 -15t13.5 -3h22q5 0 5 -5zM429.5 162q26.5 18 30.5 53q-13 -9 -57 -12l-56 -4q-32 -2 -42.5 -8t-10.5 -20v-3q0 -14 13 -19t42 -5q54 0 80.5 18zM270 565l-3 1l-215 193
q-2 2 -2 6q0 7 7 7h319l4 -2l124 -196q1 -1 1 -4q0 -5 -6 -5h-229z" />
    <glyph glyph-name="amacron" unicode="&#x101;" horiz-adv-x="773" 
d="M753 175v-170q0 -5 -5 -5h-158q-63 0 -94 19.5t-35 65.5h-11q-17 -37 -62.5 -66t-136.5 -29q-107 0 -159 37.5t-52 113.5v8q0 45 15.5 74t55.5 45.5t112 20.5l150 10q52 3 69.5 7.5t17.5 15.5v2q0 18 -18.5 24.5t-66.5 6.5q-45 0 -62.5 -7t-17.5 -23v-8q0 -2 -1.5 -3.5
t-3.5 -1.5h-240q-5 0 -5 5v7q0 97 80.5 146.5t249.5 49.5q179 0 257 -62t78 -189v-71q0 -12 2.5 -15t13.5 -3h22q5 0 5 -5zM429.5 162q26.5 18 30.5 53q-13 -9 -57 -12l-56 -4q-32 -2 -42.5 -8t-10.5 -20v-3q0 -14 13 -19t42 -5q54 0 80.5 18zM87 565v170q0 5 5 5h590
q5 0 5 -5v-170q0 -5 -5 -5h-590q-5 0 -5 5z" />
    <glyph glyph-name="aogonek" unicode="&#x105;" horiz-adv-x="773" 
d="M806 -142q-19 -38 -64.5 -66t-118.5 -28q-84 0 -131.5 27t-47.5 71v3q0 42 27.5 79t73.5 59q-40 6 -60.5 26t-23.5 56h-11q-17 -37 -62.5 -66t-136.5 -29q-107 0 -159 37.5t-52 113.5v8q0 45 15.5 74t55.5 45.5t112 20.5l150 10q52 3 69.5 7.5t17.5 15.5v2
q0 18 -18.5 24.5t-66.5 6.5q-45 0 -62.5 -7t-17.5 -23v-8q0 -2 -1.5 -3.5t-3.5 -1.5h-240q-5 0 -5 5v7q0 97 80.5 146.5t249.5 49.5q179 0 257 -62t78 -189v-71q0 -12 2.5 -15t13.5 -3h22q5 0 5 -5v-170q0 -5 -5 -5h-45q-47 -32 -62 -49t-15 -30v-1q0 -8 6.5 -14.5
t18.5 -6.5q16 0 27.5 7.5t15.5 16.5q1 3 4.5 4t5.5 -1l100 -61q4 -3 2 -7zM429.5 162q26.5 18 30.5 53q-13 -9 -57 -12l-56 -4q-32 -2 -42.5 -8t-10.5 -20v-3q0 -14 13 -19t42 -5q54 0 80.5 18z" />
    <glyph glyph-name="aring" unicode="&#xe5;" horiz-adv-x="773" 
d="M753 175v-170q0 -5 -5 -5h-158q-63 0 -94 19.5t-35 65.5h-11q-17 -37 -62.5 -66t-136.5 -29q-107 0 -159 37.5t-52 113.5v8q0 45 15.5 74t55.5 45.5t112 20.5l150 10q52 3 69.5 7.5t17.5 15.5v2q0 18 -18.5 24.5t-66.5 6.5q-45 0 -62.5 -7t-17.5 -23v-8q0 -2 -1.5 -3.5
t-3.5 -1.5h-240q-5 0 -5 5v7q0 97 80.5 146.5t249.5 49.5q179 0 257 -62t78 -189v-71q0 -12 2.5 -15t13.5 -3h22q5 0 5 -5zM429.5 162q26.5 18 30.5 53q-13 -9 -57 -12l-56 -4q-32 -2 -42.5 -8t-10.5 -20v-3q0 -14 13 -19t42 -5q54 0 80.5 18zM256.5 587.5
q-41.5 32.5 -41.5 100.5t41.5 100.5t130.5 32.5q88 0 130 -32.5t42 -100.5t-42 -100.5t-130 -32.5q-89 0 -130.5 32.5zM418 688q0 15 -7 23.5t-24 8.5q-18 0 -25 -8.5t-7 -23.5q0 -16 7 -23.5t25 -7.5q31 0 31 31z" />
    <glyph glyph-name="atilde" unicode="&#xe3;" horiz-adv-x="773" 
d="M753 175v-170q0 -5 -5 -5h-158q-63 0 -94 19.5t-35 65.5h-11q-17 -37 -62.5 -66t-136.5 -29q-107 0 -159 37.5t-52 113.5v8q0 45 15.5 74t55.5 45.5t112 20.5l150 10q52 3 69.5 7.5t17.5 15.5v2q0 18 -18.5 24.5t-66.5 6.5q-45 0 -62.5 -7t-17.5 -23v-8q0 -2 -1.5 -3.5
t-3.5 -1.5h-240q-5 0 -5 5v7q0 97 80.5 146.5t249.5 49.5q179 0 257 -62t78 -189v-71q0 -12 2.5 -15t13.5 -3h22q5 0 5 -5zM429.5 162q26.5 18 30.5 53q-13 -9 -57 -12l-56 -4q-32 -2 -42.5 -8t-10.5 -20v-3q0 -14 13 -19t42 -5q54 0 80.5 18zM122 573q1 115 52.5 161
t122.5 46q29 0 49 -5.5t46 -15.5q22 -10 39 -14.5t40 -4.5q16 0 25 10t11 25q0 2 1.5 3.5t3.5 1.5h134q5 0 5 -5q-1 -110 -53 -158.5t-121 -48.5q-27 0 -46.5 5t-48.5 16q-23 9 -40 14t-39 5q-16 0 -25.5 -10t-11.5 -25q0 -2 -1.5 -3.5t-3.5 -1.5h-134q-5 0 -5 5z" />
    <glyph glyph-name="ae" unicode="&#xe6;" horiz-adv-x="1170" 
d="M1130 295v-68q0 -7 -5 -7h-413q5 -37 26 -54.5t62 -17.5q43 0 61.5 12t18.5 27v2q0 5 5 5h240q5 0 5 -5v-13q0 -52 -32.5 -94t-101 -67t-171.5 -25q-121 0 -188.5 26.5t-97.5 78.5h-13q-13 -27 -33 -48.5t-73.5 -39t-147.5 -17.5q-121 0 -176.5 37t-55.5 114v8
q0 45 15.5 73.5t55.5 45t112 21.5l150 10q52 3 69.5 7.5t17.5 15.5v2q0 19 -19 27.5t-66 8.5q-42 0 -61 -10.5t-19 -24.5v-8q0 -2 -1.5 -3.5t-3.5 -1.5h-240q-5 0 -5 5v7q0 97 80.5 146.5t249.5 49.5q152 0 221 -60q28 30 79 45t130 15q165 0 244 -60t81 -164v-1zM741 345.5
q-21 -14.5 -28 -46.5l167 1v2q0 58 -80 58q-38 0 -59 -14.5zM429.5 162q26.5 18 30.5 53q-13 -9 -57 -12l-56 -4q-32 -2 -42.5 -8t-10.5 -20v-3q0 -14 13 -19t42 -5q54 0 80.5 18z" />
    <glyph glyph-name="aeacute" unicode="&#x1fd;" horiz-adv-x="1170" 
d="M1130 295v-68q0 -7 -5 -7h-413q5 -37 26 -54.5t62 -17.5q43 0 61.5 12t18.5 27v2q0 5 5 5h240q5 0 5 -5v-13q0 -52 -32.5 -94t-101 -67t-171.5 -25q-121 0 -188.5 26.5t-97.5 78.5h-13q-13 -27 -33 -48.5t-73.5 -39t-147.5 -17.5q-121 0 -176.5 37t-55.5 114v8
q0 45 15.5 73.5t55.5 45t112 21.5l150 10q52 3 69.5 7.5t17.5 15.5v2q0 19 -19 27.5t-66 8.5q-42 0 -61 -10.5t-19 -24.5v-8q0 -2 -1.5 -3.5t-3.5 -1.5h-240q-5 0 -5 5v7q0 97 80.5 146.5t249.5 49.5q152 0 221 -60q28 30 79 45t130 15q165 0 244 -60t81 -164v-1zM741 345.5
q-21 -14.5 -28 -46.5l167 1v2q0 58 -80 58q-38 0 -59 -14.5zM429.5 162q26.5 18 30.5 53q-13 -9 -57 -12l-56 -4q-32 -2 -42.5 -8t-10.5 -20v-3q0 -14 13 -19t42 -5q54 0 80.5 18zM476.5 567.5q-1.5 2.5 0.5 6.5l124 196l4 2h319q5 0 7 -4.5t-2 -8.5l-215 -193l-3 -1h-229
q-4 0 -5.5 2.5z" />
    <glyph glyph-name="b" unicode="b" 
d="M683 456.5q56 -63.5 56 -173.5v-36q0 -114 -58 -185.5t-177 -71.5q-88 0 -131 29t-61 66h-17l-25 -80q-2 -5 -5 -5h-200q-5 0 -5 5v700q0 5 5 5h240q5 0 5 -5v-280h12q45 95 197 95q108 0 164 -63.5zM490 264q0 35 -23.5 55.5t-65.5 20.5q-45 0 -68 -21t-23 -61v-6
q0 -40 23 -61t68 -21q43 0 66 22t23 64v8z" />
    <glyph glyph-name="c" unicode="c" horiz-adv-x="755" 
d="M122.5 50.5q-82.5 60.5 -82.5 190.5v13q0 140 81.5 203t253.5 63t253.5 -54.5t81.5 -176.5v-2q0 -5 -5 -5h-240q-5 0 -5 5v5q0 19 -18.5 33.5t-63.5 14.5q-49 0 -68.5 -22.5t-19.5 -60.5v-4q0 -38 19.5 -60.5t68.5 -22.5q45 0 63.5 14.5t18.5 33.5v1q0 5 5 5h240
q5 0 5 -5v-13q0 -112 -82.5 -164t-252.5 -52t-252.5 60.5z" />
    <glyph glyph-name="cacute" unicode="&#x107;" horiz-adv-x="755" 
d="M122.5 50.5q-82.5 60.5 -82.5 190.5v13q0 140 81.5 203t253.5 63t253.5 -54.5t81.5 -176.5v-2q0 -5 -5 -5h-240q-5 0 -5 5v5q0 19 -18.5 33.5t-63.5 14.5q-49 0 -68.5 -22.5t-19.5 -60.5v-4q0 -38 19.5 -60.5t68.5 -22.5q45 0 63.5 14.5t18.5 33.5v1q0 5 5 5h240
q5 0 5 -5v-13q0 -112 -82.5 -164t-252.5 -52t-252.5 60.5zM249.5 567.5q-1.5 2.5 0.5 6.5l124 196l4 2h319q5 0 7 -4.5t-2 -8.5l-215 -193l-3 -1h-229q-4 0 -5.5 2.5z" />
    <glyph glyph-name="ccaron" unicode="&#x10d;" horiz-adv-x="755" 
d="M122.5 50.5q-82.5 60.5 -82.5 190.5v13q0 140 81.5 203t253.5 63t253.5 -54.5t81.5 -176.5v-2q0 -5 -5 -5h-240q-5 0 -5 5v5q0 19 -18.5 33.5t-63.5 14.5q-49 0 -68.5 -22.5t-19.5 -60.5v-4q0 -38 19.5 -60.5t68.5 -22.5q45 0 63.5 14.5t18.5 33.5v1q0 5 5 5h240
q5 0 5 -5v-13q0 -112 -82.5 -164t-252.5 -52t-252.5 60.5zM631 740.5q2 -3.5 -1 -6.5l-157 -167q-2 -2 -3 -2h-184q-1 0 -3 2l-158 167q-2 2 -2 4t2 4t5 2h197l4 -2l44 -45l49 45l4 2h197q4 0 6 -3.5z" />
    <glyph glyph-name="ccedilla" unicode="&#xe7;" horiz-adv-x="755" 
d="M460 287v5q0 19 -18.5 33.5t-63.5 14.5q-49 0 -68.5 -22.5t-19.5 -60.5v-4q0 -38 19.5 -60.5t68.5 -22.5q45 0 63.5 14.5t18.5 33.5v1q0 5 5 5h240q5 0 5 -5v-13q0 -101 -67 -153t-204 -61l-6 -28h33q57 0 89.5 -29.5t32.5 -82.5v-11q0 -65 -50 -99.5t-153 -34.5
q-116 0 -167.5 34t-51.5 100v6q0 5 4 5h166q5 0 5 -5v-2q0 -8 11 -13t25 -5q15 0 25.5 6.5t10.5 21.5v9q0 25 -29 25h-97q-5 1 -3 7l24 97q-136 11 -202 71t-66 177v13q0 140 81.5 203t253.5 63t253.5 -54.5t81.5 -176.5v-2q0 -5 -5 -5h-240q-5 0 -5 5z" />
    <glyph glyph-name="ccircumflex" unicode="&#x109;" horiz-adv-x="755" 
d="M122.5 50.5q-82.5 60.5 -82.5 190.5v13q0 140 81.5 203t253.5 63t253.5 -54.5t81.5 -176.5v-2q0 -5 -5 -5h-240q-5 0 -5 5v5q0 19 -18.5 33.5t-63.5 14.5q-49 0 -68.5 -22.5t-19.5 -60.5v-4q0 -38 19.5 -60.5t68.5 -22.5q45 0 63.5 14.5t18.5 33.5v1q0 5 5 5h240
q5 0 5 -5v-13q0 -112 -82.5 -164t-252.5 -52t-252.5 60.5zM632 571q0 -2 -2 -4t-5 -2h-197l-4 2l-49 45l-44 -45l-4 -2h-197q-4 0 -6 3.5t1 6.5l158 167q2 2 3 2h184q1 0 3 -2l157 -167q2 -2 2 -4z" />
    <glyph glyph-name="cdotaccent" unicode="&#x10b;" horiz-adv-x="755" 
d="M122.5 50.5q-82.5 60.5 -82.5 190.5v13q0 140 81.5 203t253.5 63t253.5 -54.5t81.5 -176.5v-2q0 -5 -5 -5h-240q-5 0 -5 5v5q0 19 -18.5 33.5t-63.5 14.5q-49 0 -68.5 -22.5t-19.5 -60.5v-4q0 -38 19.5 -60.5t68.5 -22.5q45 0 63.5 14.5t18.5 33.5v1q0 5 5 5h240
q5 0 5 -5v-13q0 -112 -82.5 -164t-252.5 -52t-252.5 60.5zM253 565v170q0 5 5 5h240q5 0 5 -5v-170q0 -5 -5 -5h-240q-5 0 -5 5z" />
    <glyph glyph-name="d" unicode="d" 
d="M719 705v-700q0 -5 -5 -5h-240q-5 0 -5 5v80h-12q-45 -95 -197 -95q-107 0 -163.5 68t-56.5 179v26q0 114 58 185.5t177 71.5q87 0 125 -27.5t57 -67.5h12v280q0 5 5 5h240q5 0 5 -5zM446 191q23 21 23 61v6q0 40 -23 61t-68 21q-43 0 -66 -22t-23 -64v-8
q0 -35 23.5 -55.5t65.5 -20.5q45 0 68 21z" />
    <glyph glyph-name="eth" unicode="&#xf0;" horiz-adv-x="760" 
d="M720 274v-13q0 -77 -39 -138.5t-115.5 -97t-185.5 -35.5q-165 0 -252.5 62t-87.5 169v13q0 115 68.5 165.5t178.5 50.5t166 -49q-27 51 -71 103l-102 -37q-2 -1 -3.5 0t-2.5 3l-48 108q-2 5 1 6l60 22l-101 99q-1 1 1 3t4 2h270q3 0 8 -5l29 -24l111 40q5 0 6 -3l48 -108
q2 -5 -2 -6l-67 -24q126 -157 126 -306zM470 227q0 32 -19 47.5t-71 15.5t-71 -15.5t-19 -47.5v-4q0 -32 19 -47.5t71 -15.5t71 15.5t19 47.5v4z" />
    <glyph glyph-name="dcaron" unicode="&#x10f;" horiz-adv-x="999" 
d="M719 705v-700q0 -5 -5 -5h-240q-5 0 -5 5v80h-12q-45 -95 -197 -95q-107 0 -163.5 68t-56.5 179v26q0 114 58 185.5t177 71.5q87 0 125 -27.5t57 -67.5h12v280q0 5 5 5h240q5 0 5 -5zM446 191q23 21 23 61v6q0 40 -23 61t-68 21q-43 0 -66 -22t-23 -64v-8
q0 -35 23.5 -55.5t65.5 -20.5q45 0 68 21zM769 359v76q0 5 5 5h81q17 0 23 5t6 17v27h-110q-5 0 -5 5v210q0 5 5 5h230q5 0 5 -5v-267q0 -41 -24 -62t-64 -21h-147q-5 0 -5 5z" />
    <glyph glyph-name="dcroat" unicode="&#x111;" 
d="M781 649v-136q0 -4 -4 -4h-58v-504q0 -5 -5 -5h-240q-5 0 -5 5v80h-12q-45 -95 -197 -95q-107 0 -163.5 68t-56.5 179v26q0 114 58 185.5t177 71.5q87 0 125 -27.5t57 -67.5h12v84h-92q-4 0 -4 4v136q0 4 4 4h92v52q0 5 5 5h240q5 0 5 -5v-52h58q4 0 4 -4zM446 191
q23 21 23 61v6q0 40 -23 61t-68 21q-43 0 -66 -22t-23 -64v-8q0 -35 23.5 -55.5t65.5 -20.5q45 0 68 21z" />
    <glyph glyph-name="e" unicode="e" horiz-adv-x="750" 
d="M710 295v-68q0 -7 -5 -7h-413q5 -37 28 -53.5t71 -16.5q36 0 52.5 11.5t16.5 25.5v2q0 5 5 5h240q5 0 5 -5v-13q0 -82 -81 -134t-254 -52q-177 0 -256 65.5t-79 190.5v3q0 136 78.5 203.5t256.5 67.5q172 0 252.5 -59.5t82.5 -164.5v-1zM321 345.5q-21 -14.5 -28 -46.5
l167 1v2q0 58 -80 58q-38 0 -59 -14.5z" />
    <glyph glyph-name="eacute" unicode="&#xe9;" horiz-adv-x="750" 
d="M710 295v-68q0 -7 -5 -7h-413q5 -37 28 -53.5t71 -16.5q36 0 52.5 11.5t16.5 25.5v2q0 5 5 5h240q5 0 5 -5v-13q0 -82 -81 -134t-254 -52q-177 0 -256 65.5t-79 190.5v3q0 136 78.5 203.5t256.5 67.5q172 0 252.5 -59.5t82.5 -164.5v-1zM321 345.5q-21 -14.5 -28 -46.5
l167 1v2q0 58 -80 58q-38 0 -59 -14.5zM246.5 567.5q-1.5 2.5 0.5 6.5l124 196l4 2h319q5 0 7 -4.5t-2 -8.5l-215 -193l-3 -1h-229q-4 0 -5.5 2.5z" />
    <glyph glyph-name="ebreve" unicode="&#x115;" horiz-adv-x="750" 
d="M710 295v-68q0 -7 -5 -7h-413q5 -37 28 -53.5t71 -16.5q36 0 52.5 11.5t16.5 25.5v2q0 5 5 5h240q5 0 5 -5v-13q0 -82 -81 -134t-254 -52q-177 0 -256 65.5t-79 190.5v3q0 136 78.5 203.5t256.5 67.5q172 0 252.5 -59.5t82.5 -164.5v-1zM321 345.5q-21 -14.5 -28 -46.5
l167 1v2q0 58 -80 58q-38 0 -59 -14.5zM204.5 599q-57.5 44 -57.5 123v23q0 5 5 5h165q5 0 5 -5v-6q0 -19 11.5 -33.5t41.5 -14.5q33 0 43 14t10 34v6q0 5 5 5h165q5 0 5 -5v-23q0 -80 -56 -123.5t-172 -43.5q-113 0 -170.5 44z" />
    <glyph glyph-name="ecaron" unicode="&#x11b;" horiz-adv-x="750" 
d="M710 295v-68q0 -7 -5 -7h-413q5 -37 28 -53.5t71 -16.5q36 0 52.5 11.5t16.5 25.5v2q0 5 5 5h240q5 0 5 -5v-13q0 -82 -81 -134t-254 -52q-177 0 -256 65.5t-79 190.5v3q0 136 78.5 203.5t256.5 67.5q172 0 252.5 -59.5t82.5 -164.5v-1zM321 345.5q-21 -14.5 -28 -46.5
l167 1v2q0 58 -80 58q-38 0 -59 -14.5zM628 740.5q2 -3.5 -1 -6.5l-157 -167q-2 -2 -3 -2h-184q-1 0 -3 2l-158 167q-2 2 -2 4t2 4t5 2h197l4 -2l44 -45l49 45l4 2h197q4 0 6 -3.5z" />
    <glyph glyph-name="ecircumflex" unicode="&#xea;" horiz-adv-x="750" 
d="M710 295v-68q0 -7 -5 -7h-413q5 -37 28 -53.5t71 -16.5q36 0 52.5 11.5t16.5 25.5v2q0 5 5 5h240q5 0 5 -5v-13q0 -82 -81 -134t-254 -52q-177 0 -256 65.5t-79 190.5v3q0 136 78.5 203.5t256.5 67.5q172 0 252.5 -59.5t82.5 -164.5v-1zM321 345.5q-21 -14.5 -28 -46.5
l167 1v2q0 58 -80 58q-38 0 -59 -14.5zM629 571q0 -2 -2 -4t-5 -2h-197l-4 2l-49 45l-44 -45l-4 -2h-197q-4 0 -6 3.5t1 6.5l158 167q2 2 3 2h184q1 0 3 -2l157 -167q2 -2 2 -4z" />
    <glyph glyph-name="edieresis" unicode="&#xeb;" horiz-adv-x="750" 
d="M710 295v-68q0 -7 -5 -7h-413q5 -37 28 -53.5t71 -16.5q36 0 52.5 11.5t16.5 25.5v2q0 5 5 5h240q5 0 5 -5v-13q0 -82 -81 -134t-254 -52q-177 0 -256 65.5t-79 190.5v3q0 136 78.5 203.5t256.5 67.5q172 0 252.5 -59.5t82.5 -164.5v-1zM321 345.5q-21 -14.5 -28 -46.5
l167 1v2q0 58 -80 58q-38 0 -59 -14.5zM130 565v170q0 5 5 5h210q5 0 5 -5v-170q0 -5 -5 -5h-210q-5 0 -5 5zM400 565v170q0 5 5 5h210q5 0 5 -5v-170q0 -5 -5 -5h-210q-5 0 -5 5z" />
    <glyph glyph-name="edotaccent" unicode="&#x117;" horiz-adv-x="750" 
d="M710 295v-68q0 -7 -5 -7h-413q5 -37 28 -53.5t71 -16.5q36 0 52.5 11.5t16.5 25.5v2q0 5 5 5h240q5 0 5 -5v-13q0 -82 -81 -134t-254 -52q-177 0 -256 65.5t-79 190.5v3q0 136 78.5 203.5t256.5 67.5q172 0 252.5 -59.5t82.5 -164.5v-1zM321 345.5q-21 -14.5 -28 -46.5
l167 1v2q0 58 -80 58q-38 0 -59 -14.5zM250 565v170q0 5 5 5h240q5 0 5 -5v-170q0 -5 -5 -5h-240q-5 0 -5 5z" />
    <glyph glyph-name="egrave" unicode="&#xe8;" horiz-adv-x="750" 
d="M710 295v-68q0 -7 -5 -7h-413q5 -37 28 -53.5t71 -16.5q36 0 52.5 11.5t16.5 25.5v2q0 5 5 5h240q5 0 5 -5v-13q0 -82 -81 -134t-254 -52q-177 0 -256 65.5t-79 190.5v3q0 136 78.5 203.5t256.5 67.5q172 0 252.5 -59.5t82.5 -164.5v-1zM321 345.5q-21 -14.5 -28 -46.5
l167 1v2q0 58 -80 58q-38 0 -59 -14.5zM258 565l-3 1l-215 193q-2 2 -2 6q0 7 7 7h319l4 -2l124 -196q1 -1 1 -4q0 -5 -6 -5h-229z" />
    <glyph glyph-name="emacron" unicode="&#x113;" horiz-adv-x="750" 
d="M710 295v-68q0 -7 -5 -7h-413q5 -37 28 -53.5t71 -16.5q36 0 52.5 11.5t16.5 25.5v2q0 5 5 5h240q5 0 5 -5v-13q0 -82 -81 -134t-254 -52q-177 0 -256 65.5t-79 190.5v3q0 136 78.5 203.5t256.5 67.5q172 0 252.5 -59.5t82.5 -164.5v-1zM321 345.5q-21 -14.5 -28 -46.5
l167 1v2q0 58 -80 58q-38 0 -59 -14.5zM75 565v170q0 5 5 5h590q5 0 5 -5v-170q0 -5 -5 -5h-590q-5 0 -5 5z" />
    <glyph glyph-name="eogonek" unicode="&#x119;" horiz-adv-x="750" 
d="M710 295v-68q0 -7 -5 -7h-413q5 -37 28 -53.5t71 -16.5q36 0 52.5 11.5t16.5 25.5v2q0 5 5 5h240q5 0 5 -5v-13q0 -56 -39.5 -100t-121.5 -66q-47 -32 -61.5 -49t-14.5 -30v-1q0 -8 6.5 -14.5t18.5 -6.5q16 0 27.5 7.5t15.5 16.5q1 3 4.5 4t5.5 -1l100 -61q4 -3 2 -7
q-19 -38 -64.5 -66t-118.5 -28q-84 0 -131.5 27t-47.5 71v3q0 33 17 63t47 52q-167 4 -241 69t-74 187v3q0 136 78.5 203.5t256.5 67.5q172 0 252.5 -59.5t82.5 -164.5v-1zM321 345.5q-21 -14.5 -28 -46.5l167 1v2q0 58 -80 58q-38 0 -59 -14.5z" />
    <glyph glyph-name="f" unicode="f" horiz-adv-x="565" 
d="M387 520.5q-10 -10.5 -10 -37.5v-1h163q5 0 5 -5v-170q0 -5 -5 -5h-163v-297q0 -5 -5 -5h-240q-5 0 -5 5v297h-117q-5 0 -5 5v170q0 5 5 5h117v68q0 77 54 119t146 42h213q5 0 5 -5v-170q0 -5 -5 -5h-117q-26 0 -36 -10.5z" />
    <glyph glyph-name="g" unicode="g" 
d="M719 505v-433q0 -86 -33 -139t-106 -78t-196 -25q-119 0 -189.5 15.5t-103 48.5t-32.5 89v22q0 5 5 5h240q5 0 5 -5v-4q0 -10 15 -17.5t55 -7.5q57 0 73.5 24t16.5 64v61h-12q-45 -95 -197 -95q-111 0 -165.5 58t-54.5 179v16q0 121 54.5 179t165.5 58q152 0 197 -95h12
v80q0 5 5 5h240q5 0 5 -5zM446 220q23 15 23 52v6q0 37 -23 52t-68 15q-48 0 -68.5 -16.5t-20.5 -51.5v-4q0 -35 20.5 -51.5t68.5 -16.5q45 0 68 15z" />
    <glyph glyph-name="gbreve" unicode="&#x11f;" 
d="M719 505v-433q0 -86 -33 -139t-106 -78t-196 -25q-119 0 -189.5 15.5t-103 48.5t-32.5 89v22q0 5 5 5h240q5 0 5 -5v-4q0 -10 15 -17.5t55 -7.5q57 0 73.5 24t16.5 64v61h-12q-45 -95 -197 -95q-111 0 -165.5 58t-54.5 179v16q0 121 54.5 179t165.5 58q152 0 197 -95h12
v80q0 5 5 5h240q5 0 5 -5zM446 220q23 15 23 52v6q0 37 -23 52t-68 15q-48 0 -68.5 -16.5t-20.5 -51.5v-4q0 -35 20.5 -51.5t68.5 -16.5q45 0 68 15zM219.5 599q-57.5 44 -57.5 123v23q0 5 5 5h165q5 0 5 -5v-6q0 -19 11.5 -33.5t41.5 -14.5q33 0 43 14t10 34v6q0 5 5 5h165
q5 0 5 -5v-23q0 -80 -56 -123.5t-172 -43.5q-113 0 -170.5 44z" />
    <glyph glyph-name="gcircumflex" unicode="&#x11d;" 
d="M719 505v-433q0 -86 -33 -139t-106 -78t-196 -25q-119 0 -189.5 15.5t-103 48.5t-32.5 89v22q0 5 5 5h240q5 0 5 -5v-4q0 -10 15 -17.5t55 -7.5q57 0 73.5 24t16.5 64v61h-12q-45 -95 -197 -95q-111 0 -165.5 58t-54.5 179v16q0 121 54.5 179t165.5 58q152 0 197 -95h12
v80q0 5 5 5h240q5 0 5 -5zM446 220q23 15 23 52v6q0 37 -23 52t-68 15q-48 0 -68.5 -16.5t-20.5 -51.5v-4q0 -35 20.5 -51.5t68.5 -16.5q45 0 68 15zM644 571q0 -2 -2 -4t-5 -2h-197l-4 2l-49 45l-44 -45l-4 -2h-197q-4 0 -6 3.5t1 6.5l158 167q2 2 3 2h184q1 0 3 -2
l157 -167q2 -2 2 -4z" />
    <glyph glyph-name="uni0123" unicode="&#x123;" 
d="M719 505v-433q0 -86 -33 -139t-106 -78t-196 -25q-119 0 -189.5 15.5t-103 48.5t-32.5 89v22q0 5 5 5h240q5 0 5 -5v-4q0 -10 15 -17.5t55 -7.5q57 0 73.5 24t16.5 64v61h-12q-45 -95 -197 -95q-111 0 -165.5 58t-54.5 179v16q0 121 54.5 179t165.5 58q152 0 197 -95h12
v80q0 5 5 5h240q5 0 5 -5zM446 220q23 15 23 52v6q0 37 -23 52t-68 15q-48 0 -68.5 -16.5t-20.5 -51.5v-4q0 -35 20.5 -51.5t68.5 -16.5q45 0 68 15zM500 883v-69q0 -4 -5 -4h-74q-15 0 -20.5 -5t-5.5 -15v-25h100q5 0 5 -5v-190q0 -5 -5 -5h-209q-5 0 -5 5v242
q0 37 22 56.5t58 19.5h134q5 0 5 -5z" />
    <glyph glyph-name="gdotaccent" unicode="&#x121;" 
d="M719 505v-433q0 -86 -33 -139t-106 -78t-196 -25q-119 0 -189.5 15.5t-103 48.5t-32.5 89v22q0 5 5 5h240q5 0 5 -5v-4q0 -10 15 -17.5t55 -7.5q57 0 73.5 24t16.5 64v61h-12q-45 -95 -197 -95q-111 0 -165.5 58t-54.5 179v16q0 121 54.5 179t165.5 58q152 0 197 -95h12
v80q0 5 5 5h240q5 0 5 -5zM446 220q23 15 23 52v6q0 37 -23 52t-68 15q-48 0 -68.5 -16.5t-20.5 -51.5v-4q0 -35 20.5 -51.5t68.5 -16.5q45 0 68 15zM265 565v170q0 5 5 5h240q5 0 5 -5v-170q0 -5 -5 -5h-240q-5 0 -5 5z" />
    <glyph glyph-name="h" unicode="h" horiz-adv-x="780" 
d="M730 5q0 -5 -5 -5h-240q-5 0 -5 5v257q0 38 -18.5 58t-65.5 20q-86 0 -86 -77v-258q0 -5 -5 -5h-240q-5 0 -5 5v700q0 5 5 5h240q5 0 5 -5v-285h12q17 36 66.5 65.5t140.5 29.5q107 0 153.5 -52t46.5 -155z" />
    <glyph glyph-name="hbar" unicode="&#x127;" horiz-adv-x="780" 
d="M730 5q0 -5 -5 -5h-240q-5 0 -5 5v257q0 38 -18.5 58t-65.5 20q-86 0 -86 -77v-258q0 -5 -5 -5h-240q-5 0 -5 5v504h-63q-4 0 -4 4v136q0 4 4 4h63v52q0 5 5 5h240q5 0 5 -5v-52h87q4 0 4 -4v-136q0 -4 -4 -4h-87v-89h12q17 36 66.5 65.5t140.5 29.5q107 0 153.5 -52
t46.5 -155z" />
    <glyph glyph-name="hcircumflex" unicode="&#x125;" horiz-adv-x="780" 
d="M730 5q0 -5 -5 -5h-240q-5 0 -5 5v257q0 38 -18.5 58t-65.5 20q-86 0 -86 -77v-258q0 -5 -5 -5h-240q-5 0 -5 5v700q0 5 5 5h240q5 0 5 -5v-285h12q17 36 66.5 65.5t140.5 29.5q107 0 153.5 -52t46.5 -155zM439 761q0 -2 -2 -4t-5 -2h-197l-4 2l-49 45l-44 -45l-4 -2
h-197q-4 0 -6 3.5t1 6.5l158 167q2 2 3 2h184q1 0 3 -2l157 -167q2 -2 2 -4z" />
    <glyph glyph-name="i" unicode="i" horiz-adv-x="370" 
d="M60 545v160q0 5 5 5h240q5 0 5 -5v-160q0 -5 -5 -5h-240q-5 0 -5 5zM60 5v500q0 5 5 5h240q5 0 5 -5v-500q0 -5 -5 -5h-240q-5 0 -5 5z" />
    <glyph glyph-name="dotlessi" unicode="&#x131;" horiz-adv-x="370" 
d="M60 5v500q0 5 5 5h240q5 0 5 -5v-500q0 -5 -5 -5h-240q-5 0 -5 5z" />
    <glyph glyph-name="iacute" unicode="&#xed;" horiz-adv-x="370" 
d="M69.5 567.5q-1.5 2.5 0.5 6.5l112 196q0 2 3 2h287q5 0 6.5 -4.5t-1.5 -8.5l-194 -193l-2 -1h-207q-3 0 -4.5 2.5zM60 5v500q0 5 5 5h240q5 0 5 -5v-500q0 -5 -5 -5h-240q-5 0 -5 5z" />
    <glyph glyph-name="ibreve" unicode="&#x12d;" horiz-adv-x="370" 
d="M60 5v500q0 5 5 5h240q5 0 5 -5v-500q0 -5 -5 -5h-240q-5 0 -5 5zM14.5 599q-57.5 44 -57.5 123v23q0 5 5 5h165q5 0 5 -5v-6q0 -19 11.5 -33.5t41.5 -14.5q33 0 43 14t10 34v6q0 5 5 5h165q5 0 5 -5v-23q0 -80 -56 -123.5t-172 -43.5q-113 0 -170.5 44z" />
    <glyph glyph-name="icircumflex" unicode="&#xee;" horiz-adv-x="370" 
d="M414 571q0 -2 -2 -4t-4 -2h-177l-4 2l-44 46l-40 -46q-2 -2 -3 -2h-178q-3 0 -5 3.5t1 6.5l142 167q2 2 3 2h165q1 0 3 -2l141 -167zM310 505v-500q0 -5 -5 -5h-240q-5 0 -5 5v500q0 5 5 5h240q5 0 5 -5z" />
    <glyph glyph-name="idieresis" unicode="&#xef;" horiz-adv-x="370" 
d="M-35 565v170q0 5 4 5h190q4 0 4 -5v-170q0 -5 -4 -5h-190q-4 0 -4 5zM208 565v170q0 5 5 5h189q4 0 4 -5v-170q0 -5 -4 -5h-189q-5 0 -5 5zM60 5v500q0 5 5 5h240q5 0 5 -5v-500q0 -5 -5 -5h-240q-5 0 -5 5z" />
    <glyph glyph-name="i.loclTRK" horiz-adv-x="370" 
d="M60 545v160q0 5 5 5h240q5 0 5 -5v-160q0 -5 -5 -5h-240q-5 0 -5 5zM60 5v500q0 5 5 5h240q5 0 5 -5v-500q0 -5 -5 -5h-240q-5 0 -5 5z" />
    <glyph glyph-name="igrave" unicode="&#xec;" horiz-adv-x="370" 
d="M80 565l-3 1l-193 193q-3 3 -3 6q0 7 7 7h287l4 -2l112 -196q2 -4 0.5 -6.5t-5.5 -2.5h-206zM60 5v500q0 5 5 5h240q5 0 5 -5v-500q0 -5 -5 -5h-240q-5 0 -5 5z" />
    <glyph glyph-name="ij" unicode="&#x133;" horiz-adv-x="749" 
d="M60 545v160q0 5 5 5h240q5 0 5 -5v-160q0 -5 -5 -5h-240q-5 0 -5 5zM60 5v500q0 5 5 5h240q5 0 5 -5v-500q0 -5 -5 -5h-240q-5 0 -5 5zM439 545v160q0 5 5 5h240q5 0 5 -5v-160q0 -5 -5 -5h-240q-5 0 -5 5zM360 -155v159q0 5 5 5h28q26 0 36 10.5t10 37.5v448q0 5 5 5
h240q5 0 5 -5v-504q0 -77 -54 -119t-146 -42h-124q-5 0 -5 5z" />
    <glyph glyph-name="imacron" unicode="&#x12b;" horiz-adv-x="370" 
d="M-25 565v170q0 5 3 5h414q3 0 3 -5v-170q0 -5 -3 -5h-414q-3 0 -3 5zM60 5v500q0 5 5 5h240q5 0 5 -5v-500q0 -5 -5 -5h-240q-5 0 -5 5z" />
    <glyph glyph-name="iogonek" unicode="&#x12f;" horiz-adv-x="370" 
d="M60 545v160q0 5 5 5h240q5 0 5 -5v-160q0 -5 -5 -5h-240q-5 0 -5 5zM382 -142q-19 -38 -64.5 -66t-118.5 -28q-84 0 -131.5 27t-47.5 71v3q0 41 26 76.5t69 58.5h-50q-5 0 -5 5v500q0 5 5 5h240q5 0 5 -5v-500q0 -5 -5 -5h-26q-47 -32 -62 -49t-15 -30v-1q0 -8 6.5 -14.5
t18.5 -6.5q16 0 27.5 7.5t15.5 16.5q1 3 4.5 4t5.5 -1l100 -61q4 -3 2 -7z" />
    <glyph glyph-name="itilde" unicode="&#x129;" horiz-adv-x="370" 
d="M-27 573q1 115 42 161t98 46q22 0 37.5 -5t38.5 -16q17 -9 31 -14t32 -5q13 0 20 10t9 25q0 5 4 5h107q4 0 4 -5q-1 -110 -42 -158.5t-97 -48.5q-21 0 -37 5t-38 16q-19 9 -33 14t-31 5q-13 0 -20.5 -10t-9.5 -25q0 -5 -4 -5h-107q-4 0 -4 5zM60 5v500q0 5 5 5h240
q5 0 5 -5v-500q0 -5 -5 -5h-240q-5 0 -5 5z" />
    <glyph glyph-name="j" unicode="j" horiz-adv-x="379" 
d="M69 545v160q0 5 5 5h240q5 0 5 -5v-160q0 -5 -5 -5h-240q-5 0 -5 5zM-10 -155v159q0 5 5 5h28q26 0 36 10.5t10 37.5v448q0 5 5 5h240q5 0 5 -5v-504q0 -77 -54 -119t-146 -42h-124q-5 0 -5 5z" />
    <glyph glyph-name="uni0237" unicode="&#x237;" horiz-adv-x="379" 
d="M-10 -155v159q0 5 5 5h28q26 0 36 10.5t10 37.5v448q0 5 5 5h240q5 0 5 -5v-504q0 -77 -54 -119t-146 -42h-124q-5 0 -5 5z" />
    <glyph glyph-name="jcircumflex" unicode="&#x135;" horiz-adv-x="379" 
d="M-10 -155v159q0 5 5 5h28q26 0 36 10.5t10 37.5v448q0 5 5 5h240q5 0 5 -5v-504q0 -77 -54 -119t-146 -42h-124q-5 0 -5 5zM444 571q0 -2 -2 -4t-5 -2h-197l-4 2l-49 45l-44 -45l-4 -2h-197q-4 0 -6 3.5t1 6.5l158 167q2 2 3 2h184q1 0 3 -2l157 -167q2 -2 2 -4z" />
    <glyph glyph-name="k" unicode="k" horiz-adv-x="722" 
d="M60 705q0 5 5 5h240q5 0 5 -5v-356h21q3 22 24 54t53 73l22 29q3 5 10 5h271q2 0 4 -1.5t1 -3.5l-188 -245l188 -255q1 -2 -1 -3.5t-4 -1.5h-271q-7 0 -10 5l-23 34l-14 20q-27 38 -43 65.5t-19 46.5h-21v-166q0 -5 -5 -5h-240q-5 0 -5 5v700z" />
    <glyph glyph-name="uni0137" unicode="&#x137;" horiz-adv-x="722" 
d="M60 705q0 5 5 5h240q5 0 5 -5v-356h21q3 22 24 54t53 73l22 29q3 5 10 5h271q2 0 4 -1.5t1 -3.5l-188 -245l188 -255q1 -2 -1 -3.5t-4 -1.5h-271q-7 0 -10 5l-23 34l-14 20q-27 38 -43 65.5t-19 46.5h-21v-166q0 -5 -5 -5h-240q-5 0 -5 5v700zM251 -378v69q0 4 5 4h74
q15 0 20.5 5t5.5 15v25h-100q-5 0 -5 5v190q0 5 5 5h209q5 0 5 -5v-242q0 -37 -22 -56.5t-58 -19.5h-134q-5 0 -5 5z" />
    <glyph glyph-name="kgreenlandic" unicode="&#x138;" horiz-adv-x="722" 
d="M60 505q0 5 5 5h240q5 0 5 -5v-156h21q3 22 24 54t53 73l22 29q3 5 10 5h271q2 0 4 -1.5t1 -3.5l-188 -245l188 -255q1 -2 -1 -3.5t-4 -1.5h-271q-7 0 -10 5l-23 34l-14 20q-27 38 -43 65.5t-19 46.5h-21v-166q0 -5 -5 -5h-240q-5 0 -5 5v500z" />
    <glyph glyph-name="l" unicode="l" horiz-adv-x="370" 
d="M60 5v700q0 5 5 5h240q5 0 5 -5v-700q0 -5 -5 -5h-240q-5 0 -5 5z" />
    <glyph glyph-name="lacute" unicode="&#x13a;" horiz-adv-x="370" 
d="M60 5v700q0 5 5 5h240q5 0 5 -5v-700q0 -5 -5 -5h-240q-5 0 -5 5zM56.5 767.5q-1.5 2.5 0.5 6.5l124 196l4 2h319q5 0 7 -4.5t-2 -8.5l-215 -193l-3 -1h-229q-4 0 -5.5 2.5z" />
    <glyph glyph-name="lcaron" unicode="&#x13e;" horiz-adv-x="591" 
d="M60 5v700q0 5 5 5h240q5 0 5 -5v-700q0 -5 -5 -5h-240q-5 0 -5 5zM361 359v76q0 5 5 5h81q17 0 23 5t6 17v27h-110q-5 0 -5 5v210q0 5 5 5h230q5 0 5 -5v-267q0 -41 -24 -62t-64 -21h-147q-5 0 -5 5z" />
    <glyph glyph-name="uni013C" unicode="&#x13c;" horiz-adv-x="370" 
d="M60 5v700q0 5 5 5h240q5 0 5 -5v-700q0 -5 -5 -5h-240q-5 0 -5 5zM75 -378v69q0 4 5 4h74q15 0 20.5 5t5.5 15v25h-100q-5 0 -5 5v190q0 5 5 5h209q5 0 5 -5v-242q0 -37 -22 -56.5t-58 -19.5h-134q-5 0 -5 5z" />
    <glyph glyph-name="ldot" unicode="&#x140;" horiz-adv-x="590" 
d="M60 5v700q0 5 5 5h240q5 0 5 -5v-700q0 -5 -5 -5h-240q-5 0 -5 5zM360 155v210q0 5 5 5h230q5 0 5 -5v-210q0 -5 -5 -5h-230q-5 0 -5 5z" />
    <glyph glyph-name="lslash" unicode="&#x142;" horiz-adv-x="370" 
d="M383.5 476q1.5 -2 1.5 -4v-170q0 -3 -5 -5l-70 -36v-256q0 -5 -5 -5h-240q-5 0 -5 5v128l-70 -36q-2 -1 -3.5 1t-1.5 4v170q0 3 5 5l70 36v392q0 5 5 5h240q5 0 5 -5v-264l70 36q2 1 3.5 -1z" />
    <glyph glyph-name="m" unicode="m" horiz-adv-x="1159" 
d="M1109 5q0 -5 -5 -5h-240q-5 0 -5 5v262q0 78 -74 78q-34 0 -54.5 -18t-21.5 -53l1 -269q0 -5 -5 -5h-240q-5 0 -5 5v262q0 78 -74 78q-36 0 -56 -19.5t-20 -57.5v-263q0 -5 -5 -5h-240q-5 0 -5 5v500q0 5 5 5h240q5 0 5 -5v-80h12q17 35 64.5 65t132.5 30q133 0 171 -95
h16q17 35 64.5 65t132.5 30q110 0 157.5 -52t47.5 -155z" />
    <glyph glyph-name="n" unicode="n" horiz-adv-x="780" 
d="M730 5q0 -5 -5 -5h-240q-5 0 -5 5v262q0 38 -18.5 58t-65.5 20q-86 0 -86 -77v-263q0 -5 -5 -5h-240q-5 0 -5 5v500q0 5 5 5h240q5 0 5 -5v-80h12q17 36 66.5 65.5t140.5 29.5q107 0 153.5 -52t46.5 -155z" />
    <glyph glyph-name="nacute" unicode="&#x144;" horiz-adv-x="780" 
d="M730 5q0 -5 -5 -5h-240q-5 0 -5 5v262q0 38 -18.5 58t-65.5 20q-86 0 -86 -77v-263q0 -5 -5 -5h-240q-5 0 -5 5v500q0 5 5 5h240q5 0 5 -5v-80h12q17 36 66.5 65.5t140.5 29.5q107 0 153.5 -52t46.5 -155zM291.5 567.5q-1.5 2.5 0.5 6.5l124 196l4 2h319q5 0 7 -4.5
t-2 -8.5l-215 -193l-3 -1h-229q-4 0 -5.5 2.5z" />
    <glyph glyph-name="napostrophe" unicode="&#x149;" horiz-adv-x="780" 
d="M64 548v62q0 4 5 4h72q15 0 21 4.5t6 14.5v22h-99q-5 0 -5 4v174q0 4 5 4h207q4 0 4 -4v-221q0 -33 -21.5 -51t-57.5 -18h-132q-5 0 -5 5zM730 5q0 -5 -5 -5h-240q-5 0 -5 5v262q0 38 -18.5 58t-65.5 20q-86 0 -86 -77v-263q0 -5 -5 -5h-240q-5 0 -5 5v500q0 5 5 5h240
q5 0 5 -5v-80h12q17 36 66.5 65.5t140.5 29.5q107 0 153.5 -52t46.5 -155z" />
    <glyph glyph-name="ncaron" unicode="&#x148;" horiz-adv-x="780" 
d="M730 5q0 -5 -5 -5h-240q-5 0 -5 5v262q0 38 -18.5 58t-65.5 20q-86 0 -86 -77v-263q0 -5 -5 -5h-240q-5 0 -5 5v500q0 5 5 5h240q5 0 5 -5v-80h12q17 36 66.5 65.5t140.5 29.5q107 0 153.5 -52t46.5 -155zM673 740.5q2 -3.5 -1 -6.5l-157 -167q-2 -2 -3 -2h-184
q-1 0 -3 2l-158 167q-2 2 -2 4t2 4t5 2h197l4 -2l44 -45l49 45l4 2h197q4 0 6 -3.5z" />
    <glyph glyph-name="uni0146" unicode="&#x146;" horiz-adv-x="780" 
d="M730 5q0 -5 -5 -5h-240q-5 0 -5 5v262q0 38 -18.5 58t-65.5 20q-86 0 -86 -77v-263q0 -5 -5 -5h-240q-5 0 -5 5v500q0 5 5 5h240q5 0 5 -5v-80h12q17 36 66.5 65.5t140.5 29.5q107 0 153.5 -52t46.5 -155zM290 -378v69q0 4 5 4h74q15 0 20.5 5t5.5 15v25h-100q-5 0 -5 5
v190q0 5 5 5h209q5 0 5 -5v-242q0 -37 -22 -56.5t-58 -19.5h-134q-5 0 -5 5z" />
    <glyph glyph-name="eng" unicode="&#x14b;" horiz-adv-x="780" 
d="M730 1q0 -77 -54 -119t-146 -42h-124q-5 0 -5 5v159q0 5 5 5h28q26 0 36 10.5t10 37.5v210q0 38 -18.5 58t-65.5 20q-86 0 -86 -77v-263q0 -5 -5 -5h-240q-5 0 -5 5v500q0 5 5 5h240q5 0 5 -5v-80h12q17 36 66.5 65.5t140.5 29.5q107 0 153.5 -52t46.5 -155z" />
    <glyph glyph-name="ntilde" unicode="&#xf1;" horiz-adv-x="780" 
d="M730 5q0 -5 -5 -5h-240q-5 0 -5 5v262q0 38 -18.5 58t-65.5 20q-86 0 -86 -77v-263q0 -5 -5 -5h-240q-5 0 -5 5v500q0 5 5 5h240q5 0 5 -5v-80h12q17 36 66.5 65.5t140.5 29.5q107 0 153.5 -52t46.5 -155zM155 573q1 115 52.5 161t122.5 46q29 0 49 -5.5t46 -15.5
q22 -10 39 -14.5t40 -4.5q16 0 25 10t11 25q0 2 1.5 3.5t3.5 1.5h134q5 0 5 -5q-1 -110 -53 -158.5t-121 -48.5q-27 0 -46.5 5t-48.5 16q-23 9 -40 14t-39 5q-16 0 -25.5 -10t-11.5 -25q0 -2 -1.5 -3.5t-3.5 -1.5h-134q-5 0 -5 5z" />
    <glyph glyph-name="o" unicode="o" horiz-adv-x="760" 
d="M125 52q-85 62 -85 189v13q0 137 84.5 201.5t255.5 64.5t255.5 -64.5t84.5 -201.5v-13q0 -127 -85 -189t-255 -62t-255 62zM450 194q20 24 20 59v4q0 35 -20 59t-70 24t-70 -24t-20 -59v-4q0 -35 20 -59t70 -24t70 24z" />
    <glyph glyph-name="oacute" unicode="&#xf3;" horiz-adv-x="760" 
d="M125 52q-85 62 -85 189v13q0 137 84.5 201.5t255.5 64.5t255.5 -64.5t84.5 -201.5v-13q0 -127 -85 -189t-255 -62t-255 62zM450 194q20 24 20 59v4q0 35 -20 59t-70 24t-70 -24t-20 -59v-4q0 -35 20 -59t70 -24t70 24zM251.5 567.5q-1.5 2.5 0.5 6.5l124 196l4 2h319
q5 0 7 -4.5t-2 -8.5l-215 -193l-3 -1h-229q-4 0 -5.5 2.5z" />
    <glyph glyph-name="obreve" unicode="&#x14f;" horiz-adv-x="760" 
d="M125 52q-85 62 -85 189v13q0 137 84.5 201.5t255.5 64.5t255.5 -64.5t84.5 -201.5v-13q0 -127 -85 -189t-255 -62t-255 62zM450 194q20 24 20 59v4q0 35 -20 59t-70 24t-70 -24t-20 -59v-4q0 -35 20 -59t70 -24t70 24zM209.5 599q-57.5 44 -57.5 123v23q0 5 5 5h165
q5 0 5 -5v-6q0 -19 11.5 -33.5t41.5 -14.5q33 0 43 14t10 34v6q0 5 5 5h165q5 0 5 -5v-23q0 -80 -56 -123.5t-172 -43.5q-113 0 -170.5 44z" />
    <glyph glyph-name="ocircumflex" unicode="&#xf4;" horiz-adv-x="760" 
d="M125 52q-85 62 -85 189v13q0 137 84.5 201.5t255.5 64.5t255.5 -64.5t84.5 -201.5v-13q0 -127 -85 -189t-255 -62t-255 62zM450 194q20 24 20 59v4q0 35 -20 59t-70 24t-70 -24t-20 -59v-4q0 -35 20 -59t70 -24t70 24zM634 571q0 -2 -2 -4t-5 -2h-197l-4 2l-49 45
l-44 -45l-4 -2h-197q-4 0 -6 3.5t1 6.5l158 167q2 2 3 2h184q1 0 3 -2l157 -167q2 -2 2 -4z" />
    <glyph glyph-name="odieresis" unicode="&#xf6;" horiz-adv-x="760" 
d="M125 52q-85 62 -85 189v13q0 137 84.5 201.5t255.5 64.5t255.5 -64.5t84.5 -201.5v-13q0 -127 -85 -189t-255 -62t-255 62zM450 194q20 24 20 59v4q0 35 -20 59t-70 24t-70 -24t-20 -59v-4q0 -35 20 -59t70 -24t70 24zM135 565v170q0 5 5 5h210q5 0 5 -5v-170q0 -5 -5 -5
h-210q-5 0 -5 5zM405 565v170q0 5 5 5h210q5 0 5 -5v-170q0 -5 -5 -5h-210q-5 0 -5 5z" />
    <glyph glyph-name="ograve" unicode="&#xf2;" horiz-adv-x="760" 
d="M125 52q-85 62 -85 189v13q0 137 84.5 201.5t255.5 64.5t255.5 -64.5t84.5 -201.5v-13q0 -127 -85 -189t-255 -62t-255 62zM450 194q20 24 20 59v4q0 35 -20 59t-70 24t-70 -24t-20 -59v-4q0 -35 20 -59t70 -24t70 24zM263 565l-3 1l-215 193q-2 2 -2 6q0 7 7 7h319l4 -2
l124 -196q1 -1 1 -4q0 -5 -6 -5h-229z" />
    <glyph glyph-name="ohungarumlaut" unicode="&#x151;" horiz-adv-x="760" 
d="M125 52q-85 62 -85 189v13q0 137 84.5 201.5t255.5 64.5t255.5 -64.5t84.5 -201.5v-13q0 -127 -85 -189t-255 -62t-255 62zM450 194q20 24 20 59v4q0 35 -20 59t-70 24t-70 -24t-20 -59v-4q0 -35 20 -59t70 -24t70 24zM102.5 567.5q-1.5 2.5 0.5 6.5l112 196q0 2 3 2h287
q5 0 6.5 -4.5t-1.5 -8.5l-194 -193l-2 -1h-207q-3 0 -4.5 2.5zM427.5 567.5q-1.5 2.5 0.5 6.5l112 196q0 2 3 2h287q5 0 6.5 -4.5t-1.5 -8.5l-194 -193l-2 -1h-207q-3 0 -4.5 2.5z" />
    <glyph glyph-name="omacron" unicode="&#x14d;" horiz-adv-x="760" 
d="M125 52q-85 62 -85 189v13q0 137 84.5 201.5t255.5 64.5t255.5 -64.5t84.5 -201.5v-13q0 -127 -85 -189t-255 -62t-255 62zM450 194q20 24 20 59v4q0 35 -20 59t-70 24t-70 -24t-20 -59v-4q0 -35 20 -59t70 -24t70 24zM80 565v170q0 5 5 5h590q5 0 5 -5v-170q0 -5 -5 -5
h-590q-5 0 -5 5z" />
    <glyph glyph-name="uni01EB" unicode="&#x1eb;" horiz-adv-x="760" 
d="M635.5 455.5q84.5 -64.5 84.5 -201.5v-13q0 -195 -206 -239q-49 -32 -64.5 -50t-15.5 -31v-1q0 -8 6.5 -14.5t18.5 -6.5q16 0 27.5 7.5t15.5 16.5q1 3 4.5 4t5.5 -1l100 -61q4 -3 2 -7q-19 -38 -64.5 -66t-118.5 -28q-84 0 -131.5 27t-47.5 71v3q0 37 21.5 70t58.5 56
q-292 17 -292 250v13q0 137 84.5 201.5t255.5 64.5t255.5 -64.5zM310 194q20 -24 70 -24t70 24t20 59v4q0 35 -20 59t-70 24t-70 -24t-20 -59v-4q0 -35 20 -59z" />
    <glyph glyph-name="oslash" unicode="&#xf8;" horiz-adv-x="760" 
d="M760 585l-90 -163q50 -64 50 -168v-13q0 -127 -85 -189t-255 -62q-46 0 -78 4l-32 -59q-1 -1 -2 -3t-3 -2h-213q-5 0 -2 5l67 123q-77 62 -77 183v13q0 137 84.5 201.5t255.5 64.5q67 0 119 -9l41 74q1 1 2 3t3 2h213q5 0 2 -5zM470 257q0 35 -20 59t-70 24t-70 -24
t-20 -59v-4q0 -35 20 -59t70 -24t70 24t20 59v4z" />
    <glyph glyph-name="oslashacute" unicode="&#x1ff;" horiz-adv-x="760" 
d="M760 585l-90 -163q50 -64 50 -168v-13q0 -127 -85 -189t-255 -62q-46 0 -78 4l-32 -59q-1 -1 -2 -3t-3 -2h-213q-5 0 -2 5l67 123q-77 62 -77 183v13q0 137 84.5 201.5t255.5 64.5q67 0 119 -9l41 74q1 1 2 3t3 2h213q5 0 2 -5zM470 257q0 35 -20 59t-70 24t-70 -24
t-20 -59v-4q0 -35 20 -59t70 -24t70 24t20 59v4zM251.5 567.5q-1.5 2.5 0.5 6.5l124 196l4 2h319q5 0 7 -4.5t-2 -8.5l-215 -193l-3 -1h-229q-4 0 -5.5 2.5z" />
    <glyph glyph-name="otilde" unicode="&#xf5;" horiz-adv-x="760" 
d="M125 52q-85 62 -85 189v13q0 137 84.5 201.5t255.5 64.5t255.5 -64.5t84.5 -201.5v-13q0 -127 -85 -189t-255 -62t-255 62zM450 194q20 24 20 59v4q0 35 -20 59t-70 24t-70 -24t-20 -59v-4q0 -35 20 -59t70 -24t70 24zM115 573q1 115 52.5 161t122.5 46q29 0 49 -5.5
t46 -15.5q22 -10 39 -14.5t40 -4.5q16 0 25 10t11 25q0 2 1.5 3.5t3.5 1.5h134q5 0 5 -5q-1 -110 -53 -158.5t-121 -48.5q-27 0 -46.5 5t-48.5 16q-23 9 -40 14t-39 5q-16 0 -25.5 -10t-11.5 -25q0 -2 -1.5 -3.5t-3.5 -1.5h-134q-5 0 -5 5z" />
    <glyph glyph-name="oe" unicode="&#x153;" horiz-adv-x="1180" 
d="M1140 295v-68q0 -7 -5 -7h-413q5 -37 26 -53.5t62 -16.5q43 0 61.5 11.5t18.5 25.5v2q0 5 5 5h240q5 0 5 -5v-13q0 -83 -75 -134.5t-240 -51.5q-161 0 -230 75q-69 -75 -235 -75q-162 0 -241 62t-79 189v13q0 138 78.5 202t241.5 64q85 0 143 -18.5t92 -58.5
q68 77 230 77q310 0 315 -224v-1zM751 345.5q-21 -14.5 -28 -46.5l167 1v2q0 58 -80 58q-38 0 -59 -14.5zM470 257q0 35 -20 59t-70 24t-70 -24t-20 -59v-4q0 -35 20 -59t70 -24t70 24t20 59v4z" />
    <glyph glyph-name="p" unicode="p" 
d="M683 456.5q56 -63.5 56 -173.5v-36q0 -114 -58 -185.5t-177 -71.5q-88 0 -131 29t-61 66h-2v-240q0 -5 -5 -5h-240q-5 0 -5 5v660q0 5 5 5h240q5 0 5 -5v-80h12q45 95 197 95q108 0 164 -63.5zM490 264q0 35 -23.5 55.5t-65.5 20.5q-45 0 -68 -21t-23 -61v-6
q0 -40 23 -61t68 -21q43 0 66 22t23 64v8z" />
    <glyph glyph-name="thorn" unicode="&#xfe;" 
d="M683 456.5q56 -63.5 56 -173.5v-36q0 -114 -58 -185.5t-177 -71.5q-88 0 -131 29t-61 66h-2v-240q0 -5 -5 -5h-240q-5 0 -5 5v860q0 5 5 5h240q5 0 5 -5v-280h12q45 95 197 95q108 0 164 -63.5zM490 264q0 35 -23.5 55.5t-65.5 20.5q-45 0 -68 -21t-23 -61v-6
q0 -40 23 -61t68 -21q43 0 66 22t23 64v8z" />
    <glyph glyph-name="q" unicode="q" 
d="M719 505v-660q0 -5 -5 -5h-240q-5 0 -5 5v240h-12q-45 -95 -197 -95q-107 0 -163.5 68t-56.5 179v26q0 114 58 185.5t177 71.5q88 0 131 -29t61 -66h17l25 80q2 5 5 5h200q5 0 5 -5zM446 191q23 21 23 61v6q0 40 -23 61t-68 21q-43 0 -66 -22t-23 -64v-8
q0 -35 23.5 -55.5t65.5 -20.5q45 0 68 21z" />
    <glyph glyph-name="r" unicode="r" horiz-adv-x="694" 
d="M603 496.5q37 -23.5 51.5 -68.5t14.5 -115v-85q0 -5 -5 -5h-239q-5 0 -5 5v49q0 68 -54 68q-23 0 -39.5 -15.5t-16.5 -51.5v-273q0 -5 -5 -5h-240q-5 0 -5 5v500q0 5 5 5h240q5 0 5 -5v-80h12q25 42 64.5 68.5t112.5 26.5q67 0 104 -23.5z" />
    <glyph glyph-name="racute" unicode="&#x155;" horiz-adv-x="694" 
d="M603 496.5q37 -23.5 51.5 -68.5t14.5 -115v-85q0 -5 -5 -5h-239q-5 0 -5 5v49q0 68 -54 68q-23 0 -39.5 -15.5t-16.5 -51.5v-273q0 -5 -5 -5h-240q-5 0 -5 5v500q0 5 5 5h240q5 0 5 -5v-80h12q25 42 64.5 68.5t112.5 26.5q67 0 104 -23.5zM242.5 567.5q-1.5 2.5 0.5 6.5
l124 196l4 2h319q5 0 7 -4.5t-2 -8.5l-215 -193l-3 -1h-229q-4 0 -5.5 2.5z" />
    <glyph glyph-name="rcaron" unicode="&#x159;" horiz-adv-x="694" 
d="M603 496.5q37 -23.5 51.5 -68.5t14.5 -115v-85q0 -5 -5 -5h-239q-5 0 -5 5v49q0 68 -54 68q-23 0 -39.5 -15.5t-16.5 -51.5v-273q0 -5 -5 -5h-240q-5 0 -5 5v500q0 5 5 5h240q5 0 5 -5v-80h12q25 42 64.5 68.5t112.5 26.5q67 0 104 -23.5zM624 740.5q2 -3.5 -1 -6.5
l-157 -167q-2 -2 -3 -2h-184q-1 0 -3 2l-158 167q-2 2 -2 4t2 4t5 2h197l4 -2l44 -45l49 45l4 2h197q4 0 6 -3.5z" />
    <glyph glyph-name="uni0157" unicode="&#x157;" horiz-adv-x="694" 
d="M603 496.5q37 -23.5 51.5 -68.5t14.5 -115v-85q0 -5 -5 -5h-239q-5 0 -5 5v49q0 68 -54 68q-23 0 -39.5 -15.5t-16.5 -51.5v-273q0 -5 -5 -5h-240q-5 0 -5 5v500q0 5 5 5h240q5 0 5 -5v-80h12q25 42 64.5 68.5t112.5 26.5q67 0 104 -23.5zM69 -378v69q0 4 5 4h74
q15 0 20.5 5t5.5 15v25h-100q-5 0 -5 5v190q0 5 5 5h209q5 0 5 -5v-242q0 -37 -22 -56.5t-58 -19.5h-134q-5 0 -5 5z" />
    <glyph glyph-name="s" unicode="s" horiz-adv-x="750" 
d="M118.5 36.5q-78.5 46.5 -78.5 139.5v13q0 5 5 5h240q5 0 5 -5v-10q0 -15 16.5 -22t68.5 -7q53 0 69 4.5t16 16.5v4q0 10 -16.5 13.5t-57.5 6.5l-41 3q-43 4 -60 5q-98 9 -145 18t-73.5 34.5t-26.5 77.5v16q0 83 79 127t256 44q179 0 257 -47t78 -144v-12q0 -5 -5 -5h-240
q-5 0 -5 5v10q0 15 -17 24t-68 9t-68 -6t-17 -18v-3q0 -12 28.5 -17t89.5 -9q116 -7 175 -16.5t93 -35t34 -76.5v-25q0 -79 -79.5 -121.5t-255.5 -42.5q-178 0 -256.5 46.5z" />
    <glyph glyph-name="sacute" unicode="&#x15b;" horiz-adv-x="750" 
d="M118.5 36.5q-78.5 46.5 -78.5 139.5v13q0 5 5 5h240q5 0 5 -5v-10q0 -15 16.5 -22t68.5 -7q53 0 69 4.5t16 16.5v4q0 10 -16.5 13.5t-57.5 6.5l-41 3q-43 4 -60 5q-98 9 -145 18t-73.5 34.5t-26.5 77.5v16q0 83 79 127t256 44q179 0 257 -47t78 -144v-12q0 -5 -5 -5h-240
q-5 0 -5 5v10q0 15 -17 24t-68 9t-68 -6t-17 -18v-3q0 -12 28.5 -17t89.5 -9q116 -7 175 -16.5t93 -35t34 -76.5v-25q0 -79 -79.5 -121.5t-255.5 -42.5q-178 0 -256.5 46.5zM246.5 567.5q-1.5 2.5 0.5 6.5l124 196l4 2h319q5 0 7 -4.5t-2 -8.5l-215 -193l-3 -1h-229
q-4 0 -5.5 2.5z" />
    <glyph glyph-name="scaron" unicode="&#x161;" horiz-adv-x="750" 
d="M118.5 36.5q-78.5 46.5 -78.5 139.5v13q0 5 5 5h240q5 0 5 -5v-10q0 -15 16.5 -22t68.5 -7q53 0 69 4.5t16 16.5v4q0 10 -16.5 13.5t-57.5 6.5l-41 3q-43 4 -60 5q-98 9 -145 18t-73.5 34.5t-26.5 77.5v16q0 83 79 127t256 44q179 0 257 -47t78 -144v-12q0 -5 -5 -5h-240
q-5 0 -5 5v10q0 15 -17 24t-68 9t-68 -6t-17 -18v-3q0 -12 28.5 -17t89.5 -9q116 -7 175 -16.5t93 -35t34 -76.5v-25q0 -79 -79.5 -121.5t-255.5 -42.5q-178 0 -256.5 46.5zM628 740.5q2 -3.5 -1 -6.5l-157 -167q-2 -2 -3 -2h-184q-1 0 -3 2l-158 167q-2 2 -2 4t2 4t5 2h197
l4 -2l44 -45l49 45l4 2h197q4 0 6 -3.5z" />
    <glyph glyph-name="scedilla" unicode="&#x15f;" horiz-adv-x="750" 
d="M460 317v10q0 15 -17 24t-68 9t-68 -6t-17 -18v-3q0 -12 28.5 -17t89.5 -9q116 -7 175 -16.5t93 -35t34 -76.5v-25q0 -71 -65 -113t-209 -50l-6 -27h33q57 0 89.5 -29.5t32.5 -82.5v-11q0 -65 -50 -99.5t-153 -34.5q-116 0 -167.5 34t-51.5 100v6q0 5 4 5h166q5 0 5 -5
v-2q0 -8 11 -13t25 -5q15 0 25.5 6.5t10.5 21.5v9q0 25 -29 25h-97q-5 1 -3 7l24 96q-140 9 -202.5 54.5t-62.5 129.5v13q0 5 5 5h240q5 0 5 -5v-10q0 -15 16.5 -22t68.5 -7q53 0 69 4.5t16 16.5v4q0 10 -16.5 13.5t-57.5 6.5l-41 3q-43 4 -60 5q-98 9 -145 18t-73.5 34.5
t-26.5 77.5v16q0 83 79 127t256 44q179 0 257 -47t78 -144v-12q0 -5 -5 -5h-240q-5 0 -5 5z" />
    <glyph glyph-name="scircumflex" unicode="&#x15d;" horiz-adv-x="750" 
d="M118.5 36.5q-78.5 46.5 -78.5 139.5v13q0 5 5 5h240q5 0 5 -5v-10q0 -15 16.5 -22t68.5 -7q53 0 69 4.5t16 16.5v4q0 10 -16.5 13.5t-57.5 6.5l-41 3q-43 4 -60 5q-98 9 -145 18t-73.5 34.5t-26.5 77.5v16q0 83 79 127t256 44q179 0 257 -47t78 -144v-12q0 -5 -5 -5h-240
q-5 0 -5 5v10q0 15 -17 24t-68 9t-68 -6t-17 -18v-3q0 -12 28.5 -17t89.5 -9q116 -7 175 -16.5t93 -35t34 -76.5v-25q0 -79 -79.5 -121.5t-255.5 -42.5q-178 0 -256.5 46.5zM629 571q0 -2 -2 -4t-5 -2h-197l-4 2l-49 45l-44 -45l-4 -2h-197q-4 0 -6 3.5t1 6.5l158 167
q2 2 3 2h184q1 0 3 -2l157 -167q2 -2 2 -4z" />
    <glyph glyph-name="uni0219" unicode="&#x219;" horiz-adv-x="750" 
d="M118.5 36.5q-78.5 46.5 -78.5 139.5v13q0 5 5 5h240q5 0 5 -5v-10q0 -15 16.5 -22t68.5 -7q53 0 69 4.5t16 16.5v4q0 10 -16.5 13.5t-57.5 6.5l-41 3q-43 4 -60 5q-98 9 -145 18t-73.5 34.5t-26.5 77.5v16q0 83 79 127t256 44q179 0 257 -47t78 -144v-12q0 -5 -5 -5h-240
q-5 0 -5 5v10q0 15 -17 24t-68 9t-68 -6t-17 -18v-3q0 -12 28.5 -17t89.5 -9q116 -7 175 -16.5t93 -35t34 -76.5v-25q0 -79 -79.5 -121.5t-255.5 -42.5q-178 0 -256.5 46.5zM265 -378v69q0 4 5 4h74q15 0 20.5 5t5.5 15v25h-100q-5 0 -5 5v190q0 5 5 5h209q5 0 5 -5v-242
q0 -37 -22 -56.5t-58 -19.5h-134q-5 0 -5 5z" />
    <glyph glyph-name="germandbls" unicode="&#xdf;" horiz-adv-x="770" 
d="M50 5v479q0 125 81 180.5t249 55.5q172 0 261 -45t89 -146v-13q0 -126 -121 -150v-10q76 -9 103.5 -51t27.5 -96v-8q0 -78 -32 -122t-95 -61.5t-163 -17.5h-96q-5 0 -5 5v170q0 5 5 5h86q50 0 50 46v4q0 45 -50 45h-82q-5 0 -5 5v160q0 5 5 5h72q24 0 37 9.5t13 33.5v4
q0 25 -19.5 36.5t-70.5 11.5t-70.5 -18.5t-19.5 -59.5v-457q0 -5 -5 -5h-240q-5 0 -5 5z" />
    <glyph glyph-name="t" unicode="t" horiz-adv-x="580" 
d="M377 330v-102q0 -27 10 -37.5t36 -10.5h117q5 0 5 -5v-170q0 -5 -5 -5h-213q-92 0 -146 42t-54 119v169h-117q-5 0 -5 5v170q0 5 5 5h117v126q0 5 5 5h240q5 0 5 -5v-126h163q5 0 5 -5v-170q0 -5 -5 -5h-163z" />
    <glyph glyph-name="tbar" unicode="&#x167;" horiz-adv-x="580" 
d="M376 360v-38h139q5 0 5 -5v-120q0 -5 -5 -5h-139q1 -23 12 -32.5t35 -9.5h117q5 0 5 -5v-140q0 -5 -5 -5h-243q-88 0 -129 40.5t-41 120.5v31h-92q-5 0 -5 5v120q0 5 5 5h92v38h-117q-5 0 -5 5v140q0 5 5 5h117v126q0 5 5 5h240q5 0 5 -5v-126h163q5 0 5 -5v-140
q0 -5 -5 -5h-164z" />
    <glyph glyph-name="tcaron" unicode="&#x165;" horiz-adv-x="811" 
d="M377 330v-102q0 -27 10 -37.5t36 -10.5h117q5 0 5 -5v-170q0 -5 -5 -5h-213q-92 0 -146 42t-54 119v169h-117q-5 0 -5 5v170q0 5 5 5h117v126q0 5 5 5h240q5 0 5 -5v-126h163q5 0 5 -5v-170q0 -5 -5 -5h-163zM581 360v76q0 5 5 5h81q17 0 23 5t6 17v27h-110q-5 0 -5 5
v210q0 5 5 5h230q5 0 5 -5v-267q0 -41 -24 -62t-64 -21h-147q-5 0 -5 5z" />
    <glyph glyph-name="uni0163" unicode="&#x163;" horiz-adv-x="580" 
d="M377 330v-102q0 -27 10 -37.5t36 -10.5h117q5 0 5 -5v-170q0 -5 -5 -5h-177l-8 -36h33q57 0 89.5 -29.5t32.5 -82.5v-11q0 -65 -50 -99.5t-153 -34.5q-116 0 -167.5 34t-51.5 100v6q0 5 4 5h166q5 0 5 -5v-2q0 -8 11 -13t25 -5q15 0 25.5 6.5t10.5 21.5v9q0 25 -29 25
h-97q-5 1 -3 7l28 113q2 3 3 4q-52 18 -81 55.5t-29 92.5v169h-117q-5 0 -5 5v170q0 5 5 5h117v126q0 5 5 5h240q5 0 5 -5v-126h163q5 0 5 -5v-170q0 -5 -5 -5h-163z" />
    <glyph glyph-name="uni021B" unicode="&#x21b;" horiz-adv-x="580" 
d="M377 330v-102q0 -27 10 -37.5t36 -10.5h117q5 0 5 -5v-170q0 -5 -5 -5h-213q-92 0 -146 42t-54 119v169h-117q-5 0 -5 5v170q0 5 5 5h117v126q0 5 5 5h240q5 0 5 -5v-126h163q5 0 5 -5v-170q0 -5 -5 -5h-163zM190 -378v69q0 4 5 4h74q15 0 20.5 5t5.5 15v25h-100
q-5 0 -5 5v190q0 5 5 5h209q5 0 5 -5v-242q0 -37 -22 -56.5t-58 -19.5h-134q-5 0 -5 5z" />
    <glyph glyph-name="u" unicode="u" horiz-adv-x="780" 
d="M720 505v-500q0 -5 -5 -5h-240q-5 0 -5 5v80h-12q-17 -36 -66.5 -65.5t-140.5 -29.5q-107 0 -153.5 52t-46.5 155l-1 308q0 5 5 5h240q5 0 5 -5v-262q0 -38 18.5 -58t65.5 -20q86 0 86 77v263q0 5 5 5h240q5 0 5 -5z" />
    <glyph glyph-name="uacute" unicode="&#xfa;" horiz-adv-x="780" 
d="M720 505v-500q0 -5 -5 -5h-240q-5 0 -5 5v80h-12q-17 -36 -66.5 -65.5t-140.5 -29.5q-107 0 -153.5 52t-46.5 155l-1 308q0 5 5 5h240q5 0 5 -5v-262q0 -38 18.5 -58t65.5 -20q86 0 86 77v263q0 5 5 5h240q5 0 5 -5zM261.5 567.5q-1.5 2.5 0.5 6.5l124 196l4 2h319
q5 0 7 -4.5t-2 -8.5l-215 -193l-3 -1h-229q-4 0 -5.5 2.5z" />
    <glyph glyph-name="ubreve" unicode="&#x16d;" horiz-adv-x="780" 
d="M720 505v-500q0 -5 -5 -5h-240q-5 0 -5 5v80h-12q-17 -36 -66.5 -65.5t-140.5 -29.5q-107 0 -153.5 52t-46.5 155l-1 308q0 5 5 5h240q5 0 5 -5v-262q0 -38 18.5 -58t65.5 -20q86 0 86 77v263q0 5 5 5h240q5 0 5 -5zM219.5 599q-57.5 44 -57.5 123v23q0 5 5 5h165
q5 0 5 -5v-6q0 -19 11.5 -33.5t41.5 -14.5q33 0 43 14t10 34v6q0 5 5 5h165q5 0 5 -5v-23q0 -80 -56 -123.5t-172 -43.5q-113 0 -170.5 44z" />
    <glyph glyph-name="ucircumflex" unicode="&#xfb;" horiz-adv-x="780" 
d="M720 505v-500q0 -5 -5 -5h-240q-5 0 -5 5v80h-12q-17 -36 -66.5 -65.5t-140.5 -29.5q-107 0 -153.5 52t-46.5 155l-1 308q0 5 5 5h240q5 0 5 -5v-262q0 -38 18.5 -58t65.5 -20q86 0 86 77v263q0 5 5 5h240q5 0 5 -5zM644 571q0 -2 -2 -4t-5 -2h-197l-4 2l-49 45l-44 -45
l-4 -2h-197q-4 0 -6 3.5t1 6.5l158 167q2 2 3 2h184q1 0 3 -2l157 -167q2 -2 2 -4z" />
    <glyph glyph-name="udieresis" unicode="&#xfc;" horiz-adv-x="780" 
d="M720 505v-500q0 -5 -5 -5h-240q-5 0 -5 5v80h-12q-17 -36 -66.5 -65.5t-140.5 -29.5q-107 0 -153.5 52t-46.5 155l-1 308q0 5 5 5h240q5 0 5 -5v-262q0 -38 18.5 -58t65.5 -20q86 0 86 77v263q0 5 5 5h240q5 0 5 -5zM145 565v170q0 5 5 5h210q5 0 5 -5v-170q0 -5 -5 -5
h-210q-5 0 -5 5zM415 565v170q0 5 5 5h210q5 0 5 -5v-170q0 -5 -5 -5h-210q-5 0 -5 5z" />
    <glyph glyph-name="ugrave" unicode="&#xf9;" horiz-adv-x="780" 
d="M720 505v-500q0 -5 -5 -5h-240q-5 0 -5 5v80h-12q-17 -36 -66.5 -65.5t-140.5 -29.5q-107 0 -153.5 52t-46.5 155l-1 308q0 5 5 5h240q5 0 5 -5v-262q0 -38 18.5 -58t65.5 -20q86 0 86 77v263q0 5 5 5h240q5 0 5 -5zM273 565l-3 1l-215 193q-2 2 -2 6q0 7 7 7h319l4 -2
l124 -196q1 -1 1 -4q0 -5 -6 -5h-229z" />
    <glyph glyph-name="uhungarumlaut" unicode="&#x171;" horiz-adv-x="780" 
d="M720 505v-500q0 -5 -5 -5h-240q-5 0 -5 5v80h-12q-17 -36 -66.5 -65.5t-140.5 -29.5q-107 0 -153.5 52t-46.5 155l-1 308q0 5 5 5h240q5 0 5 -5v-262q0 -38 18.5 -58t65.5 -20q86 0 86 77v263q0 5 5 5h240q5 0 5 -5zM112.5 567.5q-1.5 2.5 0.5 6.5l112 196q0 2 3 2h287
q5 0 6.5 -4.5t-1.5 -8.5l-194 -193l-2 -1h-207q-3 0 -4.5 2.5zM437.5 567.5q-1.5 2.5 0.5 6.5l112 196q0 2 3 2h287q5 0 6.5 -4.5t-1.5 -8.5l-194 -193l-2 -1h-207q-3 0 -4.5 2.5z" />
    <glyph glyph-name="umacron" unicode="&#x16b;" horiz-adv-x="780" 
d="M720 505v-500q0 -5 -5 -5h-240q-5 0 -5 5v80h-12q-17 -36 -66.5 -65.5t-140.5 -29.5q-107 0 -153.5 52t-46.5 155l-1 308q0 5 5 5h240q5 0 5 -5v-262q0 -38 18.5 -58t65.5 -20q86 0 86 77v263q0 5 5 5h240q5 0 5 -5zM90 565v170q0 5 5 5h590q5 0 5 -5v-170q0 -5 -5 -5
h-590q-5 0 -5 5z" />
    <glyph glyph-name="uogonek" unicode="&#x173;" horiz-adv-x="780" 
d="M782 -142q-19 -38 -64.5 -66t-118.5 -28q-84 0 -131.5 27t-47.5 71v3q0 41 26 76.5t69 58.5h-40q-5 0 -5 5v80h-12q-17 -36 -66.5 -65.5t-140.5 -29.5q-107 0 -153.5 52t-46.5 155l-1 308q0 5 5 5h240q5 0 5 -5v-262q0 -38 18.5 -58t65.5 -20q86 0 86 77v263q0 5 5 5h240
q5 0 5 -5v-500q0 -5 -5 -5h-36q-47 -32 -62 -49t-15 -30v-1q0 -8 6.5 -14.5t18.5 -6.5q16 0 27.5 7.5t15.5 16.5q1 3 4.5 4t5.5 -1l100 -61q4 -3 2 -7z" />
    <glyph glyph-name="uring" unicode="&#x16f;" horiz-adv-x="780" 
d="M720 505v-500q0 -5 -5 -5h-240q-5 0 -5 5v80h-12q-17 -36 -66.5 -65.5t-140.5 -29.5q-107 0 -153.5 52t-46.5 155l-1 308q0 5 5 5h240q5 0 5 -5v-262q0 -38 18.5 -58t65.5 -20q86 0 86 77v263q0 5 5 5h240q5 0 5 -5zM259.5 587.5q-41.5 32.5 -41.5 100.5t41.5 100.5
t130.5 32.5q88 0 130 -32.5t42 -100.5t-42 -100.5t-130 -32.5q-89 0 -130.5 32.5zM421 688q0 15 -7 23.5t-24 8.5q-18 0 -25 -8.5t-7 -23.5q0 -16 7 -23.5t25 -7.5q31 0 31 31z" />
    <glyph glyph-name="utilde" unicode="&#x169;" horiz-adv-x="780" 
d="M720 505v-500q0 -5 -5 -5h-240q-5 0 -5 5v80h-12q-17 -36 -66.5 -65.5t-140.5 -29.5q-107 0 -153.5 52t-46.5 155l-1 308q0 5 5 5h240q5 0 5 -5v-262q0 -38 18.5 -58t65.5 -20q86 0 86 77v263q0 5 5 5h240q5 0 5 -5zM125 573q1 115 52.5 161t122.5 46q29 0 49 -5.5
t46 -15.5q22 -10 39 -14.5t40 -4.5q16 0 25 10t11 25q0 2 1.5 3.5t3.5 1.5h134q5 0 5 -5q-1 -110 -53 -158.5t-121 -48.5q-27 0 -46.5 5t-48.5 16q-23 9 -40 14t-39 5q-16 0 -25.5 -10t-11.5 -25q0 -2 -1.5 -3.5t-3.5 -1.5h-134q-5 0 -5 5z" />
    <glyph glyph-name="v" unicode="v" horiz-adv-x="700" 
d="M190 5l-190 500q-1 2 1 3.5t4 1.5h250q3 0 5 -5l49 -154q15 -47 26 -95.5t11 -71.5h8q0 24 11 72.5t26 94.5l49 154q2 5 5 5h250q2 0 4 -1.5t1 -3.5l-190 -500q-2 -5 -5 -5h-310q-3 0 -5 5z" />
    <glyph glyph-name="w" unicode="w" horiz-adv-x="1078" 
d="M190 5l-190 500q-1 2 1 3.5t4 1.5h250q3 0 5 -5l53 -154q14 -40 23.5 -90t9.5 -77h8q0 20 9.5 62.5t11.5 53.5l18 79l27 126q2 5 5 5h228q3 0 5 -5l27 -124q3 -13 16 -72q23 -99 23 -125h8q0 27 9.5 76.5t23.5 90.5l53 154q2 5 5 5h250q2 0 4 -1.5t1 -3.5l-190 -500
q-2 -5 -5 -5h-280q-3 0 -5 5l-21 74q-16 58 -24.5 103.5t-8.5 108.5h-8q0 -55 -8 -97.5t-16.5 -74.5t-11.5 -41l-20 -73q-2 -5 -5 -5h-280q-3 0 -5 5z" />
    <glyph glyph-name="wacute" unicode="&#x1e83;" horiz-adv-x="1078" 
d="M190 5l-190 500q-1 2 1 3.5t4 1.5h250q3 0 5 -5l53 -154q14 -40 23.5 -90t9.5 -77h8q0 20 9.5 62.5t11.5 53.5l18 79l27 126q2 5 5 5h228q3 0 5 -5l27 -124q3 -13 16 -72q23 -99 23 -125h8q0 27 9.5 76.5t23.5 90.5l53 154q2 5 5 5h250q2 0 4 -1.5t1 -3.5l-190 -500
q-2 -5 -5 -5h-280q-3 0 -5 5l-21 74q-16 58 -24.5 103.5t-8.5 108.5h-8q0 -55 -8 -97.5t-16.5 -74.5t-11.5 -41l-20 -73q-2 -5 -5 -5h-280q-3 0 -5 5zM410.5 567.5q-1.5 2.5 0.5 6.5l124 196l4 2h319q5 0 7 -4.5t-2 -8.5l-215 -193l-3 -1h-229q-4 0 -5.5 2.5z" />
    <glyph glyph-name="wcircumflex" unicode="&#x175;" horiz-adv-x="1078" 
d="M190 5l-190 500q-1 2 1 3.5t4 1.5h250q3 0 5 -5l53 -154q14 -40 23.5 -90t9.5 -77h8q0 20 9.5 62.5t11.5 53.5l18 79l27 126q2 5 5 5h228q3 0 5 -5l27 -124q3 -13 16 -72q23 -99 23 -125h8q0 27 9.5 76.5t23.5 90.5l53 154q2 5 5 5h250q2 0 4 -1.5t1 -3.5l-190 -500
q-2 -5 -5 -5h-280q-3 0 -5 5l-21 74q-16 58 -24.5 103.5t-8.5 108.5h-8q0 -55 -8 -97.5t-16.5 -74.5t-11.5 -41l-20 -73q-2 -5 -5 -5h-280q-3 0 -5 5zM793 571q0 -2 -2 -4t-5 -2h-197l-4 2l-49 45l-44 -45l-4 -2h-197q-4 0 -6 3.5t1 6.5l158 167q2 2 3 2h184q1 0 3 -2
l157 -167q2 -2 2 -4z" />
    <glyph glyph-name="wdieresis" unicode="&#x1e85;" horiz-adv-x="1078" 
d="M190 5l-190 500q-1 2 1 3.5t4 1.5h250q3 0 5 -5l53 -154q14 -40 23.5 -90t9.5 -77h8q0 20 9.5 62.5t11.5 53.5l18 79l27 126q2 5 5 5h228q3 0 5 -5l27 -124q3 -13 16 -72q23 -99 23 -125h8q0 27 9.5 76.5t23.5 90.5l53 154q2 5 5 5h250q2 0 4 -1.5t1 -3.5l-190 -500
q-2 -5 -5 -5h-280q-3 0 -5 5l-21 74q-16 58 -24.5 103.5t-8.5 108.5h-8q0 -55 -8 -97.5t-16.5 -74.5t-11.5 -41l-20 -73q-2 -5 -5 -5h-280q-3 0 -5 5zM294 565v170q0 5 5 5h210q5 0 5 -5v-170q0 -5 -5 -5h-210q-5 0 -5 5zM564 565v170q0 5 5 5h210q5 0 5 -5v-170q0 -5 -5 -5
h-210q-5 0 -5 5z" />
    <glyph glyph-name="wgrave" unicode="&#x1e81;" horiz-adv-x="1078" 
d="M190 5l-190 500q-1 2 1 3.5t4 1.5h250q3 0 5 -5l53 -154q14 -40 23.5 -90t9.5 -77h8q0 20 9.5 62.5t11.5 53.5l18 79l27 126q2 5 5 5h228q3 0 5 -5l27 -124q3 -13 16 -72q23 -99 23 -125h8q0 27 9.5 76.5t23.5 90.5l53 154q2 5 5 5h250q2 0 4 -1.5t1 -3.5l-190 -500
q-2 -5 -5 -5h-280q-3 0 -5 5l-21 74q-16 58 -24.5 103.5t-8.5 108.5h-8q0 -55 -8 -97.5t-16.5 -74.5t-11.5 -41l-20 -73q-2 -5 -5 -5h-280q-3 0 -5 5zM422 565l-3 1l-215 193q-2 2 -2 6q0 7 7 7h319l4 -2l124 -196q1 -1 1 -4q0 -5 -6 -5h-229z" />
    <glyph glyph-name="x" unicode="x" horiz-adv-x="708" 
d="M7 1.5q-2 1.5 -1 3.5l158 250l-158 250q-1 2 1 3.5t4 1.5h265q8 0 10 -5l12 -27q3 -7 17 -37.5t23.5 -56t11.5 -40.5h8q8 46 50 132l14 29q3 5 10 5h265q2 0 4 -1.5t1 -3.5l-158 -250l158 -250q1 -2 -1 -3.5t-4 -1.5h-265q-7 0 -10 5l-14 29q-42 86 -50 132h-8
q-3 -19 -14.5 -48t-23 -54t-14.5 -32l-12 -27q-1 -2 -4 -3.5t-6 -1.5h-265q-2 0 -4 1.5z" />
    <glyph glyph-name="y" unicode="y" horiz-adv-x="700" 
d="M699 508.5q2 -1.5 1 -3.5l-142 -372l-61 -162q-25 -65 -89.5 -98t-150.5 -33h-203q-5 0 -5 5v170q0 5 5 5h195q22 0 36 6.5t20 23.5h-133q-3 0 -5 5l-167 450q-1 2 1 3.5t4 1.5h250q3 0 5 -5l49 -154q15 -47 26 -95.5t11 -71.5h8q0 24 11 72.5t26 94.5l49 154q2 5 5 5
h250q2 0 4 -1.5z" />
    <glyph glyph-name="yacute" unicode="&#xfd;" horiz-adv-x="700" 
d="M699 508.5q2 -1.5 1 -3.5l-142 -372l-61 -162q-25 -65 -89.5 -98t-150.5 -33h-203q-5 0 -5 5v170q0 5 5 5h195q22 0 36 6.5t20 23.5h-133q-3 0 -5 5l-167 450q-1 2 1 3.5t4 1.5h250q3 0 5 -5l49 -154q15 -47 26 -95.5t11 -71.5h8q0 24 11 72.5t26 94.5l49 154q2 5 5 5
h250q2 0 4 -1.5zM221.5 567.5q-1.5 2.5 0.5 6.5l124 196l4 2h319q5 0 7 -4.5t-2 -8.5l-215 -193l-3 -1h-229q-4 0 -5.5 2.5z" />
    <glyph glyph-name="ycircumflex" unicode="&#x177;" horiz-adv-x="700" 
d="M699 508.5q2 -1.5 1 -3.5l-142 -372l-61 -162q-25 -65 -89.5 -98t-150.5 -33h-203q-5 0 -5 5v170q0 5 5 5h195q22 0 36 6.5t20 23.5h-133q-3 0 -5 5l-167 450q-1 2 1 3.5t4 1.5h250q3 0 5 -5l49 -154q15 -47 26 -95.5t11 -71.5h8q0 24 11 72.5t26 94.5l49 154q2 5 5 5
h250q2 0 4 -1.5zM604 571q0 -2 -2 -4t-5 -2h-197l-4 2l-49 45l-44 -45l-4 -2h-197q-4 0 -6 3.5t1 6.5l158 167q2 2 3 2h184q1 0 3 -2l157 -167q2 -2 2 -4z" />
    <glyph glyph-name="ydieresis" unicode="&#xff;" horiz-adv-x="700" 
d="M699 508.5q2 -1.5 1 -3.5l-142 -372l-61 -162q-25 -65 -89.5 -98t-150.5 -33h-203q-5 0 -5 5v170q0 5 5 5h195q22 0 36 6.5t20 23.5h-133q-3 0 -5 5l-167 450q-1 2 1 3.5t4 1.5h250q3 0 5 -5l49 -154q15 -47 26 -95.5t11 -71.5h8q0 24 11 72.5t26 94.5l49 154q2 5 5 5
h250q2 0 4 -1.5zM105 565v170q0 5 5 5h210q5 0 5 -5v-170q0 -5 -5 -5h-210q-5 0 -5 5zM375 565v170q0 5 5 5h210q5 0 5 -5v-170q0 -5 -5 -5h-210q-5 0 -5 5z" />
    <glyph glyph-name="ygrave" unicode="&#x1ef3;" horiz-adv-x="700" 
d="M699 508.5q2 -1.5 1 -3.5l-142 -372l-61 -162q-25 -65 -89.5 -98t-150.5 -33h-203q-5 0 -5 5v170q0 5 5 5h195q22 0 36 6.5t20 23.5h-133q-3 0 -5 5l-167 450q-1 2 1 3.5t4 1.5h250q3 0 5 -5l49 -154q15 -47 26 -95.5t11 -71.5h8q0 24 11 72.5t26 94.5l49 154q2 5 5 5
h250q2 0 4 -1.5zM233 565l-3 1l-215 193q-2 2 -2 6q0 7 7 7h319l4 -2l124 -196q1 -1 1 -4q0 -5 -6 -5h-229z" />
    <glyph glyph-name="z" unicode="z" horiz-adv-x="650" 
d="M616 336l-275 -166h279q5 0 5 -5v-160q0 -5 -5 -5h-590q-5 0 -5 5v152q0 8 7 13l277 170h-279q-5 0 -5 5v160q0 5 5 5h590q5 0 5 -5v-155q0 -9 -9 -14z" />
    <glyph glyph-name="zacute" unicode="&#x17a;" horiz-adv-x="650" 
d="M616 336l-275 -166h279q5 0 5 -5v-160q0 -5 -5 -5h-590q-5 0 -5 5v152q0 8 7 13l277 170h-279q-5 0 -5 5v160q0 5 5 5h590q5 0 5 -5v-155q0 -9 -9 -14zM196.5 567.5q-1.5 2.5 0.5 6.5l124 196l4 2h319q5 0 7 -4.5t-2 -8.5l-215 -193l-3 -1h-229q-4 0 -5.5 2.5z" />
    <glyph glyph-name="zcaron" unicode="&#x17e;" horiz-adv-x="650" 
d="M616 336l-275 -166h279q5 0 5 -5v-160q0 -5 -5 -5h-590q-5 0 -5 5v152q0 8 7 13l277 170h-279q-5 0 -5 5v160q0 5 5 5h590q5 0 5 -5v-155q0 -9 -9 -14zM578 740.5q2 -3.5 -1 -6.5l-157 -167q-2 -2 -3 -2h-184q-1 0 -3 2l-158 167q-2 2 -2 4t2 4t5 2h197l4 -2l44 -45
l49 45l4 2h197q4 0 6 -3.5z" />
    <glyph glyph-name="zdotaccent" unicode="&#x17c;" horiz-adv-x="650" 
d="M616 336l-275 -166h279q5 0 5 -5v-160q0 -5 -5 -5h-590q-5 0 -5 5v152q0 8 7 13l277 170h-279q-5 0 -5 5v160q0 5 5 5h590q5 0 5 -5v-155q0 -9 -9 -14zM200 565v170q0 5 5 5h240q5 0 5 -5v-170q0 -5 -5 -5h-240q-5 0 -5 5z" />
    <glyph glyph-name="a.ss01" 
d="M719 505v-500q0 -5 -5 -5h-240q-5 0 -5 5v80h-12q-45 -95 -197 -95q-107 0 -163.5 68t-56.5 179v26q0 114 58 185.5t177 71.5q88 0 131 -29t61 -66h2v80q0 5 5 5h240q5 0 5 -5zM446 191q23 21 23 61v6q0 40 -23 61t-68 21q-43 0 -66 -22t-23 -64v-8q0 -35 23.5 -55.5
t65.5 -20.5q45 0 68 21z" />
    <glyph glyph-name="aacute.ss01" 
d="M719 505v-500q0 -5 -5 -5h-240q-5 0 -5 5v80h-12q-45 -95 -197 -95q-107 0 -163.5 68t-56.5 179v26q0 114 58 185.5t177 71.5q88 0 131 -29t61 -66h2v80q0 5 5 5h240q5 0 5 -5zM446 191q23 21 23 61v6q0 40 -23 61t-68 21q-43 0 -66 -22t-23 -64v-8q0 -35 23.5 -55.5
t65.5 -20.5q45 0 68 21zM261.5 567.5q-1.5 2.5 0.5 6.5l124 196l4 2h319q5 0 7 -4.5t-2 -8.5l-215 -193l-3 -1h-229q-4 0 -5.5 2.5z" />
    <glyph glyph-name="abreve.ss01" 
d="M719 505v-500q0 -5 -5 -5h-240q-5 0 -5 5v80h-12q-45 -95 -197 -95q-107 0 -163.5 68t-56.5 179v26q0 114 58 185.5t177 71.5q88 0 131 -29t61 -66h2v80q0 5 5 5h240q5 0 5 -5zM446 191q23 21 23 61v6q0 40 -23 61t-68 21q-43 0 -66 -22t-23 -64v-8q0 -35 23.5 -55.5
t65.5 -20.5q45 0 68 21zM219.5 599q-57.5 44 -57.5 123v23q0 5 5 5h165q5 0 5 -5v-6q0 -19 11.5 -33.5t41.5 -14.5q33 0 43 14t10 34v6q0 5 5 5h165q5 0 5 -5v-23q0 -80 -56 -123.5t-172 -43.5q-113 0 -170.5 44z" />
    <glyph glyph-name="acircumflex.ss01" 
d="M719 505v-500q0 -5 -5 -5h-240q-5 0 -5 5v80h-12q-45 -95 -197 -95q-107 0 -163.5 68t-56.5 179v26q0 114 58 185.5t177 71.5q88 0 131 -29t61 -66h2v80q0 5 5 5h240q5 0 5 -5zM446 191q23 21 23 61v6q0 40 -23 61t-68 21q-43 0 -66 -22t-23 -64v-8q0 -35 23.5 -55.5
t65.5 -20.5q45 0 68 21zM644 571q0 -2 -2 -4t-5 -2h-197l-4 2l-49 45l-44 -45l-4 -2h-197q-4 0 -6 3.5t1 6.5l158 167q2 2 3 2h184q1 0 3 -2l157 -167q2 -2 2 -4z" />
    <glyph glyph-name="adieresis.ss01" 
d="M719 505v-500q0 -5 -5 -5h-240q-5 0 -5 5v80h-12q-45 -95 -197 -95q-107 0 -163.5 68t-56.5 179v26q0 114 58 185.5t177 71.5q88 0 131 -29t61 -66h2v80q0 5 5 5h240q5 0 5 -5zM446 191q23 21 23 61v6q0 40 -23 61t-68 21q-43 0 -66 -22t-23 -64v-8q0 -35 23.5 -55.5
t65.5 -20.5q45 0 68 21zM145 565v170q0 5 5 5h210q5 0 5 -5v-170q0 -5 -5 -5h-210q-5 0 -5 5zM415 565v170q0 5 5 5h210q5 0 5 -5v-170q0 -5 -5 -5h-210q-5 0 -5 5z" />
    <glyph glyph-name="agrave.ss01" 
d="M719 505v-500q0 -5 -5 -5h-240q-5 0 -5 5v80h-12q-45 -95 -197 -95q-107 0 -163.5 68t-56.5 179v26q0 114 58 185.5t177 71.5q88 0 131 -29t61 -66h2v80q0 5 5 5h240q5 0 5 -5zM446 191q23 21 23 61v6q0 40 -23 61t-68 21q-43 0 -66 -22t-23 -64v-8q0 -35 23.5 -55.5
t65.5 -20.5q45 0 68 21zM273 565l-3 1l-215 193q-2 2 -2 6q0 7 7 7h319l4 -2l124 -196q1 -1 1 -4q0 -5 -6 -5h-229z" />
    <glyph glyph-name="amacron.ss01" 
d="M719 505v-500q0 -5 -5 -5h-240q-5 0 -5 5v80h-12q-45 -95 -197 -95q-107 0 -163.5 68t-56.5 179v26q0 114 58 185.5t177 71.5q88 0 131 -29t61 -66h2v80q0 5 5 5h240q5 0 5 -5zM446 191q23 21 23 61v6q0 40 -23 61t-68 21q-43 0 -66 -22t-23 -64v-8q0 -35 23.5 -55.5
t65.5 -20.5q45 0 68 21zM90 565v170q0 5 5 5h590q5 0 5 -5v-170q0 -5 -5 -5h-590q-5 0 -5 5z" />
    <glyph glyph-name="aogonek.ss01" 
d="M791 -142q-19 -38 -64.5 -66t-118.5 -28q-84 0 -131.5 27t-47.5 71v3q0 41 26 76.5t69 58.5h-50q-5 0 -5 5v80h-12q-45 -95 -197 -95q-107 0 -163.5 68t-56.5 179v26q0 114 58 185.5t177 71.5q88 0 131 -29t61 -66h2v80q0 5 5 5h240q5 0 5 -5v-500q0 -5 -5 -5h-26
q-47 -32 -62 -49t-15 -30v-1q0 -8 6.5 -14.5t18.5 -6.5q16 0 27.5 7.5t15.5 16.5q1 3 4.5 4t5.5 -1l100 -61q4 -3 2 -7zM446 191q23 21 23 61v6q0 40 -23 61t-68 21q-43 0 -66 -22t-23 -64v-8q0 -35 23.5 -55.5t65.5 -20.5q45 0 68 21z" />
    <glyph glyph-name="aring.ss01" 
d="M719 505v-500q0 -5 -5 -5h-240q-5 0 -5 5v80h-12q-45 -95 -197 -95q-107 0 -163.5 68t-56.5 179v26q0 114 58 185.5t177 71.5q88 0 131 -29t61 -66h2v80q0 5 5 5h240q5 0 5 -5zM446 191q23 21 23 61v6q0 40 -23 61t-68 21q-43 0 -66 -22t-23 -64v-8q0 -35 23.5 -55.5
t65.5 -20.5q45 0 68 21zM259.5 587.5q-41.5 32.5 -41.5 100.5t41.5 100.5t130.5 32.5q88 0 130 -32.5t42 -100.5t-42 -100.5t-130 -32.5q-89 0 -130.5 32.5zM421 688q0 15 -7 23.5t-24 8.5q-18 0 -25 -8.5t-7 -23.5q0 -16 7 -23.5t25 -7.5q31 0 31 31z" />
    <glyph glyph-name="atilde.ss01" 
d="M719 505v-500q0 -5 -5 -5h-240q-5 0 -5 5v80h-12q-45 -95 -197 -95q-107 0 -163.5 68t-56.5 179v26q0 114 58 185.5t177 71.5q88 0 131 -29t61 -66h2v80q0 5 5 5h240q5 0 5 -5zM446 191q23 21 23 61v6q0 40 -23 61t-68 21q-43 0 -66 -22t-23 -64v-8q0 -35 23.5 -55.5
t65.5 -20.5q45 0 68 21zM125 573q1 115 52.5 161t122.5 46q29 0 49 -5.5t46 -15.5q22 -10 39 -14.5t40 -4.5q16 0 25 10t11 25q0 2 1.5 3.5t3.5 1.5h134q5 0 5 -5q-1 -110 -53 -158.5t-121 -48.5q-27 0 -46.5 5t-48.5 16q-23 9 -40 14t-39 5q-16 0 -25.5 -10t-11.5 -25
q0 -2 -1.5 -3.5t-3.5 -1.5h-134q-5 0 -5 5z" />
    <glyph glyph-name="g.ss01" 
d="M753 505v-170q0 -5 -5 -5h-42q-11 0 -13.5 -3t-2.5 -15v-11q0 -56 -73 -80.5t-242 -24.5q-58 0 -84 1q-5 -5 -5 -10q0 -12 27.5 -16t89.5 -6q95 -4 161 -13t116 -41.5t50 -96.5v-13q0 -90 -83 -130.5t-267 -40.5q-183 0 -266.5 36t-83.5 100v13q0 41 24.5 64.5t55 32
t53.5 8.5v10q-48 16 -48 60q0 37 49 55q-65 13 -94.5 46.5t-29.5 100.5v8q0 57 29 91t94.5 49.5t177.5 15.5q119 0 168.5 -18.5t60.5 -56.5h10q4 31 25.5 48t54.5 17h88q5 0 5 -5zM460 350q0 26 -85 26q-41 0 -60.5 -7.5t-19.5 -18.5v-5q0 -13 18.5 -21.5t61.5 -8.5
q48 0 66.5 6.5t18.5 24.5v4zM290 7q0 -16 19 -24.5t71 -8.5t71 8.5t19 24.5v4q0 16 -19 24.5t-71 8.5t-71 -8.5t-19 -24.5v-4z" />
    <glyph glyph-name="gbreve.ss01" 
d="M753 505v-170q0 -5 -5 -5h-42q-11 0 -13.5 -3t-2.5 -15v-11q0 -56 -73 -80.5t-242 -24.5q-58 0 -84 1q-5 -5 -5 -10q0 -12 27.5 -16t89.5 -6q95 -4 161 -13t116 -41.5t50 -96.5v-13q0 -90 -83 -130.5t-267 -40.5q-183 0 -266.5 36t-83.5 100v13q0 41 24.5 64.5t55 32
t53.5 8.5v10q-48 16 -48 60q0 37 49 55q-65 13 -94.5 46.5t-29.5 100.5v8q0 57 29 91t94.5 49.5t177.5 15.5q119 0 168.5 -18.5t60.5 -56.5h10q4 31 25.5 48t54.5 17h88q5 0 5 -5zM460 350q0 26 -85 26q-41 0 -60.5 -7.5t-19.5 -18.5v-5q0 -13 18.5 -21.5t61.5 -8.5
q48 0 66.5 6.5t18.5 24.5v4zM290 7q0 -16 19 -24.5t71 -8.5t71 8.5t19 24.5v4q0 16 -19 24.5t-71 8.5t-71 -8.5t-19 -24.5v-4zM219.5 599q-57.5 44 -57.5 123v23q0 5 5 5h165q5 0 5 -5v-6q0 -19 11.5 -33.5t41.5 -14.5q33 0 43 14t10 34v6q0 5 5 5h165q5 0 5 -5v-23
q0 -80 -56 -123.5t-172 -43.5q-113 0 -170.5 44z" />
    <glyph glyph-name="gcircumflex.ss01" 
d="M753 505v-170q0 -5 -5 -5h-42q-11 0 -13.5 -3t-2.5 -15v-11q0 -56 -73 -80.5t-242 -24.5q-58 0 -84 1q-5 -5 -5 -10q0 -12 27.5 -16t89.5 -6q95 -4 161 -13t116 -41.5t50 -96.5v-13q0 -90 -83 -130.5t-267 -40.5q-183 0 -266.5 36t-83.5 100v13q0 41 24.5 64.5t55 32
t53.5 8.5v10q-48 16 -48 60q0 37 49 55q-65 13 -94.5 46.5t-29.5 100.5v8q0 57 29 91t94.5 49.5t177.5 15.5q119 0 168.5 -18.5t60.5 -56.5h10q4 31 25.5 48t54.5 17h88q5 0 5 -5zM460 350q0 26 -85 26q-41 0 -60.5 -7.5t-19.5 -18.5v-5q0 -13 18.5 -21.5t61.5 -8.5
q48 0 66.5 6.5t18.5 24.5v4zM290 7q0 -16 19 -24.5t71 -8.5t71 8.5t19 24.5v4q0 16 -19 24.5t-71 8.5t-71 -8.5t-19 -24.5v-4zM644 571q0 -2 -2 -4t-5 -2h-197l-4 2l-49 45l-44 -45l-4 -2h-197q-4 0 -6 3.5t1 6.5l158 167q2 2 3 2h184q1 0 3 -2l157 -167q2 -2 2 -4z" />
    <glyph glyph-name="uni0123.ss01" 
d="M753 505v-170q0 -5 -5 -5h-42q-11 0 -13.5 -3t-2.5 -15v-11q0 -56 -73 -80.5t-242 -24.5q-58 0 -84 1q-5 -5 -5 -10q0 -12 27.5 -16t89.5 -6q95 -4 161 -13t116 -41.5t50 -96.5v-13q0 -90 -83 -130.5t-267 -40.5q-183 0 -266.5 36t-83.5 100v13q0 41 24.5 64.5t55 32
t53.5 8.5v10q-48 16 -48 60q0 37 49 55q-65 13 -94.5 46.5t-29.5 100.5v8q0 57 29 91t94.5 49.5t177.5 15.5q119 0 168.5 -18.5t60.5 -56.5h10q4 31 25.5 48t54.5 17h88q5 0 5 -5zM460 350q0 26 -85 26q-41 0 -60.5 -7.5t-19.5 -18.5v-5q0 -13 18.5 -21.5t61.5 -8.5
q48 0 66.5 6.5t18.5 24.5v4zM290 7q0 -16 19 -24.5t71 -8.5t71 8.5t19 24.5v4q0 16 -19 24.5t-71 8.5t-71 -8.5t-19 -24.5v-4zM500 883v-69q0 -4 -5 -4h-74q-15 0 -20.5 -5t-5.5 -15v-25h100q5 0 5 -5v-190q0 -5 -5 -5h-209q-5 0 -5 5v242q0 37 22 56.5t58 19.5h134
q5 0 5 -5z" />
    <glyph glyph-name="gdotaccent.ss01" 
d="M753 505v-170q0 -5 -5 -5h-42q-11 0 -13.5 -3t-2.5 -15v-11q0 -56 -73 -80.5t-242 -24.5q-58 0 -84 1q-5 -5 -5 -10q0 -12 27.5 -16t89.5 -6q95 -4 161 -13t116 -41.5t50 -96.5v-13q0 -90 -83 -130.5t-267 -40.5q-183 0 -266.5 36t-83.5 100v13q0 41 24.5 64.5t55 32
t53.5 8.5v10q-48 16 -48 60q0 37 49 55q-65 13 -94.5 46.5t-29.5 100.5v8q0 57 29 91t94.5 49.5t177.5 15.5q119 0 168.5 -18.5t60.5 -56.5h10q4 31 25.5 48t54.5 17h88q5 0 5 -5zM460 350q0 26 -85 26q-41 0 -60.5 -7.5t-19.5 -18.5v-5q0 -13 18.5 -21.5t61.5 -8.5
q48 0 66.5 6.5t18.5 24.5v4zM290 7q0 -16 19 -24.5t71 -8.5t71 8.5t19 24.5v4q0 16 -19 24.5t-71 8.5t-71 -8.5t-19 -24.5v-4zM265 565v170q0 5 5 5h240q5 0 5 -5v-170q0 -5 -5 -5h-240q-5 0 -5 5z" />
    <glyph glyph-name="ordfeminine" unicode="&#xaa;" horiz-adv-x="647" 
d="M607 444v-130q0 -5 -5 -5h-118q-91 0 -94 71h-8q-1 -2 -8 -24t-50.5 -39.5t-114.5 -17.5q-68 0 -104 10.5t-50.5 34.5t-14.5 67v4q0 36 9.5 59.5t41 40t95.5 19.5l182 10q11 1 16.5 5.5t5.5 9.5v1q0 9 -4 15t-22.5 10t-58.5 4q-75 0 -75 -28v-5q0 -5 -5 -5h-180
q-5 0 -5 5v7q0 156 264 156q152 0 214 -45.5t62 -110.5v-96q0 -12 2.5 -15t13.5 -3h6q5 0 5 -5zM363 432q27 12 27 37v1l-30 -3l-82 -4q-24 -1 -36 -5t-12 -17v-2q0 -10 10.5 -14.5t34.5 -4.5q61 0 88 12zM606 252v-130q0 -5 -5 -5h-556q-5 0 -5 5v130q0 5 5 5h556q5 0 5 -5
z" />
    <glyph glyph-name="ordmasculine" unicode="&#xba;" horiz-adv-x="626" 
d="M110.5 348.5q-70.5 48.5 -70.5 156.5v10q0 108 70.5 156.5t200.5 48.5t200 -48.5t70 -156.5v-10q0 -108 -70 -156.5t-200 -48.5t-200.5 48.5zM368.5 456.5q22.5 11.5 22.5 47.5v12q0 36 -22.5 47.5t-57.5 11.5t-58 -11.5t-23 -47.5v-12q0 -36 23 -47.5t58 -11.5
t57.5 11.5zM40 122v130q0 5 5 5h536q5 0 5 -5v-130q0 -5 -5 -5h-536q-5 0 -5 5z" />
    <glyph glyph-name="zero" unicode="0" horiz-adv-x="940" 
d="M171 76.5q-111 86.5 -111 259.5v38q0 173 111 259.5t299 86.5q194 0 302 -85.5t108 -260.5v-38q0 -175 -108 -260.5t-302 -85.5q-188 0 -299 86.5zM585 229q35 39 35 119v14q0 80 -35 119t-115 39q-150 0 -150 -158v-14q0 -158 150 -158q80 0 115 39z" />
    <glyph glyph-name="one" unicode="1" horiz-adv-x="491" 
d="M151 5v428h-136q-5 0 -5 5v180q0 5 5 5h70q31 0 48.5 16.5t17.5 45.5v20q0 5 5 5h250q5 0 5 -5v-700q0 -5 -5 -5h-250q-5 0 -5 5z" />
    <glyph glyph-name="two" unicode="2" horiz-adv-x="900" 
d="M784.5 363q-50.5 -44 -118.5 -61.5t-173 -30.5q-87 -10 -127.5 -22t-40.5 -40v-9h240v65q0 5 5 5h250q5 0 5 -5v-260q0 -5 -5 -5h-755v193q0 92 60.5 144t139.5 72t189 34q67 9 94 15.5t27 19.5v4q0 14 -8 21.5t-36 12t-86 4.5q-50 0 -75.5 -5.5t-35 -17.5t-9.5 -35v-18
q0 -5 -5 -5h-250q-5 0 -5 5v60q0 83 44 130t126.5 66.5t209.5 19.5q132 0 216.5 -19t129 -66.5t44.5 -130.5v-18q0 -79 -50.5 -123z" />
    <glyph glyph-name="three" unicode="3" horiz-adv-x="890" 
d="M152.5 47q-97.5 57 -97.5 188v30q0 5 5 5h250q5 0 5 -5v-8q0 -24 10 -38t38 -21.5t82 -7.5q77 0 103.5 10t26.5 30v4q0 20 -15.5 28t-64.5 8h-122q-5 0 -5 5v160q0 5 5 5h122q70 0 70 38v4q0 20 -26.5 29t-103.5 9q-48 0 -71.5 -7t-31 -19t-7.5 -32v-17q0 -5 -5 -5h-250
q-5 0 -5 5v39q0 123 95 179.5t275 56.5q197 0 293.5 -48.5t96.5 -152.5v-13q0 -49 -24.5 -87t-96.5 -53v-10q131 -16 131 -142v-8q0 -79 -43 -126.5t-128 -68.5t-219 -21q-195 0 -292.5 57z" />
    <glyph glyph-name="four" unicode="4" horiz-adv-x="860" 
d="M483 5v127h-463v165l406 408q5 5 10 5h302q5 0 5 -5v-383h92q5 0 5 -5v-180q0 -5 -5 -5h-92v-127q0 -5 -5 -5h-250q-5 0 -5 5zM483 322v59q0 29 4.5 60t10.5 60l5 24h-10l-197 -203h187z" />
    <glyph glyph-name="five" unicode="5" horiz-adv-x="870" 
d="M708 462.5q58 -17.5 90 -64.5t32 -134v-18q0 -133 -94.5 -194.5t-285.5 -61.5q-181 0 -280.5 63.5t-99.5 182.5v19q0 5 5 5h250q5 0 5 -5v-7q0 -29 29 -48.5t91 -19.5q66 0 93 18.5t27 59.5v4q0 34 -29.5 51t-95.5 17q-63 0 -89 -8t-26 -17v-4q0 -5 -5 -5h-250q-5 0 -5 5
v404q0 5 5 5h715q5 0 5 -11v-179q0 -10 -5 -10h-460v-95h10q25 31 86.5 48t133.5 17q90 0 148 -17.5z" />
    <glyph glyph-name="six" unicode="6" horiz-adv-x="910" 
d="M590 444v13q0 25 -29 44t-91 19q-73 0 -110.5 -36t-38.5 -129h11q40 39 91.5 52t146.5 13q137 0 208.5 -38.5t71.5 -143.5v-18q0 -123 -97.5 -176.5t-292.5 -53.5q-181 0 -290.5 76.5t-109.5 269.5v38q0 188 111 267t289 79q185 0 287.5 -59.5t102.5 -176.5v-40
q0 -5 -5 -5h-250q-5 0 -5 5zM369 271.5q-39 -8.5 -46 -21.5q7 -39 37 -54.5t100 -15.5q72 0 101 12.5t29 39.5v4q0 25 -27.5 34.5t-102.5 9.5q-52 0 -91 -8.5z" />
    <glyph glyph-name="seven" unicode="7" horiz-adv-x="830" 
d="M790 705v-158q0 -66 -28 -120t-67.5 -94.5t-102.5 -93.5q-49 -42 -77 -69t-46.5 -58.5t-18.5 -65.5v-41q0 -5 -5 -5h-280q-5 0 -5 5v43q0 74 39 137t91 109t128 101q57 42 82 64.5t25 41.5v9h-235v-65q0 -5 -5 -5h-250q-5 0 -5 5v260q0 5 5 5h750q5 0 5 -5z" />
    <glyph glyph-name="eight" unicode="8" horiz-adv-x="890" 
d="M153 38.5q-98 48.5 -98 157.5v18q0 53 28.5 93t105.5 49v10q-124 25 -124 140v13q0 108 95.5 154.5t284.5 46.5q194 0 287 -46t93 -155v-13q0 -49 -24.5 -87t-96.5 -53v-10q131 -16 131 -142v-18q0 -110 -95 -158t-295 -48q-194 0 -292 48.5zM540 450.5q25 10.5 25 32.5
v6q0 21 -24.5 31t-95.5 10t-95.5 -10t-24.5 -31v-6q0 -22 25 -32.5t95 -10.5t95 10.5zM548.5 190.5q26.5 10.5 26.5 30.5v6q0 22 -26.5 32.5t-103.5 10.5t-103.5 -10.5t-26.5 -32.5v-6q0 -20 26.5 -30.5t103.5 -10.5t103.5 10.5z" />
    <glyph glyph-name="nine" unicode="9" horiz-adv-x="910" 
d="M740.5 643.5q109.5 -76.5 109.5 -269.5v-8q0 -129 -52 -213.5t-140 -123.5t-198 -39q-185 0 -287.5 59.5t-102.5 176.5v40q0 5 5 5h250q5 0 5 -5v-13q0 -31 31.5 -52t88.5 -21q70 0 104.5 40t34.5 135h-11q-40 -39 -91.5 -52t-146.5 -13q-131 0 -205.5 43t-74.5 136v18
q0 124 98 178.5t292 54.5q181 0 290.5 -76.5zM541 438.5q39 8.5 46 21.5q-7 39 -37 54.5t-100 15.5q-72 0 -101 -12.5t-29 -39.5v-4q0 -25 27.5 -34.5t102.5 -9.5q52 0 91 8.5z" />
    <glyph glyph-name="uni2080" unicode="&#x2080;" horiz-adv-x="596" 
d="M115 -112.5q-65 47.5 -65 144.5v31q0 98 65 145.5t183 47.5q248 0 248 -193v-31q0 -192 -248 -192q-118 0 -183 47.5zM353.5 -16q17.5 18 17.5 55v18q0 72 -73 72q-35 0 -54 -18.5t-19 -53.5v-18q0 -36 19 -54.5t54 -18.5q38 0 55.5 18z" />
    <glyph glyph-name="uni2081" unicode="&#x2081;" horiz-adv-x="328" 
d="M83 -147v234h-75q-3 0 -3 2v110q0 3 3 3h39q17 0 26.5 9t9.5 26v11q0 2 3 2h169q3 0 3 -2v-395q0 -3 -3 -3h-169q-3 0 -3 3z" />
    <glyph glyph-name="uni2082" unicode="&#x2082;" horiz-adv-x="588" 
d="M503 51.5q-30 -24.5 -70.5 -34t-102.5 -16.5q-54 -7 -77 -13.5t-23 -21.5v-5h123v31q0 3 3 3h169q2 0 2 -3v-139q0 -3 -2 -3h-470v107q0 50 34 78.5t79 41t109 21.5q42 6 61.5 11t19.5 15v2q0 9 -14 14t-48 5q-39 0 -52.5 -9t-13.5 -29v-5q0 -3 -3 -3h-169q-3 0 -3 3v28
q0 66 66 96t175 30q106 0 171.5 -30t65.5 -96v-10q0 -44 -30 -68.5z" />
    <glyph glyph-name="uni2083" unicode="&#x2083;" horiz-adv-x="569" 
d="M108 -131.5q-68 28.5 -68 90.5v34q0 3 3 3h159q3 0 3 -3v-10q0 -16 14 -24t52 -8q47 0 62.5 5t15.5 16v2q0 11 -10 16.5t-34 5.5h-68q-3 0 -3 2v99q0 3 3 3h68q39 0 39 21v2q0 11 -14.5 16t-58.5 5q-61 0 -61 -26v-15q0 -3 -2 -3h-159q-3 0 -3 3v38q0 59 63.5 87
t166.5 28q116 0 179 -26.5t63 -85.5v-7q0 -65 -67 -78v-6q42 -5 57.5 -31t15.5 -58v-4q0 -67 -59.5 -93.5t-179.5 -26.5q-109 0 -177 28.5z" />
    <glyph glyph-name="uni2084" unicode="&#x2084;" horiz-adv-x="546" 
d="M297 -147v70h-277v92l221 233q2 2 6 2h222q3 0 3 -2v-219h51q3 0 3 -3v-100q0 -3 -3 -3h-51v-70q0 -3 -3 -3h-169q-3 0 -3 3zM302 29v39q0 59 7 80h-10l-105 -119h108z" />
    <glyph glyph-name="uni2085" unicode="&#x2085;" horiz-adv-x="582" 
d="M487.5 86q49.5 -26 49.5 -94v-10q0 -72 -65.5 -107t-175.5 -35q-105 0 -173 37t-68 105v6q0 3 3 3h169q2 0 2 -3v-4q0 -19 14.5 -25.5t52.5 -6.5q37 0 52 7.5t15 29.5v2q0 19 -16 28.5t-51 9.5q-32 0 -49.5 -4.5t-17.5 -9.5v-2q0 -3 -2 -3h-169q-3 0 -3 3v234q0 3 3 3
h457q3 0 3 -6v-110q0 -5 -3 -5h-286v-53h6q14 17 48 26.5t74 9.5q81 0 130.5 -26z" />
    <glyph glyph-name="uni2086" unicode="&#x2086;" horiz-adv-x="598" 
d="M374 102v7q0 15 -16 25t-51 10q-40 0 -61 -20.5t-21 -72.5h6q25 21 58.5 28.5t83.5 7.5q175 0 175 -104v-10q0 -67 -67.5 -100t-178.5 -33q-106 0 -179 43t-73 149v21q0 109 73.5 156t178.5 47q106 0 176 -34t70 -98v-22q0 -3 -2 -3h-169q-3 0 -3 3zM254.5 3
q-21.5 -8 -27.5 -17q8 -40 75 -40q72 0 72 32v3q0 15 -16 22.5t-56 7.5q-26 0 -47.5 -8z" />
    <glyph glyph-name="uni2087" unicode="&#x2087;" horiz-adv-x="517" 
d="M497 252v-98q0 -52 -28.5 -89.5t-81.5 -82.5q-41 -34 -60 -56.5t-19 -49.5v-23q0 -3 -3 -3h-185q-3 0 -3 3v24q0 41 21.5 76t50 60t72.5 57q31 23 45 35.5t14 22.5v5h-131v-36q0 -3 -2 -3h-169q-3 0 -3 3v155q0 2 3 2h476q3 0 3 -2z" />
    <glyph glyph-name="uni2088" unicode="&#x2088;" horiz-adv-x="574" 
d="M111 -131q-66 29 -66 95v5q0 71 75 79v6q-69 14 -69 78v4q0 64 65 92t171 28q236 0 236 -120v-4q0 -65 -67 -78v-6q73 -8 73 -79v-5q0 -124 -242 -124q-110 0 -176 29zM349 122v2q0 26 -62 26t-62 -26v-2q0 -27 62 -27t62 27zM354 -29v3q0 27 -67 27t-67 -27v-3
q0 -25 67 -25t67 25z" />
    <glyph glyph-name="uni2089" unicode="&#x2089;" horiz-adv-x="598" 
d="M475 213q73 -43 73 -149v-21q0 -109 -73.5 -156t-178.5 -47t-173 34t-68 98v22q0 3 2 3h169q3 0 3 -3v-7q0 -35 62 -35q40 0 61 20.5t21 72.5h-6q-25 -21 -58.5 -28.5t-83.5 -7.5q-175 0 -175 104v10q0 67 67.5 100t178.5 33q106 0 179 -43zM343.5 93q21.5 8 27.5 17
q-8 40 -75 40q-72 0 -72 -32v-3q0 -15 16 -22.5t56 -7.5q26 0 47.5 8z" />
    <glyph glyph-name="zero.dnom" horiz-adv-x="596" 
d="M115 37.5q-65 47.5 -65 144.5v31q0 98 65 145.5t183 47.5q248 0 248 -193v-31q0 -192 -248 -192q-118 0 -183 47.5zM353.5 134q17.5 18 17.5 55v18q0 72 -73 72q-35 0 -54 -18.5t-19 -53.5v-18q0 -36 19 -54.5t54 -18.5q38 0 55.5 18z" />
    <glyph glyph-name="one.dnom" horiz-adv-x="328" 
d="M83 3v234h-75q-3 0 -3 2v110q0 3 3 3h39q17 0 26.5 9t9.5 26v11q0 2 3 2h169q3 0 3 -2v-395q0 -3 -3 -3h-169q-3 0 -3 3z" />
    <glyph glyph-name="two.dnom" horiz-adv-x="588" 
d="M503 201.5q-30 -24.5 -70.5 -34t-102.5 -16.5q-54 -7 -77 -13.5t-23 -21.5v-5h123v31q0 3 3 3h169q2 0 2 -3v-139q0 -3 -2 -3h-470v107q0 50 34 78.5t79 41t109 21.5q42 6 61.5 11t19.5 15v2q0 9 -14 14t-48 5q-39 0 -52.5 -9t-13.5 -29v-5q0 -3 -3 -3h-169q-3 0 -3 3v28
q0 66 66 96t175 30q106 0 171.5 -30t65.5 -96v-10q0 -44 -30 -68.5z" />
    <glyph glyph-name="three.dnom" horiz-adv-x="569" 
d="M108 18.5q-68 28.5 -68 90.5v34q0 3 3 3h159q3 0 3 -3v-10q0 -16 14 -24t52 -8q47 0 62.5 5t15.5 16v2q0 11 -10 16.5t-34 5.5h-68q-3 0 -3 2v99q0 3 3 3h68q39 0 39 21v2q0 11 -14.5 16t-58.5 5q-61 0 -61 -26v-15q0 -3 -2 -3h-159q-3 0 -3 3v38q0 59 63.5 87t166.5 28
q116 0 179 -26.5t63 -85.5v-7q0 -65 -67 -78v-6q42 -5 57.5 -31t15.5 -58v-4q0 -67 -59.5 -93.5t-179.5 -26.5q-109 0 -177 28.5z" />
    <glyph glyph-name="four.dnom" horiz-adv-x="546" 
d="M297 3v70h-277v92l221 233q2 2 6 2h222q3 0 3 -2v-219h51q3 0 3 -3v-100q0 -3 -3 -3h-51v-70q0 -3 -3 -3h-169q-3 0 -3 3zM302 179v39q0 59 7 80h-10l-105 -119h108z" />
    <glyph glyph-name="five.dnom" horiz-adv-x="582" 
d="M487.5 236q49.5 -26 49.5 -94v-10q0 -72 -65.5 -107t-175.5 -35q-105 0 -173 37t-68 105v6q0 3 3 3h169q2 0 2 -3v-4q0 -19 14.5 -25.5t52.5 -6.5q37 0 52 7.5t15 29.5v2q0 19 -16 28.5t-51 9.5q-32 0 -49.5 -4.5t-17.5 -9.5v-2q0 -3 -2 -3h-169q-3 0 -3 3v234q0 3 3 3
h457q3 0 3 -6v-110q0 -5 -3 -5h-286v-53h6q14 17 48 26.5t74 9.5q81 0 130.5 -26z" />
    <glyph glyph-name="six.dnom" horiz-adv-x="598" 
d="M374 252v7q0 15 -16 25t-51 10q-40 0 -61 -20.5t-21 -72.5h6q25 21 58.5 28.5t83.5 7.5q175 0 175 -104v-10q0 -67 -67.5 -100t-178.5 -33q-106 0 -179 43t-73 149v21q0 109 73.5 156t178.5 47q106 0 176 -34t70 -98v-22q0 -3 -2 -3h-169q-3 0 -3 3zM254.5 153
q-21.5 -8 -27.5 -17q8 -40 75 -40q72 0 72 32v3q0 15 -16 22.5t-56 7.5q-26 0 -47.5 -8z" />
    <glyph glyph-name="seven.dnom" horiz-adv-x="517" 
d="M497 402v-98q0 -52 -28.5 -89.5t-81.5 -82.5q-41 -34 -60 -56.5t-19 -49.5v-23q0 -3 -3 -3h-185q-3 0 -3 3v24q0 41 21.5 76t50 60t72.5 57q31 23 45 35.5t14 22.5v5h-131v-36q0 -3 -2 -3h-169q-3 0 -3 3v155q0 2 3 2h476q3 0 3 -2z" />
    <glyph glyph-name="eight.dnom" horiz-adv-x="574" 
d="M111 19q-66 29 -66 95v5q0 71 75 79v6q-69 14 -69 78v4q0 64 65 92t171 28q236 0 236 -120v-4q0 -65 -67 -78v-6q73 -8 73 -79v-5q0 -124 -242 -124q-110 0 -176 29zM349 272v2q0 26 -62 26t-62 -26v-2q0 -27 62 -27t62 27zM354 121v3q0 27 -67 27t-67 -27v-3
q0 -25 67 -25t67 25z" />
    <glyph glyph-name="nine.dnom" horiz-adv-x="598" 
d="M475 363q73 -43 73 -149v-21q0 -109 -73.5 -156t-178.5 -47t-173 34t-68 98v22q0 3 2 3h169q3 0 3 -3v-7q0 -35 62 -35q40 0 61 20.5t21 72.5h-6q-25 -21 -58.5 -28.5t-83.5 -7.5q-175 0 -175 104v10q0 67 67.5 100t178.5 33q106 0 179 -43zM343.5 243q21.5 8 27.5 17
q-8 40 -75 40q-72 0 -72 -32v-3q0 -15 16 -22.5t56 -7.5q26 0 47.5 8z" />
    <glyph glyph-name="zero.numr" horiz-adv-x="596" 
d="M115 351.5q-65 47.5 -65 144.5v31q0 98 65 145.5t183 47.5q248 0 248 -193v-31q0 -192 -248 -192q-118 0 -183 47.5zM353.5 448q17.5 18 17.5 55v18q0 72 -73 72q-35 0 -54 -18.5t-19 -53.5v-18q0 -36 19 -54.5t54 -18.5q38 0 55.5 18z" />
    <glyph glyph-name="one.numr" horiz-adv-x="328" 
d="M83 313v234h-75q-3 0 -3 2v110q0 3 3 3h39q17 0 26.5 9t9.5 26v11q0 2 3 2h169q3 0 3 -2v-395q0 -3 -3 -3h-169q-3 0 -3 3z" />
    <glyph glyph-name="two.numr" horiz-adv-x="588" 
d="M503 515.5q-30 -24.5 -70.5 -34t-102.5 -16.5q-54 -7 -77 -13.5t-23 -21.5v-5h123v31q0 3 3 3h169q2 0 2 -3v-139q0 -3 -2 -3h-470v107q0 50 34 78.5t79 41t109 21.5q42 6 61.5 11t19.5 15v2q0 9 -14 14t-48 5q-39 0 -52.5 -9t-13.5 -29v-5q0 -3 -3 -3h-169q-3 0 -3 3v28
q0 66 66 96t175 30q106 0 171.5 -30t65.5 -96v-10q0 -44 -30 -68.5z" />
    <glyph glyph-name="three.numr" horiz-adv-x="569" 
d="M108 332.5q-68 28.5 -68 90.5v34q0 3 3 3h159q3 0 3 -3v-10q0 -16 14 -24t52 -8q47 0 62.5 5t15.5 16v2q0 11 -10 16.5t-34 5.5h-68q-3 0 -3 2v99q0 3 3 3h68q39 0 39 21v2q0 11 -14.5 16t-58.5 5q-61 0 -61 -26v-15q0 -3 -2 -3h-159q-3 0 -3 3v38q0 59 63.5 87t166.5 28
q116 0 179 -26.5t63 -85.5v-7q0 -65 -67 -78v-6q42 -5 57.5 -31t15.5 -58v-4q0 -67 -59.5 -93.5t-179.5 -26.5q-109 0 -177 28.5z" />
    <glyph glyph-name="four.numr" horiz-adv-x="546" 
d="M297 313v70h-277v92l221 233q2 2 6 2h222q3 0 3 -2v-219h51q3 0 3 -3v-100q0 -3 -3 -3h-51v-70q0 -3 -3 -3h-169q-3 0 -3 3zM302 489v39q0 59 7 80h-10l-105 -119h108z" />
    <glyph glyph-name="five.numr" horiz-adv-x="582" 
d="M487.5 545q49.5 -26 49.5 -94v-10q0 -72 -65.5 -107t-175.5 -35q-105 0 -173 37t-68 105v6q0 3 3 3h169q2 0 2 -3v-4q0 -19 14.5 -25.5t52.5 -6.5q37 0 52 7.5t15 29.5v2q0 19 -16 28.5t-51 9.5q-32 0 -49.5 -4.5t-17.5 -9.5v-2q0 -3 -2 -3h-169q-3 0 -3 3v234q0 3 3 3
h457q3 0 3 -6v-110q0 -5 -3 -5h-286v-53h6q14 17 48 26.5t74 9.5q81 0 130.5 -26z" />
    <glyph glyph-name="six.numr" horiz-adv-x="598" 
d="M374 566v7q0 15 -16 25t-51 10q-40 0 -61 -20.5t-21 -72.5h6q25 21 58.5 28.5t83.5 7.5q175 0 175 -104v-10q0 -67 -67.5 -100t-178.5 -33q-106 0 -179 43t-73 149v21q0 109 73.5 156t178.5 47q106 0 176 -34t70 -98v-22q0 -3 -2 -3h-169q-3 0 -3 3zM254.5 467
q-21.5 -8 -27.5 -17q8 -40 75 -40q72 0 72 32v3q0 15 -16 22.5t-56 7.5q-26 0 -47.5 -8z" />
    <glyph glyph-name="seven.numr" horiz-adv-x="517" 
d="M497 708v-98q0 -52 -28.5 -89.5t-81.5 -82.5q-41 -34 -60 -56.5t-19 -49.5v-23q0 -3 -3 -3h-185q-3 0 -3 3v24q0 41 21.5 76t50 60t72.5 57q31 23 45 35.5t14 22.5v5h-131v-36q0 -3 -2 -3h-169q-3 0 -3 3v155q0 2 3 2h476q3 0 3 -2z" />
    <glyph glyph-name="eight.numr" horiz-adv-x="574" 
d="M111 333q-66 29 -66 95v5q0 71 75 79v6q-69 14 -69 78v4q0 64 65 92t171 28q236 0 236 -120v-4q0 -65 -67 -78v-6q73 -8 73 -79v-5q0 -124 -242 -124q-110 0 -176 29zM349 586v2q0 26 -62 26t-62 -26v-2q0 -27 62 -27t62 27zM354 435v3q0 27 -67 27t-67 -27v-3
q0 -25 67 -25t67 25z" />
    <glyph glyph-name="nine.numr" horiz-adv-x="598" 
d="M475 676q73 -43 73 -149v-21q0 -109 -73.5 -156t-178.5 -47t-173 34t-68 98v22q0 3 2 3h169q3 0 3 -3v-7q0 -35 62 -35q40 0 61 20.5t21 72.5h-6q-25 -21 -58.5 -28.5t-83.5 -7.5q-175 0 -175 104v10q0 67 67.5 100t178.5 33q106 0 179 -43zM343.5 556q21.5 8 27.5 17
q-8 40 -75 40q-72 0 -72 -32v-3q0 -15 16 -22.5t56 -7.5q26 0 47.5 8z" />
    <glyph glyph-name="uni2070" unicode="&#x2070;" horiz-adv-x="596" 
d="M115 501.5q-65 47.5 -65 144.5v31q0 98 65 145.5t183 47.5q248 0 248 -193v-31q0 -192 -248 -192q-118 0 -183 47.5zM353.5 598q17.5 18 17.5 55v18q0 72 -73 72q-35 0 -54 -18.5t-19 -53.5v-18q0 -36 19 -54.5t54 -18.5q38 0 55.5 18z" />
    <glyph glyph-name="uni00B9" unicode="&#xb9;" horiz-adv-x="328" 
d="M83 463v234h-75q-3 0 -3 2v110q0 3 3 3h39q17 0 26.5 9t9.5 26v11q0 2 3 2h169q3 0 3 -2v-395q0 -3 -3 -3h-169q-3 0 -3 3z" />
    <glyph glyph-name="uni00B2" unicode="&#xb2;" horiz-adv-x="588" 
d="M503 665.5q-30 -24.5 -70.5 -34t-102.5 -16.5q-54 -7 -77 -13.5t-23 -21.5v-5h123v31q0 3 3 3h169q2 0 2 -3v-139q0 -3 -2 -3h-470v107q0 50 34 78.5t79 41t109 21.5q42 6 61.5 11t19.5 15v2q0 9 -14 14t-48 5q-39 0 -52.5 -9t-13.5 -29v-5q0 -3 -3 -3h-169q-3 0 -3 3v28
q0 66 66 96t175 30q106 0 171.5 -30t65.5 -96v-10q0 -44 -30 -68.5z" />
    <glyph glyph-name="uni00B3" unicode="&#xb3;" horiz-adv-x="569" 
d="M108 482.5q-68 28.5 -68 90.5v34q0 3 3 3h159q3 0 3 -3v-10q0 -16 14 -24t52 -8q47 0 62.5 5t15.5 16v2q0 11 -10 16.5t-34 5.5h-68q-3 0 -3 2v99q0 3 3 3h68q39 0 39 21v2q0 11 -14.5 16t-58.5 5q-61 0 -61 -26v-15q0 -3 -2 -3h-159q-3 0 -3 3v38q0 59 63.5 87t166.5 28
q116 0 179 -26.5t63 -85.5v-7q0 -65 -67 -78v-6q42 -5 57.5 -31t15.5 -58v-4q0 -67 -59.5 -93.5t-179.5 -26.5q-109 0 -177 28.5z" />
    <glyph glyph-name="uni2074" unicode="&#x2074;" horiz-adv-x="546" 
d="M297 463v70h-277v92l221 233q2 2 6 2h222q3 0 3 -2v-219h51q3 0 3 -3v-100q0 -3 -3 -3h-51v-70q0 -3 -3 -3h-169q-3 0 -3 3zM302 639v39q0 59 7 80h-10l-105 -119h108z" />
    <glyph glyph-name="uni2075" unicode="&#x2075;" horiz-adv-x="582" 
d="M487.5 695q49.5 -26 49.5 -94v-10q0 -72 -65.5 -107t-175.5 -35q-105 0 -173 37t-68 105v6q0 3 3 3h169q2 0 2 -3v-4q0 -19 14.5 -25.5t52.5 -6.5q37 0 52 7.5t15 29.5v2q0 19 -16 28.5t-51 9.5q-32 0 -49.5 -4.5t-17.5 -9.5v-2q0 -3 -2 -3h-169q-3 0 -3 3v234q0 3 3 3
h457q3 0 3 -6v-110q0 -5 -3 -5h-286v-53h6q14 17 48 26.5t74 9.5q81 0 130.5 -26z" />
    <glyph glyph-name="uni2076" unicode="&#x2076;" horiz-adv-x="598" 
d="M374 716v7q0 15 -16 25t-51 10q-40 0 -61 -20.5t-21 -72.5h6q25 21 58.5 28.5t83.5 7.5q175 0 175 -104v-10q0 -67 -67.5 -100t-178.5 -33q-106 0 -179 43t-73 149v21q0 109 73.5 156t178.5 47q106 0 176 -34t70 -98v-22q0 -3 -2 -3h-169q-3 0 -3 3zM254.5 617
q-21.5 -8 -27.5 -17q8 -40 75 -40q72 0 72 32v3q0 15 -16 22.5t-56 7.5q-26 0 -47.5 -8z" />
    <glyph glyph-name="uni2077" unicode="&#x2077;" horiz-adv-x="517" 
d="M497 858v-98q0 -52 -28.5 -89.5t-81.5 -82.5q-41 -34 -60 -56.5t-19 -49.5v-23q0 -3 -3 -3h-185q-3 0 -3 3v24q0 41 21.5 76t50 60t72.5 57q31 23 45 35.5t14 22.5v5h-131v-36q0 -3 -2 -3h-169q-3 0 -3 3v155q0 2 3 2h476q3 0 3 -2z" />
    <glyph glyph-name="uni2078" unicode="&#x2078;" horiz-adv-x="574" 
d="M111 483q-66 29 -66 95v5q0 71 75 79v6q-69 14 -69 78v4q0 64 65 92t171 28q236 0 236 -120v-4q0 -65 -67 -78v-6q73 -8 73 -79v-5q0 -124 -242 -124q-110 0 -176 29zM349 736v2q0 26 -62 26t-62 -26v-2q0 -27 62 -27t62 27zM354 585v3q0 27 -67 27t-67 -27v-3
q0 -25 67 -25t67 25z" />
    <glyph glyph-name="uni2079" unicode="&#x2079;" horiz-adv-x="598" 
d="M475 826q73 -43 73 -149v-21q0 -109 -73.5 -156t-178.5 -47t-173 34t-68 98v22q0 3 2 3h169q3 0 3 -3v-7q0 -35 62 -35q40 0 61 20.5t21 72.5h-6q-25 -21 -58.5 -28.5t-83.5 -7.5q-175 0 -175 104v10q0 67 67.5 100t178.5 33q106 0 179 -43zM343.5 706q21.5 8 27.5 17
q-8 40 -75 40q-72 0 -72 -32v-3q0 -15 16 -22.5t56 -7.5q26 0 47.5 8z" />
    <glyph glyph-name="fraction" unicode="&#x2044;" horiz-adv-x="654" 
d="M1 5l462 700q1 1 2 3t3 2h183q5 0 2 -5l-462 -700q-1 -1 -2 -3t-3 -2h-183q-5 0 -2 5z" />
    <glyph glyph-name="onehalf" unicode="&#xbd;" horiz-adv-x="1190" 
d="M83 313v234h-75q-3 0 -3 2v110q0 3 3 3h39q17 0 26.5 9t9.5 26v11q0 2 3 2h169q3 0 3 -2v-395q0 -3 -3 -3h-169q-3 0 -3 3zM159 5l462 700q1 1 2 3t3 2h183q5 0 2 -5l-462 -700q-1 -1 -2 -3t-3 -2h-183q-5 0 -2 5zM1105 201.5q-30 -24.5 -70.5 -34t-102.5 -16.5
q-54 -7 -77 -13.5t-23 -21.5v-5h123v31q0 3 3 3h169q2 0 2 -3v-139q0 -3 -2 -3h-470v107q0 50 34 78.5t79 41t109 21.5q42 6 61.5 11t19.5 15v2q0 9 -14 14t-48 5q-39 0 -52.5 -9t-13.5 -29v-5q0 -3 -3 -3h-169q-3 0 -3 3v28q0 66 66 96t175 30q106 0 171.5 -30t65.5 -96
v-10q0 -44 -30 -68.5z" />
    <glyph glyph-name="uni2153" unicode="&#x2153;" horiz-adv-x="1161" 
d="M83 313v234h-75q-3 0 -3 2v110q0 3 3 3h39q17 0 26.5 9t9.5 26v11q0 2 3 2h169q3 0 3 -2v-395q0 -3 -3 -3h-169q-3 0 -3 3zM159 5l462 700q1 1 2 3t3 2h183q5 0 2 -5l-462 -700q-1 -1 -2 -3t-3 -2h-183q-5 0 -2 5zM700 18.5q-68 28.5 -68 90.5v34q0 3 3 3h159q3 0 3 -3
v-10q0 -16 14 -24t52 -8q47 0 62.5 5t15.5 16v2q0 11 -10 16.5t-34 5.5h-68q-3 0 -3 2v99q0 3 3 3h68q39 0 39 21v2q0 11 -14.5 16t-58.5 5q-61 0 -61 -26v-15q0 -3 -2 -3h-159q-3 0 -3 3v38q0 59 63.5 87t166.5 28q116 0 179 -26.5t63 -85.5v-7q0 -65 -67 -78v-6
q42 -5 57.5 -31t15.5 -58v-4q0 -67 -59.5 -93.5t-179.5 -26.5q-109 0 -177 28.5z" />
    <glyph glyph-name="uni2154" unicode="&#x2154;" horiz-adv-x="1371" 
d="M503 515.5q-30 -24.5 -70.5 -34t-102.5 -16.5q-54 -7 -77 -13.5t-23 -21.5v-5h123v31q0 3 3 3h169q2 0 2 -3v-139q0 -3 -2 -3h-470v107q0 50 34 78.5t79 41t109 21.5q42 6 61.5 11t19.5 15v2q0 9 -14 14t-48 5q-39 0 -52.5 -9t-13.5 -29v-5q0 -3 -3 -3h-169q-3 0 -3 3v28
q0 66 66 96t175 30q106 0 171.5 -30t65.5 -96v-10q0 -44 -30 -68.5zM369 5l462 700q1 1 2 3t3 2h183q5 0 2 -5l-462 -700q-1 -1 -2 -3t-3 -2h-183q-5 0 -2 5zM910 18.5q-68 28.5 -68 90.5v34q0 3 3 3h159q3 0 3 -3v-10q0 -16 14 -24t52 -8q47 0 62.5 5t15.5 16v2
q0 11 -10 16.5t-34 5.5h-68q-3 0 -3 2v99q0 3 3 3h68q39 0 39 21v2q0 11 -14.5 16t-58.5 5q-61 0 -61 -26v-15q0 -3 -2 -3h-159q-3 0 -3 3v38q0 59 63.5 87t166.5 28q116 0 179 -26.5t63 -85.5v-7q0 -65 -67 -78v-6q42 -5 57.5 -31t15.5 -58v-4q0 -67 -59.5 -93.5
t-179.5 -26.5q-109 0 -177 28.5z" />
    <glyph glyph-name="onequarter" unicode="&#xbc;" horiz-adv-x="1088" 
d="M83 313v234h-75q-3 0 -3 2v110q0 3 3 3h39q17 0 26.5 9t9.5 26v11q0 2 3 2h169q3 0 3 -2v-395q0 -3 -3 -3h-169q-3 0 -3 3zM159 5l462 700q1 1 2 3t3 2h183q5 0 2 -5l-462 -700q-1 -1 -2 -3t-3 -2h-183q-5 0 -2 5zM839 3v70h-277v92l221 233q2 2 6 2h222q3 0 3 -2v-219
h51q3 0 3 -3v-100q0 -3 -3 -3h-51v-70q0 -3 -3 -3h-169q-3 0 -3 3zM844 179v39q0 59 7 80h-10l-105 -119h108z" />
    <glyph glyph-name="threequarters" unicode="&#xbe;" horiz-adv-x="1269" 
d="M108 332.5q-68 28.5 -68 90.5v34q0 3 3 3h159q3 0 3 -3v-10q0 -16 14 -24t52 -8q47 0 62.5 5t15.5 16v2q0 11 -10 16.5t-34 5.5h-68q-3 0 -3 2v99q0 3 3 3h68q39 0 39 21v2q0 11 -14.5 16t-58.5 5q-61 0 -61 -26v-15q0 -3 -2 -3h-159q-3 0 -3 3v38q0 59 63.5 87t166.5 28
q116 0 179 -26.5t63 -85.5v-7q0 -65 -67 -78v-6q42 -5 57.5 -31t15.5 -58v-4q0 -67 -59.5 -93.5t-179.5 -26.5q-109 0 -177 28.5zM340 5l462 700q1 1 2 3t3 2h183q5 0 2 -5l-462 -700q-1 -1 -2 -3t-3 -2h-183q-5 0 -2 5zM1020 3v70h-277v92l221 233q2 2 6 2h222q3 0 3 -2
v-219h51q3 0 3 -3v-100q0 -3 -3 -3h-51v-70q0 -3 -3 -3h-169q-3 0 -3 3zM1025 179v39q0 59 7 80h-10l-105 -119h108z" />
    <glyph glyph-name="uni2155" unicode="&#x2155;" horiz-adv-x="1184" 
d="M83 313v234h-75q-3 0 -3 2v110q0 3 3 3h39q17 0 26.5 9t9.5 26v11q0 2 3 2h169q3 0 3 -2v-395q0 -3 -3 -3h-169q-3 0 -3 3zM159 5l462 700q1 1 2 3t3 2h183q5 0 2 -5l-462 -700q-1 -1 -2 -3t-3 -2h-183q-5 0 -2 5zM1089.5 236q49.5 -26 49.5 -94v-10q0 -72 -65.5 -107
t-175.5 -35q-105 0 -173 37t-68 105v6q0 3 3 3h169q2 0 2 -3v-4q0 -19 14.5 -25.5t52.5 -6.5q37 0 52 7.5t15 29.5v2q0 19 -16 28.5t-51 9.5q-32 0 -49.5 -4.5t-17.5 -9.5v-2q0 -3 -2 -3h-169q-3 0 -3 3v234q0 3 3 3h457q3 0 3 -6v-110q0 -5 -3 -5h-286v-53h6q14 17 48 26.5
t74 9.5q81 0 130.5 -26z" />
    <glyph glyph-name="uni2156" unicode="&#x2156;" horiz-adv-x="1394" 
d="M503 515.5q-30 -24.5 -70.5 -34t-102.5 -16.5q-54 -7 -77 -13.5t-23 -21.5v-5h123v31q0 3 3 3h169q2 0 2 -3v-139q0 -3 -2 -3h-470v107q0 50 34 78.5t79 41t109 21.5q42 6 61.5 11t19.5 15v2q0 9 -14 14t-48 5q-39 0 -52.5 -9t-13.5 -29v-5q0 -3 -3 -3h-169q-3 0 -3 3v28
q0 66 66 96t175 30q106 0 171.5 -30t65.5 -96v-10q0 -44 -30 -68.5zM369 5l462 700q1 1 2 3t3 2h183q5 0 2 -5l-462 -700q-1 -1 -2 -3t-3 -2h-183q-5 0 -2 5zM1299.5 236q49.5 -26 49.5 -94v-10q0 -72 -65.5 -107t-175.5 -35q-105 0 -173 37t-68 105v6q0 3 3 3h169q2 0 2 -3
v-4q0 -19 14.5 -25.5t52.5 -6.5q37 0 52 7.5t15 29.5v2q0 19 -16 28.5t-51 9.5q-32 0 -49.5 -4.5t-17.5 -9.5v-2q0 -3 -2 -3h-169q-3 0 -3 3v234q0 3 3 3h457q3 0 3 -6v-110q0 -5 -3 -5h-286v-53h6q14 17 48 26.5t74 9.5q81 0 130.5 -26z" />
    <glyph glyph-name="uni2157" unicode="&#x2157;" horiz-adv-x="1365" 
d="M108 332.5q-68 28.5 -68 90.5v34q0 3 3 3h159q3 0 3 -3v-10q0 -16 14 -24t52 -8q47 0 62.5 5t15.5 16v2q0 11 -10 16.5t-34 5.5h-68q-3 0 -3 2v99q0 3 3 3h68q39 0 39 21v2q0 11 -14.5 16t-58.5 5q-61 0 -61 -26v-15q0 -3 -2 -3h-159q-3 0 -3 3v38q0 59 63.5 87t166.5 28
q116 0 179 -26.5t63 -85.5v-7q0 -65 -67 -78v-6q42 -5 57.5 -31t15.5 -58v-4q0 -67 -59.5 -93.5t-179.5 -26.5q-109 0 -177 28.5zM340 5l462 700q1 1 2 3t3 2h183q5 0 2 -5l-462 -700q-1 -1 -2 -3t-3 -2h-183q-5 0 -2 5zM1270.5 236q49.5 -26 49.5 -94v-10q0 -72 -65.5 -107
t-175.5 -35q-105 0 -173 37t-68 105v6q0 3 3 3h169q2 0 2 -3v-4q0 -19 14.5 -25.5t52.5 -6.5q37 0 52 7.5t15 29.5v2q0 19 -16 28.5t-51 9.5q-32 0 -49.5 -4.5t-17.5 -9.5v-2q0 -3 -2 -3h-169q-3 0 -3 3v234q0 3 3 3h457q3 0 3 -6v-110q0 -5 -3 -5h-286v-53h6q14 17 48 26.5
t74 9.5q81 0 130.5 -26z" />
    <glyph glyph-name="uni2158" unicode="&#x2158;" horiz-adv-x="1392" 
d="M297 313v70h-277v92l221 233q2 2 6 2h222q3 0 3 -2v-219h51q3 0 3 -3v-100q0 -3 -3 -3h-51v-70q0 -3 -3 -3h-169q-3 0 -3 3zM302 489v39q0 59 7 80h-10l-105 -119h108zM367 5l462 700q1 1 2 3t3 2h183q5 0 2 -5l-462 -700q-1 -1 -2 -3t-3 -2h-183q-5 0 -2 5zM1297.5 236
q49.5 -26 49.5 -94v-10q0 -72 -65.5 -107t-175.5 -35q-105 0 -173 37t-68 105v6q0 3 3 3h169q2 0 2 -3v-4q0 -19 14.5 -25.5t52.5 -6.5q37 0 52 7.5t15 29.5v2q0 19 -16 28.5t-51 9.5q-32 0 -49.5 -4.5t-17.5 -9.5v-2q0 -3 -2 -3h-169q-3 0 -3 3v234q0 3 3 3h457q3 0 3 -6
v-110q0 -5 -3 -5h-286v-53h6q14 17 48 26.5t74 9.5q81 0 130.5 -26z" />
    <glyph glyph-name="uni2159" unicode="&#x2159;" horiz-adv-x="1170" 
d="M83 313v234h-75q-3 0 -3 2v110q0 3 3 3h39q17 0 26.5 9t9.5 26v11q0 2 3 2h169q3 0 3 -2v-395q0 -3 -3 -3h-169q-3 0 -3 3zM159 5l462 700q1 1 2 3t3 2h183q5 0 2 -5l-462 -700q-1 -1 -2 -3t-3 -2h-183q-5 0 -2 5zM946 252v7q0 15 -16 25t-51 10q-40 0 -61 -20.5
t-21 -72.5h6q25 21 58.5 28.5t83.5 7.5q175 0 175 -104v-10q0 -67 -67.5 -100t-178.5 -33q-106 0 -179 43t-73 149v21q0 109 73.5 156t178.5 47q106 0 176 -34t70 -98v-22q0 -3 -2 -3h-169q-3 0 -3 3zM826.5 153q-21.5 -8 -27.5 -17q8 -40 75 -40q72 0 72 32v3
q0 15 -16 22.5t-56 7.5q-26 0 -47.5 -8z" />
    <glyph glyph-name="uni215A" unicode="&#x215a;" horiz-adv-x="1354" 
d="M487.5 545q49.5 -26 49.5 -94v-10q0 -72 -65.5 -107t-175.5 -35q-105 0 -173 37t-68 105v6q0 3 3 3h169q2 0 2 -3v-4q0 -19 14.5 -25.5t52.5 -6.5q37 0 52 7.5t15 29.5v2q0 19 -16 28.5t-51 9.5q-32 0 -49.5 -4.5t-17.5 -9.5v-2q0 -3 -2 -3h-169q-3 0 -3 3v234q0 3 3 3
h457q3 0 3 -6v-110q0 -5 -3 -5h-286v-53h6q14 17 48 26.5t74 9.5q81 0 130.5 -26zM343 5l462 700q1 1 2 3t3 2h183q5 0 2 -5l-462 -700q-1 -1 -2 -3t-3 -2h-183q-5 0 -2 5zM1130 252v7q0 15 -16 25t-51 10q-40 0 -61 -20.5t-21 -72.5h6q25 21 58.5 28.5t83.5 7.5
q175 0 175 -104v-10q0 -67 -67.5 -100t-178.5 -33q-106 0 -179 43t-73 149v21q0 109 73.5 156t178.5 47q106 0 176 -34t70 -98v-22q0 -3 -2 -3h-169q-3 0 -3 3zM1010.5 153q-21.5 -8 -27.5 -17q8 -40 75 -40q72 0 72 32v3q0 15 -16 22.5t-56 7.5q-26 0 -47.5 -8z" />
    <glyph glyph-name="uni2150" unicode="&#x2150;" horiz-adv-x="1179" 
d="M83 313v234h-75q-3 0 -3 2v110q0 3 3 3h39q17 0 26.5 9t9.5 26v11q0 2 3 2h169q3 0 3 -2v-395q0 -3 -3 -3h-169q-3 0 -3 3zM159 5l462 700q1 1 2 3t3 2h183q5 0 2 -5l-462 -700q-1 -1 -2 -3t-3 -2h-183q-5 0 -2 5zM1159 402v-98q0 -52 -28.5 -89.5t-81.5 -82.5
q-41 -34 -60 -56.5t-19 -49.5v-23q0 -3 -3 -3h-185q-3 0 -3 3v24q0 41 21.5 76t50 60t72.5 57q31 23 45 35.5t14 22.5v5h-131v-36q0 -3 -2 -3h-169q-3 0 -3 3v155q0 2 3 2h476q3 0 3 -2z" />
    <glyph glyph-name="two_fraction_seven" horiz-adv-x="1389" 
d="M503 515.5q-30 -24.5 -70.5 -34t-102.5 -16.5q-54 -7 -77 -13.5t-23 -21.5v-5h123v31q0 3 3 3h169q2 0 2 -3v-139q0 -3 -2 -3h-470v107q0 50 34 78.5t79 41t109 21.5q42 6 61.5 11t19.5 15v2q0 9 -14 14t-48 5q-39 0 -52.5 -9t-13.5 -29v-5q0 -3 -3 -3h-169q-3 0 -3 3v28
q0 66 66 96t175 30q106 0 171.5 -30t65.5 -96v-10q0 -44 -30 -68.5zM369 5l462 700q1 1 2 3t3 2h183q5 0 2 -5l-462 -700q-1 -1 -2 -3t-3 -2h-183q-5 0 -2 5zM1369 402v-98q0 -52 -28.5 -89.5t-81.5 -82.5q-41 -34 -60 -56.5t-19 -49.5v-23q0 -3 -3 -3h-185q-3 0 -3 3v24
q0 41 21.5 76t50 60t72.5 57q31 23 45 35.5t14 22.5v5h-131v-36q0 -3 -2 -3h-169q-3 0 -3 3v155q0 2 3 2h476q3 0 3 -2z" />
    <glyph glyph-name="three_fraction_seven" horiz-adv-x="1360" 
d="M108 332.5q-68 28.5 -68 90.5v34q0 3 3 3h159q3 0 3 -3v-10q0 -16 14 -24t52 -8q47 0 62.5 5t15.5 16v2q0 11 -10 16.5t-34 5.5h-68q-3 0 -3 2v99q0 3 3 3h68q39 0 39 21v2q0 11 -14.5 16t-58.5 5q-61 0 -61 -26v-15q0 -3 -2 -3h-159q-3 0 -3 3v38q0 59 63.5 87t166.5 28
q116 0 179 -26.5t63 -85.5v-7q0 -65 -67 -78v-6q42 -5 57.5 -31t15.5 -58v-4q0 -67 -59.5 -93.5t-179.5 -26.5q-109 0 -177 28.5zM340 5l462 700q1 1 2 3t3 2h183q5 0 2 -5l-462 -700q-1 -1 -2 -3t-3 -2h-183q-5 0 -2 5zM1340 402v-98q0 -52 -28.5 -89.5t-81.5 -82.5
q-41 -34 -60 -56.5t-19 -49.5v-23q0 -3 -3 -3h-185q-3 0 -3 3v24q0 41 21.5 76t50 60t72.5 57q31 23 45 35.5t14 22.5v5h-131v-36q0 -3 -2 -3h-169q-3 0 -3 3v155q0 2 3 2h476q3 0 3 -2z" />
    <glyph glyph-name="four_fraction_seven" horiz-adv-x="1387" 
d="M297 313v70h-277v92l221 233q2 2 6 2h222q3 0 3 -2v-219h51q3 0 3 -3v-100q0 -3 -3 -3h-51v-70q0 -3 -3 -3h-169q-3 0 -3 3zM302 489v39q0 59 7 80h-10l-105 -119h108zM367 5l462 700q1 1 2 3t3 2h183q5 0 2 -5l-462 -700q-1 -1 -2 -3t-3 -2h-183q-5 0 -2 5zM1367 402
v-98q0 -52 -28.5 -89.5t-81.5 -82.5q-41 -34 -60 -56.5t-19 -49.5v-23q0 -3 -3 -3h-185q-3 0 -3 3v24q0 41 21.5 76t50 60t72.5 57q31 23 45 35.5t14 22.5v5h-131v-36q0 -3 -2 -3h-169q-3 0 -3 3v155q0 2 3 2h476q3 0 3 -2z" />
    <glyph glyph-name="five_fraction_seven" horiz-adv-x="1363" 
d="M487.5 545q49.5 -26 49.5 -94v-10q0 -72 -65.5 -107t-175.5 -35q-105 0 -173 37t-68 105v6q0 3 3 3h169q2 0 2 -3v-4q0 -19 14.5 -25.5t52.5 -6.5q37 0 52 7.5t15 29.5v2q0 19 -16 28.5t-51 9.5q-32 0 -49.5 -4.5t-17.5 -9.5v-2q0 -3 -2 -3h-169q-3 0 -3 3v234q0 3 3 3
h457q3 0 3 -6v-110q0 -5 -3 -5h-286v-53h6q14 17 48 26.5t74 9.5q81 0 130.5 -26zM343 5l462 700q1 1 2 3t3 2h183q5 0 2 -5l-462 -700q-1 -1 -2 -3t-3 -2h-183q-5 0 -2 5zM1343 402v-98q0 -52 -28.5 -89.5t-81.5 -82.5q-41 -34 -60 -56.5t-19 -49.5v-23q0 -3 -3 -3h-185
q-3 0 -3 3v24q0 41 21.5 76t50 60t72.5 57q31 23 45 35.5t14 22.5v5h-131v-36q0 -3 -2 -3h-169q-3 0 -3 3v155q0 2 3 2h476q3 0 3 -2z" />
    <glyph glyph-name="six_fraction_seven" horiz-adv-x="1379" 
d="M374 566v7q0 15 -16 25t-51 10q-40 0 -61 -20.5t-21 -72.5h6q25 21 58.5 28.5t83.5 7.5q175 0 175 -104v-10q0 -67 -67.5 -100t-178.5 -33q-106 0 -179 43t-73 149v21q0 109 73.5 156t178.5 47q106 0 176 -34t70 -98v-22q0 -3 -2 -3h-169q-3 0 -3 3zM254.5 467
q-21.5 -8 -27.5 -17q8 -40 75 -40q72 0 72 32v3q0 15 -16 22.5t-56 7.5q-26 0 -47.5 -8zM359 5l462 700q1 1 2 3t3 2h183q5 0 2 -5l-462 -700q-1 -1 -2 -3t-3 -2h-183q-5 0 -2 5zM1359 402v-98q0 -52 -28.5 -89.5t-81.5 -82.5q-41 -34 -60 -56.5t-19 -49.5v-23q0 -3 -3 -3
h-185q-3 0 -3 3v24q0 41 21.5 76t50 60t72.5 57q31 23 45 35.5t14 22.5v5h-131v-36q0 -3 -2 -3h-169q-3 0 -3 3v155q0 2 3 2h476q3 0 3 -2z" />
    <glyph glyph-name="oneeighth" unicode="&#x215b;" horiz-adv-x="1176" 
d="M83 313v234h-75q-3 0 -3 2v110q0 3 3 3h39q17 0 26.5 9t9.5 26v11q0 2 3 2h169q3 0 3 -2v-395q0 -3 -3 -3h-169q-3 0 -3 3zM159 5l462 700q1 1 2 3t3 2h183q5 0 2 -5l-462 -700q-1 -1 -2 -3t-3 -2h-183q-5 0 -2 5zM713 19q-66 29 -66 95v5q0 71 75 79v6q-69 14 -69 78v4
q0 64 65 92t171 28q236 0 236 -120v-4q0 -65 -67 -78v-6q73 -8 73 -79v-5q0 -124 -242 -124q-110 0 -176 29zM951 272v2q0 26 -62 26t-62 -26v-2q0 -27 62 -27t62 27zM956 121v3q0 27 -67 27t-67 -27v-3q0 -25 67 -25t67 25z" />
    <glyph glyph-name="threeeighths" unicode="&#x215c;" horiz-adv-x="1357" 
d="M108 332.5q-68 28.5 -68 90.5v34q0 3 3 3h159q3 0 3 -3v-10q0 -16 14 -24t52 -8q47 0 62.5 5t15.5 16v2q0 11 -10 16.5t-34 5.5h-68q-3 0 -3 2v99q0 3 3 3h68q39 0 39 21v2q0 11 -14.5 16t-58.5 5q-61 0 -61 -26v-15q0 -3 -2 -3h-159q-3 0 -3 3v38q0 59 63.5 87t166.5 28
q116 0 179 -26.5t63 -85.5v-7q0 -65 -67 -78v-6q42 -5 57.5 -31t15.5 -58v-4q0 -67 -59.5 -93.5t-179.5 -26.5q-109 0 -177 28.5zM340 5l462 700q1 1 2 3t3 2h183q5 0 2 -5l-462 -700q-1 -1 -2 -3t-3 -2h-183q-5 0 -2 5zM894 19q-66 29 -66 95v5q0 71 75 79v6q-69 14 -69 78
v4q0 64 65 92t171 28q236 0 236 -120v-4q0 -65 -67 -78v-6q73 -8 73 -79v-5q0 -124 -242 -124q-110 0 -176 29zM1132 272v2q0 26 -62 26t-62 -26v-2q0 -27 62 -27t62 27zM1137 121v3q0 27 -67 27t-67 -27v-3q0 -25 67 -25t67 25z" />
    <glyph glyph-name="fiveeighths" unicode="&#x215d;" horiz-adv-x="1360" 
d="M487.5 545q49.5 -26 49.5 -94v-10q0 -72 -65.5 -107t-175.5 -35q-105 0 -173 37t-68 105v6q0 3 3 3h169q2 0 2 -3v-4q0 -19 14.5 -25.5t52.5 -6.5q37 0 52 7.5t15 29.5v2q0 19 -16 28.5t-51 9.5q-32 0 -49.5 -4.5t-17.5 -9.5v-2q0 -3 -2 -3h-169q-3 0 -3 3v234q0 3 3 3
h457q3 0 3 -6v-110q0 -5 -3 -5h-286v-53h6q14 17 48 26.5t74 9.5q81 0 130.5 -26zM343 5l462 700q1 1 2 3t3 2h183q5 0 2 -5l-462 -700q-1 -1 -2 -3t-3 -2h-183q-5 0 -2 5zM897 19q-66 29 -66 95v5q0 71 75 79v6q-69 14 -69 78v4q0 64 65 92t171 28q236 0 236 -120v-4
q0 -65 -67 -78v-6q73 -8 73 -79v-5q0 -124 -242 -124q-110 0 -176 29zM1135 272v2q0 26 -62 26t-62 -26v-2q0 -27 62 -27t62 27zM1140 121v3q0 27 -67 27t-67 -27v-3q0 -25 67 -25t67 25z" />
    <glyph glyph-name="seveneighths" unicode="&#x215e;" horiz-adv-x="1265" 
d="M497 708v-98q0 -52 -28.5 -89.5t-81.5 -82.5q-41 -34 -60 -56.5t-19 -49.5v-23q0 -3 -3 -3h-185q-3 0 -3 3v24q0 41 21.5 76t50 60t72.5 57q31 23 45 35.5t14 22.5v5h-131v-36q0 -3 -2 -3h-169q-3 0 -3 3v155q0 2 3 2h476q3 0 3 -2zM248 5l462 700q1 1 2 3t3 2h183
q5 0 2 -5l-462 -700q-1 -1 -2 -3t-3 -2h-183q-5 0 -2 5zM802 19q-66 29 -66 95v5q0 71 75 79v6q-69 14 -69 78v4q0 64 65 92t171 28q236 0 236 -120v-4q0 -65 -67 -78v-6q73 -8 73 -79v-5q0 -124 -242 -124q-110 0 -176 29zM1040 272v2q0 26 -62 26t-62 -26v-2q0 -27 62 -27
t62 27zM1045 121v3q0 27 -67 27t-67 -27v-3q0 -25 67 -25t67 25z" />
    <glyph glyph-name="uni2151" unicode="&#x2151;" horiz-adv-x="1170" 
d="M83 313v234h-75q-3 0 -3 2v110q0 3 3 3h39q17 0 26.5 9t9.5 26v11q0 2 3 2h169q3 0 3 -2v-395q0 -3 -3 -3h-169q-3 0 -3 3zM159 5l462 700q1 1 2 3t3 2h183q5 0 2 -5l-462 -700q-1 -1 -2 -3t-3 -2h-183q-5 0 -2 5zM1047 363q73 -43 73 -149v-21q0 -109 -73.5 -156
t-178.5 -47t-173 34t-68 98v22q0 3 2 3h169q3 0 3 -3v-7q0 -35 62 -35q40 0 61 20.5t21 72.5h-6q-25 -21 -58.5 -28.5t-83.5 -7.5q-175 0 -175 104v10q0 67 67.5 100t178.5 33q106 0 179 -43zM915.5 243q21.5 8 27.5 17q-8 40 -75 40q-72 0 -72 -32v-3q0 -15 16 -22.5
t56 -7.5q26 0 47.5 8z" />
    <glyph glyph-name="two_fraction_nine" horiz-adv-x="1380" 
d="M503 515.5q-30 -24.5 -70.5 -34t-102.5 -16.5q-54 -7 -77 -13.5t-23 -21.5v-5h123v31q0 3 3 3h169q2 0 2 -3v-139q0 -3 -2 -3h-470v107q0 50 34 78.5t79 41t109 21.5q42 6 61.5 11t19.5 15v2q0 9 -14 14t-48 5q-39 0 -52.5 -9t-13.5 -29v-5q0 -3 -3 -3h-169q-3 0 -3 3v28
q0 66 66 96t175 30q106 0 171.5 -30t65.5 -96v-10q0 -44 -30 -68.5zM369 5l462 700q1 1 2 3t3 2h183q5 0 2 -5l-462 -700q-1 -1 -2 -3t-3 -2h-183q-5 0 -2 5zM1257 363q73 -43 73 -149v-21q0 -109 -73.5 -156t-178.5 -47t-173 34t-68 98v22q0 3 2 3h169q3 0 3 -3v-7
q0 -35 62 -35q40 0 61 20.5t21 72.5h-6q-25 -21 -58.5 -28.5t-83.5 -7.5q-175 0 -175 104v10q0 67 67.5 100t178.5 33q106 0 179 -43zM1125.5 243q21.5 8 27.5 17q-8 40 -75 40q-72 0 -72 -32v-3q0 -15 16 -22.5t56 -7.5q26 0 47.5 8z" />
    <glyph glyph-name="four_fraction_nine" horiz-adv-x="1378" 
d="M297 313v70h-277v92l221 233q2 2 6 2h222q3 0 3 -2v-219h51q3 0 3 -3v-100q0 -3 -3 -3h-51v-70q0 -3 -3 -3h-169q-3 0 -3 3zM302 489v39q0 59 7 80h-10l-105 -119h108zM367 5l462 700q1 1 2 3t3 2h183q5 0 2 -5l-462 -700q-1 -1 -2 -3t-3 -2h-183q-5 0 -2 5zM1255 363
q73 -43 73 -149v-21q0 -109 -73.5 -156t-178.5 -47t-173 34t-68 98v22q0 3 2 3h169q3 0 3 -3v-7q0 -35 62 -35q40 0 61 20.5t21 72.5h-6q-25 -21 -58.5 -28.5t-83.5 -7.5q-175 0 -175 104v10q0 67 67.5 100t178.5 33q106 0 179 -43zM1123.5 243q21.5 8 27.5 17q-8 40 -75 40
q-72 0 -72 -32v-3q0 -15 16 -22.5t56 -7.5q26 0 47.5 8z" />
    <glyph glyph-name="five_fraction_nine" horiz-adv-x="1354" 
d="M487.5 545q49.5 -26 49.5 -94v-10q0 -72 -65.5 -107t-175.5 -35q-105 0 -173 37t-68 105v6q0 3 3 3h169q2 0 2 -3v-4q0 -19 14.5 -25.5t52.5 -6.5q37 0 52 7.5t15 29.5v2q0 19 -16 28.5t-51 9.5q-32 0 -49.5 -4.5t-17.5 -9.5v-2q0 -3 -2 -3h-169q-3 0 -3 3v234q0 3 3 3
h457q3 0 3 -6v-110q0 -5 -3 -5h-286v-53h6q14 17 48 26.5t74 9.5q81 0 130.5 -26zM343 5l462 700q1 1 2 3t3 2h183q5 0 2 -5l-462 -700q-1 -1 -2 -3t-3 -2h-183q-5 0 -2 5zM1231 363q73 -43 73 -149v-21q0 -109 -73.5 -156t-178.5 -47t-173 34t-68 98v22q0 3 2 3h169
q3 0 3 -3v-7q0 -35 62 -35q40 0 61 20.5t21 72.5h-6q-25 -21 -58.5 -28.5t-83.5 -7.5q-175 0 -175 104v10q0 67 67.5 100t178.5 33q106 0 179 -43zM1099.5 243q21.5 8 27.5 17q-8 40 -75 40q-72 0 -72 -32v-3q0 -15 16 -22.5t56 -7.5q26 0 47.5 8z" />
    <glyph glyph-name="seven_fraction_nine" horiz-adv-x="1259" 
d="M497 708v-98q0 -52 -28.5 -89.5t-81.5 -82.5q-41 -34 -60 -56.5t-19 -49.5v-23q0 -3 -3 -3h-185q-3 0 -3 3v24q0 41 21.5 76t50 60t72.5 57q31 23 45 35.5t14 22.5v5h-131v-36q0 -3 -2 -3h-169q-3 0 -3 3v155q0 2 3 2h476q3 0 3 -2zM248 5l462 700q1 1 2 3t3 2h183
q5 0 2 -5l-462 -700q-1 -1 -2 -3t-3 -2h-183q-5 0 -2 5zM1136 363q73 -43 73 -149v-21q0 -109 -73.5 -156t-178.5 -47t-173 34t-68 98v22q0 3 2 3h169q3 0 3 -3v-7q0 -35 62 -35q40 0 61 20.5t21 72.5h-6q-25 -21 -58.5 -28.5t-83.5 -7.5q-175 0 -175 104v10q0 67 67.5 100
t178.5 33q106 0 179 -43zM1004.5 243q21.5 8 27.5 17q-8 40 -75 40q-72 0 -72 -32v-3q0 -15 16 -22.5t56 -7.5q26 0 47.5 8z" />
    <glyph glyph-name="period" unicode="." horiz-adv-x="340" 
d="M50 5v210q0 5 5 5h230q5 0 5 -5v-210q0 -5 -5 -5h-230q-5 0 -5 5z" />
    <glyph glyph-name="comma" unicode="," horiz-adv-x="340" 
d="M50 -130v76q0 5 5 5h81q17 0 23 5t6 17v27h-110q-5 0 -5 5v210q0 5 5 5h230q5 0 5 -5v-267q0 -41 -24 -62t-64 -21h-147q-5 0 -5 5z" />
    <glyph glyph-name="colon" unicode=":" horiz-adv-x="360" 
d="M60 5v210q0 5 5 5h230q5 0 5 -5v-210q0 -5 -5 -5h-230q-5 0 -5 5zM60 295v210q0 5 5 5h230q5 0 5 -5v-210q0 -5 -5 -5h-230q-5 0 -5 5z" />
    <glyph glyph-name="semicolon" unicode=";" horiz-adv-x="360" 
d="M60 -130v76q0 5 5 5h81q17 0 23 5t6 17v27h-110q-5 0 -5 5v210q0 5 5 5h230q5 0 5 -5v-267q0 -41 -24 -62t-64 -21h-147q-5 0 -5 5zM60 295v210q0 5 5 5h230q5 0 5 -5v-210q0 -5 -5 -5h-230q-5 0 -5 5z" />
    <glyph glyph-name="ellipsis" unicode="&#x2026;" horiz-adv-x="1240" 
d="M50 5v210q0 5 5 5h230q5 0 5 -5v-210q0 -5 -5 -5h-230q-5 0 -5 5zM500 5v210q0 5 5 5h230q5 0 5 -5v-210q0 -5 -5 -5h-230q-5 0 -5 5zM950 5v210q0 5 5 5h230q5 0 5 -5v-210q0 -5 -5 -5h-230q-5 0 -5 5z" />
    <glyph glyph-name="exclam" unicode="!" horiz-adv-x="370" 
d="M90 259l-30 237v208q0 5 5 5h240q5 0 5 -5v-208l-30 -237q0 -5 -5 -5h-180q-5 0 -5 5zM65 5v210q0 5 5 5h230q5 0 5 -5v-210q0 -5 -5 -5h-230q-5 0 -5 5z" />
    <glyph glyph-name="exclamdown" unicode="&#xa1;" horiz-adv-x="370" 
d="M300 510q5 0 5 -5v-210q0 -5 -5 -5h-230q-5 0 -5 5v210q0 5 5 5h230zM275 256q5 0 5 -5l30 -237v-208q0 -5 -5 -5h-240q-5 0 -5 5v208l30 237q0 5 5 5h180z" />
    <glyph glyph-name="question" unicode="?" horiz-adv-x="830" 
d="M230 247v4q0 70 33.5 109.5t77 54.5t107.5 27q44 7 63 14t19 22v4q0 17 -23.5 29.5t-101.5 12.5q-115 0 -115 -62v-18q0 -5 -5 -5h-250q-5 0 -5 5v60q0 111 93.5 163.5t276.5 52.5q390 0 390 -216v-18q0 -72 -38.5 -114t-88.5 -60t-118 -31q-42 -9 -58.5 -14.5
t-16.5 -15.5v-3q0 -5 -5 -5h-230q-5 0 -5 4zM231 5v200q0 5 5 5h230q5 0 5 -5v-200q0 -5 -5 -5h-230q-5 0 -5 5z" />
    <glyph glyph-name="questiondown" unicode="&#xbf;" horiz-adv-x="830" 
d="M599 505v-200q0 -5 -5 -5h-230q-5 0 -5 5v200q0 5 5 5h230q5 0 5 -5zM600 263v-4q0 -70 -33.5 -109.5t-77 -54.5t-107.5 -27q-44 -7 -63 -14t-19 -22v-4q0 -17 23.5 -29.5t101.5 -12.5q115 0 115 62v18q0 5 5 5h250q5 0 5 -5v-60q0 -111 -93.5 -163.5t-276.5 -52.5
q-390 0 -390 216v18q0 72 38.5 114t88.5 60t118 31q42 9 58.5 14.5t16.5 15.5v3q0 5 5 5h230q5 0 5 -4z" />
    <glyph glyph-name="periodcentered" unicode="&#xb7;" horiz-adv-x="340" 
d="M50 155v210q0 5 5 5h230q5 0 5 -5v-210q0 -5 -5 -5h-230q-5 0 -5 5z" />
    <glyph glyph-name="bullet" unicode="&#x2022;" horiz-adv-x="442" 
d="M129.5 81q-41.5 24 -65.5 65.5t-24 91.5q0 49 24 90.5t65.5 66t91.5 24.5q49 0 90.5 -24.5t66 -66t24.5 -90.5q0 -50 -24.5 -91.5t-66 -65.5t-90.5 -24q-50 0 -91.5 24z" />
    <glyph glyph-name="asterisk" unicode="*" horiz-adv-x="583" 
d="M540 456.5q1 -2.5 -1 -4.5l-68 -106q-1 -2 -2.5 -2.5t-3.5 0.5l-106 55v-113q0 -5 -5 -5h-125q-5 0 -5 5v114l-105 -55q-2 -1 -3.5 -0.5t-2.5 2.5l-70 105q-2 2 -1 4.5t3 3.5l99 52l-98 51q-2 1 -3 3.5t1 4.5l69 107q1 2 2.5 2.5t3.5 -0.5l105 -55v113q0 5 5 5h125
q5 0 5 -5v-114l106 56q2 1 3.5 0.5t2.5 -2.5l69 -107q2 -2 1 -4.5t-3 -3.5l-99 -51l98 -52q2 -1 3 -3.5z" />
    <glyph glyph-name="numbersign" unicode="#" horiz-adv-x="800" 
d="M40 299q0 5 5 5h90v79h-90q-5 0 -5 5v160q0 5 5 5h90v92q0 5 5 5h180q5 0 5 -5v-92h150v92q0 5 5 5h180q5 0 5 -5v-92h90q5 0 5 -5v-160q0 -5 -5 -5h-90v-79h90q5 0 5 -5v-160q0 -5 -5 -5h-90v-89q0 -5 -5 -5h-180q-5 0 -5 5v89h-150v-89q0 -5 -5 -5h-180q-5 0 -5 5v89
h-90q-5 0 -5 5v160zM475 289v109h-150v-109h150z" />
    <glyph glyph-name="slash" unicode="/" horiz-adv-x="732" 
d="M11 -115l500 910q1 1 2 3t3 2h203q5 0 2 -5l-500 -910q-1 -1 -2 -3t-3 -2h-203q-5 0 -2 5z" />
    <glyph glyph-name="backslash" unicode="\" horiz-adv-x="732" 
d="M516 -120q-2 0 -3 2t-2 3l-500 910q-3 5 2 5h203q2 0 3 -2t2 -3l500 -910q3 -5 -2 -5h-203z" />
    <glyph glyph-name="parenleft" unicode="(" horiz-adv-x="540" 
d="M174 -68q-114 112 -114 384v38q0 260 116 378t309 118q5 0 5 -5v-170q0 -5 -5 -5q-84 0 -140 -77t-56 -251v-14q0 -186 54.5 -257t141.5 -71q5 0 5 -5v-170q0 -5 -5 -5q-197 0 -311 112z" />
    <glyph glyph-name="parenright" unicode=")" horiz-adv-x="540" 
d="M50 -175v170q0 5 5 5q87 0 141.5 71t54.5 257v14q0 174 -56 251t-140 77q-5 0 -5 5v170q0 5 5 5q193 0 309 -118t116 -378v-38q0 -272 -114 -384t-311 -112q-5 0 -5 5z" />
    <glyph glyph-name="braceleft" unicode="{" horiz-adv-x="611" 
d="M309.5 -157q-70.5 22 -109.5 76t-39 148v122q0 24 -9 35.5t-33 16t-74 4.5q-5 0 -5 5v171q0 5 5 5q50 0 74 4.5t33 16t9 35.5v122q0 95 39.5 149t111 75.5t178.5 21.5h66q5 0 5 -5v-170q0 -5 -5 -5h-55q-41 0 -63 -4t-35 -21t-13 -53v-105q0 -58 -32.5 -98.5t-93.5 -47.5
v-8q61 -9 93.5 -50t32.5 -99v-105q0 -35 12.5 -52t34 -21.5t60.5 -4.5h59q5 0 5 -5v-170q0 -5 -5 -5h-70q-106 0 -176.5 22z" />
    <glyph glyph-name="braceright" unicode="}" horiz-adv-x="611" 
d="M55 -179q-5 0 -5 5v170q0 5 5 5h59q39 0 60.5 4.5t34 21.5t12.5 52v105q0 58 32.5 99t93.5 50v8q-61 7 -93.5 47.5t-32.5 98.5v105q0 36 -13 53t-35 21t-63 4h-55q-5 0 -5 5v170q0 5 5 5h66q107 0 178.5 -21.5t111 -75.5t39.5 -149v-122q0 -24 9 -35.5t33 -16t74 -4.5
q5 0 5 -5v-171q0 -5 -5 -5q-50 0 -74 -4.5t-33 -16t-9 -35.5v-122q0 -94 -39 -148t-109.5 -76t-176.5 -22h-70z" />
    <glyph glyph-name="bracketleft" unicode="[" horiz-adv-x="540" 
d="M80 -164v999q0 5 5 5h400q5 0 5 -5v-170q0 -5 -5 -5l-176 -2v-647h176q5 0 5 -5v-170q0 -5 -5 -5h-400q-5 0 -5 5z" />
    <glyph glyph-name="bracketright" unicode="]" horiz-adv-x="540" 
d="M55 -169q-5 0 -5 5v170q0 5 5 5h176v647l-176 2q-5 0 -5 5v170q0 5 5 5h400q5 0 5 -5v-999q0 -5 -5 -5h-400z" />
    <glyph glyph-name="hyphen" unicode="-" horiz-adv-x="580" 
d="M60 195v170q0 5 5 5h450q5 0 5 -5v-170q0 -5 -5 -5h-450q-5 0 -5 5z" />
    <glyph glyph-name="endash" unicode="&#x2013;" horiz-adv-x="780" 
d="M60 195v170q0 5 5 5h650q5 0 5 -5v-170q0 -5 -5 -5h-650q-5 0 -5 5z" />
    <glyph glyph-name="emdash" unicode="&#x2014;" horiz-adv-x="1270" 
d="M60 195v170q0 5 5 5h1140q5 0 5 -5v-170q0 -5 -5 -5h-1140q-5 0 -5 5z" />
    <glyph glyph-name="underscore" unicode="_" horiz-adv-x="660" 
d="M0 -184v170q0 5 5 5h650q5 0 5 -5v-170q0 -5 -5 -5h-650q-5 0 -5 5z" />
    <glyph glyph-name="quotesinglbase" unicode="&#x201a;" horiz-adv-x="340" 
d="M50 -130v76q0 5 5 5h81q17 0 23 5t6 17v27h-110q-5 0 -5 5v210q0 5 5 5h230q5 0 5 -5v-267q0 -41 -24 -62t-64 -21h-147q-5 0 -5 5z" />
    <glyph glyph-name="quotedblbase" unicode="&#x201e;" horiz-adv-x="660" 
d="M370 -130v76q0 5 5 5h81q17 0 23 5t6 17v27h-110q-5 0 -5 5v210q0 5 5 5h230q5 0 5 -5v-267q0 -41 -24 -62t-64 -21h-147q-5 0 -5 5zM50 -130v76q0 5 5 5h81q17 0 23 5t6 17v27h-110q-5 0 -5 5v210q0 5 5 5h230q5 0 5 -5v-267q0 -41 -24 -62t-64 -21h-147q-5 0 -5 5z" />
    <glyph glyph-name="quotedblleft" unicode="&#x201c;" horiz-adv-x="600" 
d="M260 705v-76q0 -5 -5 -5h-81q-17 0 -23 -5t-6 -17v-27h110q5 0 5 -5v-210q0 -5 -5 -5h-230q-5 0 -5 5v267q0 41 24 62t64 21h147q5 0 5 -5zM580 705v-76q0 -5 -5 -5h-81q-17 0 -23 -5t-6 -17v-27h110q5 0 5 -5v-210q0 -5 -5 -5h-230q-5 0 -5 5v267q0 41 24 62t64 21h147
q5 0 5 -5z" />
    <glyph glyph-name="quotedblright" unicode="&#x201d;" horiz-adv-x="630" 
d="M370 360v76q0 5 5 5h81q17 0 23 5t6 17v27h-110q-5 0 -5 5v210q0 5 5 5h230q5 0 5 -5v-267q0 -41 -24 -62t-64 -21h-147q-5 0 -5 5zM50 360v76q0 5 5 5h81q17 0 23 5t6 17v27h-110q-5 0 -5 5v210q0 5 5 5h230q5 0 5 -5v-267q0 -41 -24 -62t-64 -21h-147q-5 0 -5 5z" />
    <glyph glyph-name="quoteleft" unicode="&#x2018;" horiz-adv-x="340" 
d="M290 705v-76q0 -5 -5 -5h-81q-17 0 -23 -5t-6 -17v-27h110q5 0 5 -5v-210q0 -5 -5 -5h-230q-5 0 -5 5v267q0 41 24 62t64 21h147q5 0 5 -5z" />
    <glyph glyph-name="quoteright" unicode="&#x2019;" horiz-adv-x="340" 
d="M50 360v76q0 5 5 5h81q17 0 23 5t6 17v27h-110q-5 0 -5 5v210q0 5 5 5h230q5 0 5 -5v-267q0 -41 -24 -62t-64 -21h-147q-5 0 -5 5z" />
    <glyph glyph-name="guillemotleft" unicode="&#xab;" horiz-adv-x="859" 
d="M481 108q3 -3 3 -6q0 -4 -9 -4h-270q-5 0 -8 3l-175 175q-2 1 -2 4t2 4l175 175q3 3 8 3h270q8 0 8.5 -3.5t-2.5 -6.5l-172 -172zM816 108q3 -3 3 -6q0 -4 -9 -4h-270q-5 0 -8 3l-175 175q-2 1 -2 4t2 4l175 175q3 3 8 3h270q8 0 8.5 -3.5t-2.5 -6.5l-172 -172z" />
    <glyph glyph-name="guillemotright" unicode="&#xbb;" horiz-adv-x="859" 
d="M502 276l-175 -175q-3 -3 -8 -3h-270q-8 0 -8.5 3.5t2.5 6.5l172 172l-172 172q-3 3 -3 6q0 4 9 4h270q5 0 8 -3l175 -175q2 -1 2 -4t-2 -4zM839 280q0 -3 -2 -4l-175 -175q-3 -3 -8 -3h-270q-8 0 -8.5 3.5t2.5 6.5l172 172l-172 172q-3 3 -3 6q0 4 9 4h270q5 0 8 -3
l175 -175q2 -1 2 -4z" />
    <glyph glyph-name="guilsinglleft" unicode="&#x2039;" horiz-adv-x="524" 
d="M481 108q3 -3 3 -6q0 -4 -9 -4h-270q-5 0 -8 3l-175 175q-2 1 -2 4t2 4l175 175q3 3 8 3h270q8 0 8.5 -3.5t-2.5 -6.5l-172 -172z" />
    <glyph glyph-name="guilsinglright" unicode="&#x203a;" horiz-adv-x="524" 
d="M504 280q0 -3 -2 -4l-175 -175q-3 -3 -8 -3h-270q-8 0 -8.5 3.5t2.5 6.5l172 172l-172 172q-3 3 -3 6q0 4 9 4h270q5 0 8 -3l175 -175q2 -1 2 -4z" />
    <glyph glyph-name="quotedbl" unicode="&#x22;" horiz-adv-x="655" 
d="M70 389l-30 177v138q0 5 5 5h240q5 0 5 -5v-138l-30 -177q-2 -5 -5 -5h-180q-3 0 -5 5zM395 389l-30 177v138q0 5 5 5h240q5 0 5 -5v-138l-30 -177q-2 -5 -5 -5h-180q-3 0 -5 5z" />
    <glyph glyph-name="quotesingle" unicode="'" horiz-adv-x="330" 
d="M70 389l-30 177v138q0 5 5 5h240q5 0 5 -5v-138l-30 -177q-2 -5 -5 -5h-180q-3 0 -5 5z" />
    <glyph glyph-name="cent" unicode="&#xa2;" horiz-adv-x="755" 
d="M460 387v5q0 19 -18 33.5t-67 14.5q-45 0 -65 -23t-20 -60v-4q0 -37 20 -60t65 -23q49 0 67 14.5t18 33.5v1q0 5 5 5h240q5 0 5 -5v-13q0 -95 -60 -147t-183 -65v-89q0 -5 -5 -5h-170q-5 0 -5 5v90q-125 14 -186 74t-61 172v13q0 121 60.5 184t186.5 77v90q0 5 5 5h170
q5 0 5 -5v-89q124 -14 183.5 -68.5t59.5 -158.5v-2q0 -5 -5 -5h-240q-5 0 -5 5z" />
    <glyph glyph-name="dollar" unicode="$" horiz-adv-x="880" 
d="M560 453v15q0 26 -23.5 44t-96.5 18q-69 0 -94.5 -11.5t-25.5 -32.5v-6q0 -12 15.5 -18.5t46.5 -10t109 -10.5q129 -11 195 -28t100 -58.5t34 -123.5v-7q0 -104 -70.5 -152.5t-212.5 -58.5v-88q0 -5 -5 -5h-170q-5 0 -5 5v87q-104 5 -168 27t-96.5 72t-32.5 138v17
q0 5 5 5h250q5 0 5 -5v-15q0 -22 8 -37t34 -24.5t78 -9.5q49 0 75 5t35.5 15t9.5 28v9q0 18 -22.5 24.5t-76.5 12.5l-30 3q-22 2 -34 4q-139 15 -203 29.5t-99 54t-35 121.5v8q0 102 74 148.5t223 55.5v87q0 5 5 5h170q5 0 5 -5v-88q98 -6 159.5 -28.5t92.5 -70t31 -128.5
v-17q0 -5 -5 -5h-250q-5 0 -5 5z" />
    <glyph glyph-name="Euro" unicode="&#x20ac;" horiz-adv-x="983" 
d="M663 453v5q0 36 -35 59t-109 23q-71 0 -108 -37h134q5 0 5 -5v-120q0 -5 -5 -5h-175v-11v-14v-5h175q5 0 5 -5v-120q0 -5 -5 -5h-139q35 -43 113 -43q76 0 110 23t34 68v5q0 5 5 5h255q5 0 5 -5v-22q0 -134 -116 -194t-294 -60q-149 0 -250.5 55t-138.5 168h-114
q-5 0 -5 5v120q0 5 5 5h95v3v18v9h-95q-5 0 -5 5v120q0 5 5 5h116q39 110 139 163.5t248 53.5q176 0 293 -59.5t117 -185.5v-22q0 -5 -5 -5h-255q-5 0 -5 5z" />
    <glyph glyph-name="sterling" unicode="&#xa3;" horiz-adv-x="880" 
d="M646 696.5q81 -23.5 122.5 -78.5t41.5 -148v-17q0 -5 -5 -5h-250q-5 0 -5 5v15q0 62 -90 62q-51 0 -75.5 -17.5t-24.5 -48.5v-6q0 -12 11 -45h177q5 0 5 -5v-130q0 -5 -5 -5h-149q-4 -26 -22 -51t-46 -45l6 -10q4 1 20 8q31 12 58 18.5t73 6.5h297q5 0 5 -11v-179
q0 -10 -5 -10h-715q-5 0 -5 10v179q0 11 5 11q61 15 68 73h-68q-5 0 -5 5v130q0 5 5 5h45q-15 58 -15 83v8q0 69 43 117.5t119.5 73.5t177.5 25q125 0 206 -23.5z" />
    <glyph glyph-name="yen" unicode="&#xa5;" horiz-adv-x="822" 
d="M820 708.5q2 -1.5 1 -3.5l-181 -342h76q5 0 5 -5v-120q0 -5 -5 -5h-145l-21 -40h166q5 0 5 -5v-120q0 -5 -5 -5h-175v-58q0 -5 -5 -5h-250q-5 0 -5 5v58h-175q-5 0 -5 5v120q0 5 5 5h166l-21 40h-145q-5 0 -5 5v120q0 5 5 5h76l-181 342q-1 2 1 3.5t4 1.5h270q3 0 5 -5
l67 -136q21 -43 40 -103.5t19 -91.5h10q0 31 19 93t39 104l66 134q2 5 5 5h270q2 0 4 -1.5z" />
    <glyph glyph-name="plus" unicode="+" horiz-adv-x="720" 
d="M660 441v-170q0 -5 -5 -5h-205v-205q0 -5 -5 -5h-170q-5 0 -5 5v205h-205q-5 0 -5 5v170q0 5 5 5h205v205q0 5 5 5h170q5 0 5 -5v-205h205q5 0 5 -5z" />
    <glyph glyph-name="minus" unicode="&#x2212;" horiz-adv-x="720" 
d="M60 271v170q0 5 5 5h590q5 0 5 -5v-170q0 -5 -5 -5h-590q-5 0 -5 5z" />
    <glyph glyph-name="multiply" unicode="&#xd7;" horiz-adv-x="710" 
d="M650 187q0 -2 -2 -4l-120 -120q-1 -2 -3 -2t-4 2l-166 166l-166 -166q-1 -2 -3 -2t-4 2l-120 120q-2 2 -2 4t2 3l166 166l-166 166q-2 2 -2 4t2 3l120 120q2 2 4 2t3 -2l166 -166l166 166q2 2 4 2t3 -2l120 -120q2 -1 2 -3t-2 -4l-166 -166l166 -166q2 -1 2 -3z" />
    <glyph glyph-name="divide" unicode="&#xf7;" horiz-adv-x="720" 
d="M273.5 507.5q-31.5 31.5 -31.5 81.5q0 51 31.5 82t86.5 31t86.5 -31t31.5 -82q0 -50 -31.5 -81.5t-86.5 -31.5t-86.5 31.5zM60 271v170q0 5 5 5h590q5 0 5 -5v-170q0 -5 -5 -5h-590q-5 0 -5 5zM273.5 41q-31.5 31 -31.5 82q0 50 31.5 81.5t86.5 31.5t86.5 -31.5
t31.5 -81.5q0 -51 -31.5 -82t-86.5 -31t-86.5 31z" />
    <glyph glyph-name="equal" unicode="=" horiz-adv-x="720" 
d="M60 379v170q0 5 5 5h590q5 0 5 -5v-170q0 -5 -5 -5h-590q-5 0 -5 5zM60 119v170q0 5 5 5h590q5 0 5 -5v-170q0 -5 -5 -5h-590q-5 0 -5 5z" />
    <glyph glyph-name="notequal" unicode="&#x2260;" horiz-adv-x="720" 
d="M471 374l-42 -80h226q5 0 5 -5v-170q0 -5 -5 -5h-321l-77 -145q-3 -5 -8 -5h-170q-5 0 -2 5l77 145h-89q-5 0 -5 5v170q0 5 5 5h184l42 80h-226q-5 0 -5 5v170q0 5 5 5h321l77 145q3 5 8 5h170q5 0 2 -5l-77 -145h89q5 0 5 -5v-170q0 -5 -5 -5h-184z" />
    <glyph glyph-name="greater" unicode="&#x3e;" horiz-adv-x="524" 
d="M504 419v-144q0 -1 -2 -3l-447 -218q-1 -1 -3 -1q-7 0 -7 6v197l2 4l181 84l-181 89l-2 4v197q0 4 3.5 5.5t6.5 -0.5l447 -217q2 -2 2 -3z" />
    <glyph glyph-name="less" unicode="&#x3c;" horiz-adv-x="524" 
d="M477 433l-181 -89l181 -84l2 -4v-197q0 -4 -3.5 -5.5t-6.5 0.5l-447 218q-2 2 -2 3v144q0 1 2 3l447 217q1 1 3 1q7 0 7 -6v-197z" />
    <glyph glyph-name="greaterequal" unicode="&#x2265;" horiz-adv-x="540" 
d="M52 200q-7 0 -7 6v187q0 1 0.5 2.5t1.5 1.5l153 57l-153 56q-1 0 -1.5 1.5t-0.5 2.5v187q0 4 3.5 5.5t6.5 -0.5l447 -167q2 0 2 -3v-144q0 -1 -2 -3l-447 -188q-1 -1 -3 -1zM510 175v-170q0 -5 -5 -5h-453q-5 0 -5 5v170q0 5 5 5h453q5 0 5 -5z" />
    <glyph glyph-name="lessequal" unicode="&#x2264;" horiz-adv-x="540" 
d="M494.5 511.5q-0.5 -1.5 -1.5 -1.5l-153 -56l153 -57q1 0 1.5 -1.5t0.5 -2.5v-187q0 -4 -3.5 -5.5t-6.5 0.5l-447 188q-2 2 -2 3v144q0 3 2 3l447 167q1 1 3 1q7 0 7 -6v-187q0 -1 -0.5 -2.5zM493 175v-170q0 -5 -5 -5h-453q-5 0 -5 5v170q0 5 5 5h453q5 0 5 -5z" />
    <glyph glyph-name="plusminus" unicode="&#xb1;" horiz-adv-x="720" 
d="M660 551v-170q0 -5 -5 -5h-205v-145q0 -5 -5 -5h-170q-5 0 -5 5v145h-205q-5 0 -5 5v170q0 5 5 5h205v145q0 5 5 5h170q5 0 5 -5v-145h205q5 0 5 -5zM660 175v-170q0 -5 -5 -5h-590q-5 0 -5 5v170q0 5 5 5h590q5 0 5 -5z" />
    <glyph glyph-name="asciitilde" unicode="~" 
d="M60 163q0 84 28.5 134.5t70.5 71.5t86 21q43 0 75.5 -8t81.5 -24q38 -14 66.5 -21t60.5 -7q22 0 34 18.5t12 36.5q0 2 1.5 3.5t3.5 1.5h134q5 0 5 -5q0 -80 -28.5 -131t-70.5 -73.5t-85 -22.5q-41 0 -74 8t-83 24q-39 14 -67.5 21t-59.5 7q-23 0 -35 -16t-12 -39
q0 -2 -1.5 -3.5t-3.5 -1.5h-134q-5 0 -5 5z" />
    <glyph glyph-name="asciicircum" unicode="^" horiz-adv-x="607" 
d="M587 337q0 -6 -6 -6h-197l-4 2l-79 166l-74 -166q0 -1 -1.5 -1.5t-2.5 -0.5h-197q-4 0 -5.5 3t0.5 7l188 367q2 2 3 2h184q1 0 3 -2l187 -367q1 -1 1 -4z" />
    <glyph glyph-name="percent" unicode="%" horiz-adv-x="1376" 
d="M115 351.5q-65 47.5 -65 144.5v31q0 98 65 145.5t183 47.5q248 0 248 -193v-31q0 -192 -248 -192q-118 0 -183 47.5zM353.5 448q17.5 18 17.5 55v18q0 72 -73 72q-35 0 -54 -18.5t-19 -53.5v-18q0 -36 19 -54.5t54 -18.5q38 0 55.5 18zM357 5l462 700q1 1 2 3t3 2h183
q5 0 2 -5l-462 -700q-1 -1 -2 -3t-3 -2h-183q-5 0 -2 5zM895 37.5q-65 47.5 -65 144.5v31q0 98 65 145.5t183 47.5q248 0 248 -193v-31q0 -192 -248 -192q-118 0 -183 47.5zM1133.5 134q17.5 18 17.5 55v18q0 72 -73 72q-35 0 -54 -18.5t-19 -53.5v-18q0 -36 19 -54.5
t54 -18.5q38 0 55.5 18z" />
    <glyph glyph-name="perthousand" unicode="&#x2030;" horiz-adv-x="1972" 
d="M115 351.5q-65 47.5 -65 144.5v31q0 98 65 145.5t183 47.5q248 0 248 -193v-31q0 -192 -248 -192q-118 0 -183 47.5zM353.5 448q17.5 18 17.5 55v18q0 72 -73 72q-35 0 -54 -18.5t-19 -53.5v-18q0 -36 19 -54.5t54 -18.5q38 0 55.5 18zM357 5l462 700q1 1 2 3t3 2h183
q5 0 2 -5l-462 -700q-1 -1 -2 -3t-3 -2h-183q-5 0 -2 5zM895 37.5q-65 47.5 -65 144.5v31q0 98 65 145.5t183 47.5q248 0 248 -193v-31q0 -192 -248 -192q-118 0 -183 47.5zM1133.5 134q17.5 18 17.5 55v18q0 72 -73 72q-35 0 -54 -18.5t-19 -53.5v-18q0 -36 19 -54.5
t54 -18.5q38 0 55.5 18zM1491 37.5q-65 47.5 -65 144.5v31q0 98 65 145.5t183 47.5q248 0 248 -193v-31q0 -192 -248 -192q-118 0 -183 47.5zM1729.5 134q17.5 18 17.5 55v18q0 72 -73 72q-35 0 -54 -18.5t-19 -53.5v-18q0 -36 19 -54.5t54 -18.5q38 0 55.5 18z" />
    <glyph glyph-name="uniF8FF" unicode="&#xf8ff;" horiz-adv-x="820" 
d="M504 709l-9 7q-60 -43 -83 -53h-4q-23 10 -83 53l-8 -7q60 -69 85 -100h16q25 31 86 100zM565.5 539.5q71.5 -41.5 113 -112t41.5 -154.5q0 -85 -41.5 -156t-113 -112.5t-155.5 -41.5t-155.5 41.5t-113 112.5t-41.5 156q0 84 41.5 154.5t113 112t155.5 41.5t155.5 -41.5z
M498 86.5q40 30.5 40 87.5q0 42 -26.5 69t-77.5 58q-46 29 -68 50.5t-22 52.5q0 27 19.5 45t49.5 18q37 0 56 -25.5t34 -82.5l9 1q0 78 10 126l-9 2q-2 -7 -8 -12t-17 -5q-9 0 -31 4q-30 5 -45 5q-54 0 -85 -28.5t-31 -66.5q0 -43 25.5 -70.5t75.5 -58.5q46 -30 68 -52.5
t22 -55.5q0 -37 -21.5 -57.5t-52.5 -20.5q-37 0 -64.5 27.5t-27.5 75.5q0 29 11 52l-8 4q-40 -31 -40 -78q0 -44 35.5 -69.5t84.5 -25.5q54 0 94 30.5z" />
    <glyph glyph-name="at" unicode="@" horiz-adv-x="1285" 
d="M1088.5 639q156.5 -101 156.5 -305v-20q0 -96 -41.5 -169.5t-113.5 -113.5t-160 -40q-78 0 -124 9.5t-67 28t-26 48.5h-13q-15 -34 -55.5 -60t-123.5 -26q-97 0 -148.5 62t-51.5 162v24q0 104 53 169t161 65q133 0 175 -87h1v73q0 5 5 5h218q5 0 5 -5v-262q0 -18 6 -30
t30 -12q45 0 67.5 40.5t22.5 114.5v14q0 145 -109.5 208t-306.5 63q-201 0 -315 -83.5t-114 -266.5v-16q0 -181 108 -256t312 -75h420q5 0 5 -5v-135q0 -5 -5 -5h-420q-190 0 -322 44t-205 149.5t-73 283.5v14q0 496 609 496q283 0 439.5 -101zM690.5 174q20.5 19 20.5 55v6
q0 36 -20.5 55t-61.5 19q-39 0 -60 -20t-21 -58v-7q0 -32 21 -50.5t60 -18.5q41 0 61.5 19z" />
    <glyph glyph-name="ampersand" unicode="&#x26;" horiz-adv-x="973" 
d="M963 179v-174q0 -5 -5 -5h-148q-69 0 -132 30q-108 -40 -248 -40q-195 0 -297.5 47.5t-102.5 166.5v7q0 81 44 123t132 61q-46 51 -46 108v17q0 102 87 151t243 49q147 0 228.5 -44t81.5 -132v-8q0 -72 -48.5 -114.5t-165.5 -68.5l86 -66q8 24 8 47v25q0 5 5 5h210
q5 0 5 -5v-27q0 -84 -34 -147q6 -1 18 -1h74q5 0 5 -5zM420 491q0 -10 10 -19t23.5 -18t20.5 -14l8 -6q68 15 68 63v6q0 15 -16 26t-42 11q-41 0 -56.5 -13.5t-15.5 -28.5v-7zM331 184q41 -24 109 -24q30 0 53 4l-185 144q-18 -23 -18 -51v-9q0 -40 41 -64z" />
    <glyph glyph-name="paragraph" unicode="&#xb6;" horiz-adv-x="1000" 
d="M620 705v-860q0 -5 -5 -5h-230q-5 0 -5 5v335h-5q-151 0 -243 56.5t-92 189.5v28q0 256 335 256h240q5 0 5 -5zM920 705v-860q0 -5 -5 -5h-230q-5 0 -5 5v860q0 5 5 5h230q5 0 5 -5zM380 360v160h-15q-39 0 -62 -19t-23 -59v-4q0 -39 23 -58.5t62 -19.5h15z" />
    <glyph glyph-name="section" unicode="&#xa7;" horiz-adv-x="880" 
d="M560 473v15q0 26 -23.5 44t-96.5 18q-120 0 -120 -44v-6q0 -11 16 -17.5t49.5 -11t105.5 -10.5l33 -3q122 -10 178.5 -22t87 -44.5t30.5 -100.5v-7q0 -59 -60 -101q30 -20 45 -52t15 -80v-7q0 -109 -98 -161.5t-282 -52.5q-130 0 -213 22t-125 74.5t-42 142.5v17q0 5 5 5
h250q5 0 5 -5v-15q0 -22 8 -37t34 -24.5t78 -9.5q120 0 120 48v9q0 18 -23.5 24.5t-82.5 13.5q-7 0 -23 2l-43 5q-135 14 -197.5 26.5t-96.5 43.5t-34 94v8q0 41 15.5 68t46.5 44q-32 20 -47 49t-15 71v8q0 103 98.5 154.5t281.5 51.5q194 0 287 -53t93 -177v-17q0 -5 -5 -5
h-250q-5 0 -5 5zM544.5 295.5q-15.5 9.5 -36 12.5t-77.5 9l-99 12q-12 -17 -12 -33v-6q0 -16 16 -24.5t49 -13.5t106 -11l63 -6q6 12 6 23v9q0 19 -15.5 28.5z" />
    <glyph glyph-name="copyright" unicode="&#xa9;" horiz-adv-x="941" 
d="M172 74.5q-112 85.5 -112 273.5v12q0 188 112 273.5t299 85.5t298.5 -85.5t111.5 -273.5v-12q0 -188 -111.5 -273.5t-298.5 -85.5t-299 85.5zM673 155.5q78 61.5 78 191.5v14q0 130 -78 191.5t-202 61.5q-125 0 -203 -61.5t-78 -191.5v-14q0 -130 78 -191.5t203 -61.5
q124 0 202 61.5zM315 212q-56 45 -56 138v9q0 92 56 137t153 45q95 0 152.5 -35.5t58.5 -102.5v-21q0 -3 -3 -3h-141q-2 0 -2 3v2q0 45 -64 45q-33 0 -50 -16.5t-17 -54.5v-7q0 -39 17 -55t50 -16t48.5 12t15.5 37v2q0 3 2 3h141q3 0 3 -3v-21q-2 -72 -58.5 -107.5
t-152.5 -35.5q-97 0 -153 45z" />
    <glyph glyph-name="registered" unicode="&#xae;" horiz-adv-x="941" 
d="M769.5 633.5q111.5 -85.5 111.5 -273.5v-12q0 -188 -111.5 -273.5t-298.5 -85.5t-299 85.5t-112 273.5v12q0 188 112 273.5t299 85.5t298.5 -85.5zM751 361q0 130 -78 191.5t-202 61.5q-125 0 -203 -61.5t-78 -191.5v-14q0 -130 78 -191.5t203 -61.5q124 0 202 61.5
t78 191.5v14zM638.5 508.5q32.5 -22.5 32.5 -75.5v-9q0 -42 -19 -63t-51 -23v-5q29 -2 47 -21.5t18 -50.5v-35q0 -28 2.5 -36t2.5 -10q0 -3 -3 -3h-140q-1 0 -3 2q-3 3 -2.5 10t0.5 9v37q0 24 -10.5 34.5t-33.5 10.5h-50v-100q0 -3 -2 -3h-138q-3 0 -3 3v349q0 2 3 2h246
q71 0 103.5 -22.5zM528 407q0 12 -6 17t-21 5h-72v-47h72q15 0 21 5t6 18v2z" />
    <glyph glyph-name="trademark" unicode="&#x2122;" horiz-adv-x="1073" 
d="M444 704v-102q0 -5 -2 -5h-138v-249q0 -2 -3 -2h-148q-3 0 -3 2v249h-137q-3 0 -3 5v102q0 6 3 6h429q2 0 2 -6zM1043 707v-359q0 -2 -3 -2h-138q-2 0 -2 2v94q0 36 1.5 53t7.5 39h-5l-76 -187q0 -1 -2 -1h-119l-2 1l-75 187h-6q6 -23 8 -40.5t2 -51.5v-94q0 -2 -3 -2
h-138q-3 0 -3 2v359q0 3 3 3h182q2 0 2 -1l52 -108q14 -29 25 -61.5t11 -38.5h5q0 6 11 39t24 61l51 108q0 1 2 1h182q3 0 3 -3z" />
    <glyph glyph-name="degree" unicode="&#xb0;" horiz-adv-x="452" 
d="M80.5 421q-50.5 48 -50.5 125t50.5 125t145.5 48t145.5 -48t50.5 -125t-50.5 -125t-145.5 -48t-145.5 48zM256 518q8 10 8 28t-8 28t-30 10t-30 -10t-8 -28q0 -19 8 -28.5t30 -9.5t30 10z" />
    <glyph glyph-name="bar" unicode="|" horiz-adv-x="350" 
d="M80 -115v910q0 5 5 5h180q5 0 5 -5v-910q0 -5 -5 -5h-180q-5 0 -5 5z" />
    <glyph glyph-name="brokenbar" unicode="&#xa6;" horiz-adv-x="350" 
d="M80 385v410q0 5 5 5h180q5 0 5 -5v-410q0 -5 -5 -5h-180q-5 0 -5 5zM80 -115v410q0 5 5 5h180q5 0 5 -5v-410q0 -5 -5 -5h-180q-5 0 -5 5z" />
    <glyph glyph-name="dagger" unicode="&#x2020;" horiz-adv-x="496" 
d="M456 723v-147q0 -4 -4 -4h-116v-299q0 -4 -4 -4h-168q-4 0 -4 4v299h-116q-4 0 -4 4v147q0 4 4 4h116v129q0 4 4 4h168q4 0 4 -4v-129h116q4 0 4 -4z" />
    <glyph glyph-name="daggerdbl" unicode="&#x2021;" horiz-adv-x="600" 
d="M336 612v-95h116q4 0 4 -4v-137q0 -4 -4 -4h-116v-99q0 -4 -4 -4h-168q-4 0 -4 4v99h-116q-4 0 -4 4v137q0 4 4 4h116v95h-116q-4 0 -4 4v137q0 4 4 4h116v99q0 4 4 4h168q4 0 4 -4v-99h116q4 0 4 -4v-137q0 -4 -4 -4h-116z" />
    <glyph glyph-name="uni0308" unicode="&#x308;" horiz-adv-x="0" 
d="M-510 565v170q0 5 5 5h210q5 0 5 -5v-170q0 -5 -5 -5h-210q-5 0 -5 5zM-240 565v170q0 5 5 5h210q5 0 5 -5v-170q0 -5 -5 -5h-210q-5 0 -5 5z" />
    <glyph glyph-name="uni0307" unicode="&#x307;" horiz-adv-x="0" 
d="M-270 565v170q0 5 5 5h240q5 0 5 -5v-170q0 -5 -5 -5h-240q-5 0 -5 5z" />
    <glyph glyph-name="gravecomb" unicode="&#x300;" horiz-adv-x="0" 
d="M-255 565l-3 1l-215 193q-2 2 -2 6q0 7 7 7h319l4 -2l124 -196q1 -1 1 -4q0 -5 -6 -5h-229z" />
    <glyph glyph-name="acutecomb" unicode="&#x301;" horiz-adv-x="0" 
d="M-454.5 567.5q-1.5 2.5 0.5 6.5l124 196l4 2h319q5 0 7 -4.5t-2 -8.5l-215 -193l-3 -1h-229q-4 0 -5.5 2.5z" />
    <glyph glyph-name="uni030B" unicode="&#x30b;" horiz-adv-x="0" 
d="M-736.5 567.5q-1.5 2.5 0.5 6.5l112 196q0 2 3 2h287q5 0 6.5 -4.5t-1.5 -8.5l-194 -193l-2 -1h-207q-3 0 -4.5 2.5zM-411.5 567.5q-1.5 2.5 0.5 6.5l112 196q0 2 3 2h287q5 0 6.5 -4.5t-1.5 -8.5l-194 -193l-2 -1h-207q-3 0 -4.5 2.5z" />
    <glyph glyph-name="uni0302" unicode="&#x302;" horiz-adv-x="0" 
d="M-20 571q0 -2 -2 -4t-5 -2h-197l-4 2l-49 45l-44 -45l-4 -2h-197q-4 0 -6 3.5t1 6.5l158 167q2 2 3 2h184q1 0 3 -2l157 -167q2 -2 2 -4z" />
    <glyph glyph-name="uni030C" unicode="&#x30c;" horiz-adv-x="0" 
d="M-21 740.5q2 -3.5 -1 -6.5l-157 -167q-2 -2 -3 -2h-184q-1 0 -3 2l-158 167q-2 2 -2 4t2 4t5 2h197l4 -2l44 -45l49 45l4 2h197q4 0 6 -3.5z" />
    <glyph glyph-name="uni0306" unicode="&#x306;" horiz-adv-x="0" 
d="M-418.5 599q-57.5 44 -57.5 123v23q0 5 5 5h165q5 0 5 -5v-6q0 -19 11.5 -33.5t41.5 -14.5q33 0 43 14t10 34v6q0 5 5 5h165q5 0 5 -5v-23q0 -80 -56 -123.5t-172 -43.5q-113 0 -170.5 44z" />
    <glyph glyph-name="uni030A" unicode="&#x30a;" horiz-adv-x="0" 
d="M-322.5 587.5q-41.5 32.5 -41.5 100.5t41.5 100.5t130.5 32.5q88 0 130 -32.5t42 -100.5t-42 -100.5t-130 -32.5q-89 0 -130.5 32.5zM-161 688q0 15 -7 23.5t-24 8.5q-18 0 -25 -8.5t-7 -23.5q0 -16 7 -23.5t25 -7.5q31 0 31 31z" />
    <glyph glyph-name="tildecomb" unicode="&#x303;" horiz-adv-x="0" 
d="M-549 573q1 115 52.5 161t122.5 46q29 0 49 -5.5t46 -15.5q22 -10 39 -14.5t40 -4.5q16 0 25 10t11 25q0 2 1.5 3.5t3.5 1.5h134q5 0 5 -5q-1 -110 -53 -158.5t-121 -48.5q-27 0 -46.5 5t-48.5 16q-23 9 -40 14t-39 5q-16 0 -25.5 -10t-11.5 -25q0 -2 -1.5 -3.5
t-3.5 -1.5h-134q-5 0 -5 5z" />
    <glyph glyph-name="uni0304" unicode="&#x304;" horiz-adv-x="0" 
d="M-620 565v170q0 5 5 5h590q5 0 5 -5v-170q0 -5 -5 -5h-590q-5 0 -5 5z" />
    <glyph glyph-name="uni0312" unicode="&#x312;" horiz-adv-x="0" 
d="M-30 883v-69q0 -4 -5 -4h-74q-15 0 -20.5 -5t-5.5 -15v-25h100q5 0 5 -5v-190q0 -5 -5 -5h-209q-5 0 -5 5v242q0 37 22 56.5t58 19.5h134q5 0 5 -5z" />
    <glyph glyph-name="uni0326" unicode="&#x326;" horiz-adv-x="0" 
d="M-250 -378v69q0 4 5 4h74q15 0 20.5 5t5.5 15v25h-100q-5 0 -5 5v190q0 5 5 5h209q5 0 5 -5v-242q0 -37 -22 -56.5t-58 -19.5h-134q-5 0 -5 5z" />
    <glyph glyph-name="uni0327" unicode="&#x327;" horiz-adv-x="0" 
d="M-436.5 -259q-51.5 34 -51.5 100v6q0 5 4 5h166q5 0 5 -5v-2q0 -8 11 -13t25 -5q15 0 25.5 6.5t10.5 21.5v9q0 25 -29 25h-97q-5 1 -3 7l28 113q1 5 7 5h120q2 0 3.5 -1.5t0.5 -3.5l-10 -45h33q57 0 89.5 -29.5t32.5 -82.5v-11q0 -65 -50 -99.5t-153 -34.5
q-116 0 -167.5 34z" />
    <glyph glyph-name="uni0328" unicode="&#x328;" horiz-adv-x="0" 
d="M-21 -142q-19 -38 -64.5 -66t-118.5 -28q-84 0 -131.5 27t-47.5 71v3q0 43 28 80t75 59h162q-51 -34 -67 -52t-16 -31v-1q0 -8 6.5 -14.5t18.5 -6.5q16 0 27.5 7.5t15.5 16.5q1 3 4.5 4t5.5 -1l100 -61q4 -3 2 -7z" />
    <glyph glyph-name="uni0335" unicode="&#x335;" horiz-adv-x="0" 
d="M-560 565v170q0 5 5 5h470q5 0 5 -5v-170q0 -5 -5 -5h-470q-5 0 -5 5z" />
    <glyph glyph-name="uni0336" unicode="&#x336;" horiz-adv-x="0" 
d="M-1170 195v170q0 5 5 5h1140q5 0 5 -5v-170q0 -5 -5 -5h-1140q-5 0 -5 5z" />
    <glyph glyph-name="uni0337" unicode="&#x337;" horiz-adv-x="0" 
d="M-408.5 99q-1.5 2 -1.5 4v170q0 3 5 5l390 200q2 1 3.5 -1t1.5 -4v-170q0 -3 -5 -5l-390 -200q-2 -1 -3.5 1z" />
    <glyph glyph-name="acute" unicode="&#xb4;" horiz-adv-x="475" 
d="M20.5 567.5q-1.5 2.5 0.5 6.5l124 196l4 2h319q5 0 7 -4.5t-2 -8.5l-215 -193l-3 -1h-229q-4 0 -5.5 2.5z" />
    <glyph glyph-name="breve" unicode="&#x2d8;" horiz-adv-x="496" 
d="M77.5 599q-57.5 44 -57.5 123v23q0 5 5 5h165q5 0 5 -5v-6q0 -19 11.5 -33.5t41.5 -14.5q33 0 43 14t10 34v6q0 5 5 5h165q5 0 5 -5v-23q0 -80 -56 -123.5t-172 -43.5q-113 0 -170.5 44z" />
    <glyph glyph-name="caron" unicode="&#x2c7;" horiz-adv-x="549" 
d="M528 740.5q2 -3.5 -1 -6.5l-157 -167q-2 -2 -3 -2h-184q-1 0 -3 2l-158 167q-2 2 -2 4t2 4t5 2h197l4 -2l44 -45l49 45l4 2h197q4 0 6 -3.5z" />
    <glyph glyph-name="cedilla" unicode="&#xb8;" horiz-adv-x="472" 
d="M35.5 -259q-51.5 34 -51.5 100v6q0 5 4 5h166q5 0 5 -5v-2q0 -8 11 -13t25 -5q15 0 25.5 6.5t10.5 21.5v9q0 25 -29 25h-97q-5 1 -3 7l28 113q1 5 7 5h120q2 0 3.5 -1.5t0.5 -3.5l-10 -45h33q57 0 89.5 -29.5t32.5 -82.5v-11q0 -65 -50 -99.5t-153 -34.5
q-116 0 -167.5 34z" />
    <glyph glyph-name="circumflex" unicode="&#x2c6;" horiz-adv-x="549" 
d="M529 571q0 -2 -2 -4t-5 -2h-197l-4 2l-49 45l-44 -45l-4 -2h-197q-4 0 -6 3.5t1 6.5l158 167q2 2 3 2h184q1 0 3 -2l157 -167q2 -2 2 -4z" />
    <glyph glyph-name="dieresis" unicode="&#xa8;" horiz-adv-x="530" 
d="M20 565v170q0 5 5 5h210q5 0 5 -5v-170q0 -5 -5 -5h-210q-5 0 -5 5zM290 565v170q0 5 5 5h210q5 0 5 -5v-170q0 -5 -5 -5h-210q-5 0 -5 5z" />
    <glyph glyph-name="dotaccent" unicode="&#x2d9;" horiz-adv-x="290" 
d="M20 565v170q0 5 5 5h240q5 0 5 -5v-170q0 -5 -5 -5h-240q-5 0 -5 5z" />
    <glyph glyph-name="grave" unicode="`" horiz-adv-x="475" 
d="M220 565l-3 1l-215 193q-2 2 -2 6q0 7 7 7h319l4 -2l124 -196q1 -1 1 -4q0 -5 -6 -5h-229z" />
    <glyph glyph-name="hungarumlaut" unicode="&#x2dd;" horiz-adv-x="757" 
d="M20.5 567.5q-1.5 2.5 0.5 6.5l112 196q0 2 3 2h287q5 0 6.5 -4.5t-1.5 -8.5l-194 -193l-2 -1h-207q-3 0 -4.5 2.5zM345.5 567.5q-1.5 2.5 0.5 6.5l112 196q0 2 3 2h287q5 0 6.5 -4.5t-1.5 -8.5l-194 -193l-2 -1h-207q-3 0 -4.5 2.5z" />
    <glyph glyph-name="macron" unicode="&#xaf;" horiz-adv-x="640" 
d="M20 565v170q0 5 5 5h590q5 0 5 -5v-170q0 -5 -5 -5h-590q-5 0 -5 5z" />
    <glyph glyph-name="ogonek" unicode="&#x2db;" horiz-adv-x="403" 
d="M382 -142q-19 -38 -64.5 -66t-118.5 -28q-84 0 -131.5 27t-47.5 71v3q0 43 28 80t75 59h162q-51 -34 -67 -52t-16 -31v-1q0 -8 6.5 -14.5t18.5 -6.5q16 0 27.5 7.5t15.5 16.5q1 3 4.5 4t5.5 -1l100 -61q4 -3 2 -7z" />
    <glyph glyph-name="ring" unicode="&#x2da;" horiz-adv-x="384" 
d="M61.5 587.5q-41.5 32.5 -41.5 100.5t41.5 100.5t130.5 32.5q88 0 130 -32.5t42 -100.5t-42 -100.5t-130 -32.5q-89 0 -130.5 32.5zM223 688q0 15 -7 23.5t-24 8.5q-18 0 -25 -8.5t-7 -23.5q0 -16 7 -23.5t25 -7.5q31 0 31 31z" />
    <glyph glyph-name="tilde" unicode="&#x2dc;" horiz-adv-x="569" 
d="M20 573q1 115 52.5 161t122.5 46q29 0 49 -5.5t46 -15.5q22 -10 39 -14.5t40 -4.5q16 0 25 10t11 25q0 2 1.5 3.5t3.5 1.5h134q5 0 5 -5q-1 -110 -53 -158.5t-121 -48.5q-27 0 -46.5 5t-48.5 16q-23 9 -40 14t-39 5q-16 0 -25.5 -10t-11.5 -25q0 -2 -1.5 -3.5t-3.5 -1.5
h-134q-5 0 -5 5z" />
    </font>
</defs>
</svg>
